GentiumBookPlus-BI.ufo
<glyph name="Solidus" format="1">
  <advance width="911"/>
  <unicode hex="002F"/>
  <outline>
    <contour>
      <point x="1014" y="1567" type="line"/>
      <point x="973" y="1599" type="line"/>
      <point x="934" y="1589"/>
      <point x="821" y="1553"/>
      <point x="785" y="1530" type="curve"/>
      <point x="-111" y="-301" type="line"/>
      <point x="-72" y="-336" type="line"/>
      <point x="-39" y="-326"/>
      <point x="94" y="-283"/>
      <point x="121" y="-265" type="curve"/>
    </contour>
  </outline>
</glyph>
<glyph name="NoBreakSpace" format="1">
  <advance width="518"/>
  <unicode hex="00A0"/>
  <outline>
    <contour>
      <point x="450" y="1320" type="move" name="U"/>
    </contour>
    <contour>
      <point x="728" y="870" type="move" name="R"/>
    </contour>
    <contour>
      <point x="240" y="0" type="move" name="O"/>
    </contour>
    <contour>
      <point x="255" y="-100" type="move" name="L"/>
    </contour>
    <contour>
      <point x="265" y="0" type="move" name="H"/>
    </contour>
  </outline>
</glyph>
<glyph name="LftPtngDblAngQuotMrk" format="1">
  <advance width="998"/>
  <unicode hex="00AB"/>
  <outline>
    <contour>
      <point x="762" y="-3" type="line"/>
      <point x="827" y="47" type="line"/>
      <point x="707" y="467" type="line"/>
      <point x="940" y="883" type="line"/>
      <point x="890" y="933" type="line"/>
      <point x="450" y="503" type="line"/>
      <point x="438" y="430" type="line"/>
    </contour>
    <contour>
      <point x="371" y="-3" type="line"/>
      <point x="437" y="47" type="line"/>
      <point x="316" y="467" type="line"/>
      <point x="550" y="883" type="line"/>
      <point x="499" y="933" type="line"/>
      <point x="60" y="503" type="line"/>
      <point x="48" y="430" type="line"/>
    </contour>
  </outline>
</glyph>
<glyph name="AcuteAccent" format="1">
  <advance width="606"/>
  <unicode hex="00B4"/>
  <outline>
    <contour>
      <point x="593" y="1429" type="line"/>
      <point x="568" y="1437"/>
      <point x="411" y="1466"/>
      <point x="380" y="1469" type="curve"/>
      <point x="158" y="1071" type="line"/>
      <point x="177" y="1048"/>
      <point x="212" y="1021"/>
      <point x="233" y="1016" type="curve"/>
      <point x="618" y="1364" type="line"/>
    </contour>
    <contour>
      <point x="306" y="1370" type="move" name="U"/>
    </contour>
  </outline>
</glyph>
<glyph name="RtPtngDblAngQuotMrk" format="1">
  <advance width="998"/>
  <unicode hex="00BB"/>
  <outline>
    <contour>
      <point x="542" y="500" type="line"/>
      <point x="219" y="933" type="line"/>
      <point x="154" y="883" type="line"/>
      <point x="274" y="463" type="line"/>
      <point x="41" y="47" type="line"/>
      <point x="91" y="-3" type="line"/>
      <point x="531" y="427" type="line"/>
    </contour>
    <contour>
      <point x="933" y="500" type="line"/>
      <point x="610" y="933" type="line"/>
      <point x="544" y="883" type="line"/>
      <point x="665" y="463" type="line"/>
      <point x="431" y="47" type="line"/>
      <point x="482" y="-3" type="line"/>
      <point x="921" y="427" type="line"/>
    </contour>
  </outline>
</glyph>
<glyph name="LtnCapACircum" format="1">
  <advance width="1210"/>
  <unicode hex="00C2"/>
  <outline>
    <component base="LtnCapA"/>
    <component base="CombCircum.LP" xOffset="1102" yOffset="320"/>
    <contour>
      <point x="546" y="0" type="move" name="H"/>
    </contour>
    <contour>
      <point x="877" y="0" type="move" name="O"/>
    </contour>
    <contour>
      <point x="776" y="1735" type="move" name="U"/>
    </contour>
    <contour>
      <point x="533" y="-100" type="move" name="L"/>
    </contour>
  </outline>
</glyph>
<glyph name="LtnCapATilde" format="1">
  <advance width="1210"/>
  <unicode hex="00C3"/>
  <outline>
    <component base="LtnCapA"/>
    <component base="CombTilde.LP" xOffset="1072" yOffset="320"/>
    <contour>
      <point x="546" y="0" type="move" name="H"/>
    </contour>
    <contour>
      <point x="761" y="1640" type="move" name="U"/>
    </contour>
    <contour>
      <point x="533" y="-100" type="move" name="L"/>
    </contour>
    <contour>
      <point x="877" y="0" type="move" name="O"/>
    </contour>
  </outline>
</glyph>
<glyph name="LtnCapEGrave" format="1">
  <advance width="1030"/>
  <unicode hex="00C8"/>
  <outline>
    <component base="LtnCapE"/>
    <component base="CombGrave.LP" xOffset="936" yOffset="320"/>
    <contour>
      <point x="458" y="0" type="move" name="H"/>
    </contour>
    <contour>
      <point x="1068" y="1072" type="move" name="R"/>
    </contour>
    <contour>
      <point x="671" y="1640" type="move" name="U"/>
    </contour>
    <contour>
      <point x="444" y="-100" type="move" name="L"/>
    </contour>
    <contour>
      <point x="668" y="0" type="move" name="O"/>
    </contour>
  </outline>
</glyph>
<glyph name="LtnCapECircum" format="1">
  <advance width="1030"/>
  <unicode hex="00CA"/>
  <outline>
    <component base="LtnCapE"/>
    <component base="CombCircum.LP" xOffset="1013" yOffset="320"/>
    <contour>
      <point x="458" y="0" type="move" name="H"/>
    </contour>
    <contour>
      <point x="668" y="0" type="move" name="O"/>
    </contour>
    <contour>
      <point x="1068" y="1072" type="move" name="R"/>
    </contour>
    <contour>
      <point x="687" y="1735" type="move" name="U"/>
    </contour>
    <contour>
      <point x="444" y="-100" type="move" name="L"/>
    </contour>
  </outline>
</glyph>
<glyph name="LtnCapIGrave" format="1">
  <advance width="652"/>
  <unicode hex="00CC"/>
  <outline>
    <component base="LtnCapI"/>
    <component base="CombGrave.LP" xOffset="743" yOffset="320"/>
    <contour>
      <point x="269" y="0" type="move" name="H"/>
    </contour>
    <contour>
      <point x="324" y="0" type="move" name="O"/>
    </contour>
    <contour>
      <point x="648" y="1072" type="move" name="R"/>
    </contour>
    <contour>
      <point x="478" y="1640" type="move" name="U"/>
    </contour>
    <contour>
      <point x="250" y="-100" type="move" name="L"/>
    </contour>
  </outline>
</glyph>
<glyph name="LtnCapIAcute" format="1">
  <advance width="652"/>
  <unicode hex="00CD"/>
  <outline>
    <component base="LtnCapI"/>
    <component base="CombAcute.LP" xOffset="821" yOffset="320"/>
    <contour>
      <point x="269" y="0" type="move" name="H"/>
    </contour>
    <contour>
      <point x="324" y="0" type="move" name="O"/>
    </contour>
    <contour>
      <point x="648" y="1072" type="move" name="R"/>
    </contour>
    <contour>
      <point x="479" y="1640" type="move" name="U"/>
    </contour>
    <contour>
      <point x="250" y="-100" type="move" name="L"/>
    </contour>
  </outline>
</glyph>
<glyph name="LtnCapIDiaer" format="1">
  <advance width="652"/>
  <unicode hex="00CF"/>
  <outline>
    <component base="LtnCapI"/>
    <component base="CombDiaer.LP" xOffset="823" yOffset="320"/>
    <contour>
      <point x="269" y="0" type="move" name="H"/>
    </contour>
    <contour>
      <point x="648" y="1072" type="move" name="R"/>
    </contour>
    <contour>
      <point x="479" y="1640" type="move" name="U"/>
    </contour>
    <contour>
      <point x="250" y="-100" type="move" name="L"/>
    </contour>
    <contour>
      <point x="324" y="0" type="move" name="O"/>
    </contour>
  </outline>
</glyph>
<glyph name="LtnCapNTilde" format="1">
  <advance width="1273"/>
  <unicode hex="00D1"/>
  <outline>
    <component base="LtnCapN"/>
    <component base="CombTilde.LP" xOffset="1118" yOffset="320"/>
    <contour>
      <point x="965" y="0" type="move" name="H"/>
    </contour>
    <contour>
      <point x="807" y="1640" type="move" name="U"/>
    </contour>
    <contour>
      <point x="578" y="-100" type="move" name="L"/>
    </contour>
  </outline>
</glyph>
<glyph name="LtnCapOCircum" format="1">
  <advance width="1191"/>
  <unicode hex="00D4"/>
  <outline>
    <component base="LtnCapO"/>
    <component base="CombCircum.LP" xOffset="1114" yOffset="320"/>
    <contour>
      <point x="540" y="0" type="move" name="H"/>
    </contour>
    <contour>
      <point x="616" y="0" type="move" name="O"/>
    </contour>
    <contour>
      <point x="1248" y="1072" type="move" name="R"/>
    </contour>
    <contour>
      <point x="788" y="1735" type="move" name="U"/>
    </contour>
    <contour>
      <point x="545" y="-100" type="move" name="L"/>
    </contour>
  </outline>
</glyph>
<glyph name="LtnCapODiaer" format="1">
  <advance width="1191"/>
  <unicode hex="00D6"/>
  <outline>
    <component base="LtnCapO"/>
    <component base="CombDiaer.LP" xOffset="1117" yOffset="320"/>
    <contour>
      <point x="540" y="0" type="move" name="H"/>
    </contour>
    <contour>
      <point x="616" y="0" type="move" name="O"/>
    </contour>
    <contour>
      <point x="1248" y="1072" type="move" name="R"/>
    </contour>
    <contour>
      <point x="773" y="1640" type="move" name="U"/>
    </contour>
    <contour>
      <point x="545" y="-100" type="move" name="L"/>
    </contour>
  </outline>
</glyph>
<glyph name="LtnSmAGrave" format="1">
  <advance width="1007"/>
  <unicode hex="00E0"/>
  <outline>
    <component base="LtnSmA"/>
    <component base="CombGrave" xOffset="867"/>
    <contour>
      <point x="385" y="0" type="move" name="H"/>
    </contour>
    <contour>
      <point x="1184" y="870" type="move" name="R"/>
    </contour>
    <contour>
      <point x="642" y="1370" type="move" name="U"/>
    </contour>
    <contour>
      <point x="442" y="-100" type="move" name="L"/>
    </contour>
    <contour>
      <point x="755" y="0" type="move" name="O"/>
    </contour>
  </outline>
</glyph>
<glyph name="LtnSmAAcute" format="1">
  <advance width="1007"/>
  <unicode hex="00E1"/>
  <outline>
    <component base="LtnSmA"/>
    <component base="CombAcute" xOffset="978"/>
    <contour>
      <point x="385" y="0" type="move" name="H"/>
    </contour>
    <contour>
      <point x="755" y="0" type="move" name="O"/>
    </contour>
    <contour>
      <point x="1184" y="870" type="move" name="R"/>
    </contour>
    <contour>
      <point x="643" y="1370" type="move" name="U"/>
    </contour>
    <contour>
      <point x="442" y="-100" type="move" name="L"/>
    </contour>
  </outline>
</glyph>
<glyph name="LtnSmARingAbv" format="1">
  <advance width="1007"/>
  <unicode hex="00E5"/>
  <outline>
    <component base="LtnSmA"/>
    <component base="CombRingAbv" xOffset="979"/>
    <contour>
      <point x="385" y="0" type="move" name="H"/>
    </contour>
    <contour>
      <point x="1184" y="870" type="move" name="R"/>
    </contour>
    <contour>
      <point x="646" y="1420" type="move" name="U"/>
    </contour>
    <contour>
      <point x="442" y="-100" type="move" name="L"/>
    </contour>
    <contour>
      <point x="755" y="0" type="move" name="O"/>
    </contour>
  </outline>
</glyph>
<glyph name="LtnSmEGrave" format="1">
  <advance width="885"/>
  <unicode hex="00E8"/>
  <outline>
    <component base="LtnSmE"/>
    <component base="CombGrave" xOffset="825"/>
    <contour>
      <point x="398" y="0" type="move" name="H"/>
    </contour>
    <contour>
      <point x="1062" y="870" type="move" name="R"/>
    </contour>
    <contour>
      <point x="600" y="1370" type="move" name="U"/>
    </contour>
    <contour>
      <point x="384" y="-100" type="move" name="L"/>
    </contour>
    <contour>
      <point x="448" y="0" type="move" name="O"/>
    </contour>
  </outline>
</glyph>
<glyph name="LtnSmECircum" format="1">
  <advance width="885"/>
  <unicode hex="00EA"/>
  <outline>
    <component base="LtnSmE"/>
    <component base="CombCircum" xOffset="935"/>
    <contour>
      <point x="398" y="0" type="move" name="H"/>
    </contour>
    <contour>
      <point x="448" y="0" type="move" name="O"/>
    </contour>
    <contour>
      <point x="1062" y="870" type="move" name="R"/>
    </contour>
    <contour>
      <point x="623" y="1490" type="move" name="U"/>
    </contour>
    <contour>
      <point x="384" y="-100" type="move" name="L"/>
    </contour>
  </outline>
</glyph>
<glyph name="LtnSmICircum" format="1">
  <advance width="589"/>
  <unicode hex="00EE"/>
  <outline>
    <component base="LtnSmDotlessI"/>
    <component base="CombCircum" xOffset="784"/>
    <contour>
      <point x="248" y="0" type="move" name="H"/>
    </contour>
    <contour>
      <point x="616" y="870" type="move" name="R"/>
    </contour>
    <contour>
      <point x="472" y="1490" type="move" name="U"/>
    </contour>
    <contour>
      <point x="248" y="-100" type="move" name="L"/>
    </contour>
    <contour>
      <point x="288" y="0" type="move" name="O"/>
    </contour>
  </outline>
</glyph>
<glyph name="LtnSmIDiaer" format="1">
  <advance width="589"/>
  <unicode hex="00EF"/>
  <outline>
    <component base="LtnSmDotlessI"/>
    <component base="CombDiaer" xOffset="787"/>
    <contour>
      <point x="248" y="0" type="move" name="H"/>
    </contour>
    <contour>
      <point x="288" y="0" type="move" name="O"/>
    </contour>
    <contour>
      <point x="616" y="870" type="move" name="R"/>
    </contour>
    <contour>
      <point x="451" y="1370" type="move" name="U"/>
    </contour>
    <contour>
      <point x="248" y="-100" type="move" name="L"/>
    </contour>
  </outline>
</glyph>
<glyph name="LtnSmOGrave" format="1">
  <advance width="924"/>
  <unicode hex="00F2"/>
  <outline>
    <component base="LtnSmO"/>
    <component base="CombGrave" xOffset="830"/>
    <contour>
      <point x="430" y="0" type="move" name="H"/>
    </contour>
    <contour>
      <point x="970" y="870" type="move" name="R"/>
    </contour>
    <contour>
      <point x="605" y="1370" type="move" name="U"/>
    </contour>
    <contour>
      <point x="404" y="-100" type="move" name="L"/>
    </contour>
    <contour>
      <point x="479" y="0" type="move" name="O"/>
    </contour>
  </outline>
</glyph>
<glyph name="LtnSmOCircum" format="1">
  <advance width="924"/>
  <unicode hex="00F4"/>
  <outline>
    <component base="LtnSmO"/>
    <component base="CombCircum" xOffset="940"/>
    <contour>
      <point x="430" y="0" type="move" name="H"/>
    </contour>
    <contour>
      <point x="970" y="870" type="move" name="R"/>
    </contour>
    <contour>
      <point x="628" y="1490" type="move" name="U"/>
    </contour>
    <contour>
      <point x="404" y="-100" type="move" name="L"/>
    </contour>
    <contour>
      <point x="479" y="0" type="move" name="O"/>
    </contour>
  </outline>
</glyph>
<glyph name="LtnSmUAcute" format="1">
  <advance width="1127"/>
  <unicode hex="00FA"/>
  <outline>
    <component base="LtnSmU"/>
    <component base="CombAcute" xOffset="1019"/>
    <contour>
      <point x="435" y="0" type="move" name="H"/>
    </contour>
    <contour>
      <point x="1170" y="870" type="move" name="R"/>
    </contour>
    <contour>
      <point x="684" y="1370" type="move" name="U"/>
    </contour>
    <contour>
      <point x="482" y="-100" type="move" name="L"/>
    </contour>
    <contour>
      <point x="849" y="0" type="move" name="O"/>
    </contour>
  </outline>
</glyph>
<glyph name="LtnSmUCircum" format="1">
  <advance width="1127"/>
  <unicode hex="00FB"/>
  <outline>
    <component base="LtnSmU"/>
    <component base="CombCircum" xOffset="1018"/>
    <contour>
      <point x="435" y="0" type="move" name="H"/>
    </contour>
    <contour>
      <point x="1170" y="870" type="move" name="R"/>
    </contour>
    <contour>
      <point x="706" y="1490" type="move" name="U"/>
    </contour>
    <contour>
      <point x="482" y="-100" type="move" name="L"/>
    </contour>
    <contour>
      <point x="849" y="0" type="move" name="O"/>
    </contour>
  </outline>
</glyph>
<glyph name="LtnSmYAcute" format="1">
  <advance width="996"/>
  <unicode hex="00FD"/>
  <outline>
    <component base="LtnSmY"/>
    <component base="CombAcute" xOffset="986"/>
    <contour>
      <point x="1173" y="870" type="move" name="R"/>
    </contour>
    <contour>
      <point x="651" y="1370" type="move" name="U"/>
    </contour>
    <contour>
      <point x="680" y="-100" type="move" name="L"/>
    </contour>
  </outline>
</glyph>
<glyph name="LtnSmYDiaer" format="1">
  <advance width="996"/>
  <unicode hex="00FF"/>
  <outline>
    <component base="LtnSmY"/>
    <component base="CombDiaer" xOffset="988"/>
    <contour>
      <point x="1173" y="870" type="move" name="R"/>
    </contour>
    <contour>
      <point x="652" y="1370" type="move" name="U"/>
    </contour>
    <contour>
      <point x="680" y="-100" type="move" name="L"/>
    </contour>
  </outline>
</glyph>
<glyph name="LtnSmAMacron" format="1">
  <advance width="1007"/>
  <unicode hex="0101"/>
  <outline>
    <component base="LtnSmA"/>
    <component base="CombMacron" xOffset="990"/>
    <contour>
      <point x="385" y="0" type="move" name="H"/>
    </contour>
    <contour>
      <point x="1184" y="870" type="move" name="R"/>
    </contour>
    <contour>
      <point x="644" y="1370" type="move" name="U"/>
    </contour>
    <contour>
      <point x="442" y="-100" type="move" name="L"/>
    </contour>
    <contour>
      <point x="755" y="0" type="move" name="O"/>
    </contour>
  </outline>
</glyph>
<glyph name="LtnCapAOgonek" format="1">
  <advance width="1210"/>
  <unicode hex="0104"/>
  <outline>
    <component base="LtnCapA"/>
    <component base="CombOgonek" xOffset="1366"/>
    <contour>
      <point x="546" y="0" type="move" name="H"/>
    </contour>
    <contour>
      <point x="717" y="1320" type="move" name="U"/>
    </contour>
    <contour>
      <point x="745" y="-600" type="move" name="L"/>
    </contour>
  </outline>
</glyph>
<glyph name="LtnSmAOgonek" format="1">
  <advance width="1007"/>
  <unicode hex="0105"/>
  <outline>
    <component base="LtnSmA"/>
    <component base="CombOgonek" xOffset="1244"/>
    <contour>
      <point x="385" y="0" type="move" name="H"/>
    </contour>
    <contour>
      <point x="1184" y="870" type="move" name="R"/>
    </contour>
    <contour>
      <point x="592" y="1000" type="move" name="U"/>
    </contour>
    <contour>
      <point x="623" y="-600" type="move" name="L"/>
    </contour>
  </outline>
</glyph>
<glyph name="LtnSmCAcute" format="1">
  <advance width="899"/>
  <unicode hex="0107"/>
  <outline>
    <component base="LtnSmC"/>
    <component base="CombAcute" xOffset="990"/>
    <contour>
      <point x="427" y="0" type="move" name="H"/>
    </contour>
    <contour>
      <point x="991" y="870" type="move" name="R"/>
    </contour>
    <contour>
      <point x="655" y="1370" type="move" name="U"/>
    </contour>
    <contour>
      <point x="454" y="-100" type="move" name="L"/>
    </contour>
  </outline>
</glyph>
<glyph name="LtnCapDCaron" format="1">
  <advance width="1238"/>
  <unicode hex="010E"/>
  <outline>
    <component base="LtnCapD"/>
    <component base="CombCaron.LP" xOffset="1104" yOffset="320"/>
    <contour>
      <point x="763" y="1668" type="move" name="U"/>
    </contour>
    <contour>
      <point x="529" y="-100" type="move" name="L"/>
    </contour>
  </outline>
</glyph>
<glyph name="LtnCapEMacron" format="1">
  <advance width="1030"/>
  <unicode hex="0112"/>
  <outline>
    <component base="LtnCapE"/>
    <component base="CombMacron.LP" xOffset="1026" yOffset="320"/>
    <contour>
      <point x="458" y="0" type="move" name="H"/>
    </contour>
    <contour>
      <point x="668" y="0" type="move" name="O"/>
    </contour>
    <contour>
      <point x="1068" y="1072" type="move" name="R"/>
    </contour>
    <contour>
      <point x="672" y="1640" type="move" name="U"/>
    </contour>
    <contour>
      <point x="444" y="-100" type="move" name="L"/>
    </contour>
  </outline>
</glyph>
<glyph name="LtnSmEMacron" format="1">
  <advance width="885"/>
  <unicode hex="0113"/>
  <outline>
    <component base="LtnSmE"/>
    <component base="CombMacron" xOffset="948"/>
    <contour>
      <point x="398" y="0" type="move" name="H"/>
    </contour>
    <contour>
      <point x="1062" y="870" type="move" name="R"/>
    </contour>
    <contour>
      <point x="602" y="1370" type="move" name="U"/>
    </contour>
    <contour>
      <point x="384" y="-100" type="move" name="L"/>
    </contour>
    <contour>
      <point x="448" y="0" type="move" name="O"/>
    </contour>
  </outline>
</glyph>
<glyph name="LtnCapEBreve" format="1">
  <advance width="1030"/>
  <unicode hex="0114"/>
  <outline>
    <component base="LtnCapE"/>
    <component base="CombBreve" xOffset="1015" yOffset="320"/>
    <contour>
      <point x="458" y="0" type="move" name="H"/>
    </contour>
    <contour>
      <point x="668" y="0" type="move" name="O"/>
    </contour>
    <contour>
      <point x="1068" y="1072" type="move" name="R"/>
    </contour>
    <contour>
      <point x="672" y="1640" type="move" name="U"/>
    </contour>
    <contour>
      <point x="444" y="-100" type="move" name="L"/>
    </contour>
  </outline>
</glyph>
<glyph name="LtnCapEDotAbv" format="1">
  <advance width="1030"/>
  <unicode hex="0116"/>
  <outline>
    <component base="LtnCapE"/>
    <component base="CombDotAbv.LP" xOffset="1017" yOffset="320"/>
    <contour>
      <point x="458" y="0" type="move" name="H"/>
    </contour>
    <contour>
      <point x="1068" y="1072" type="move" name="R"/>
    </contour>
    <contour>
      <point x="672" y="1640" type="move" name="U"/>
    </contour>
    <contour>
      <point x="444" y="-100" type="move" name="L"/>
    </contour>
    <contour>
      <point x="668" y="0" type="move" name="O"/>
    </contour>
  </outline>
</glyph>
<glyph name="LtnCapEOgonek" format="1">
  <advance width="1030"/>
  <unicode hex="0118"/>
  <outline>
    <component base="LtnCapE"/>
    <component base="CombOgonek" xOffset="1157"/>
    <contour>
      <point x="458" y="0" type="move" name="H"/>
    </contour>
    <contour>
      <point x="1068" y="1072" type="move" name="R"/>
    </contour>
    <contour>
      <point x="628" y="1320" type="move" name="U"/>
    </contour>
    <contour>
      <point x="536" y="-600" type="move" name="L"/>
    </contour>
  </outline>
</glyph>
<glyph name="LtnCapECaron" format="1">
  <advance width="1030"/>
  <unicode hex="011A"/>
  <outline>
    <component base="LtnCapE"/>
    <component base="CombCaron.LP" xOffset="1018" yOffset="320"/>
    <contour>
      <point x="458" y="0" type="move" name="H"/>
    </contour>
    <contour>
      <point x="1068" y="1072" type="move" name="R"/>
    </contour>
    <contour>
      <point x="677" y="1668" type="move" name="U"/>
    </contour>
    <contour>
      <point x="444" y="-100" type="move" name="L"/>
    </contour>
    <contour>
      <point x="668" y="0" type="move" name="O"/>
    </contour>
  </outline>
</glyph>
<glyph name="LtnSmGDotAbv" format="1">
  <advance width="977"/>
  <unicode hex="0121"/>
  <outline>
    <component base="LtnSmG"/>
    <component base="CombDotAbv" xOffset="970"/>
    <contour>
      <point x="340" y="-450" type="move" name="H"/>
    </contour>
    <contour>
      <point x="1096" y="870" type="move" name="R"/>
    </contour>
    <contour>
      <point x="597" y="1353" type="move" name="U"/>
    </contour>
    <contour>
      <point x="329" y="-600" type="move" name="L"/>
    </contour>
  </outline>
</glyph>
<glyph name="LtnSmITilde" format="1">
  <advance width="589"/>
  <unicode hex="0129"/>
  <outline>
    <component base="LtnSmDotlessI"/>
    <component base="CombTilde" xOffset="787"/>
    <contour>
      <point x="248" y="0" type="move" name="H"/>
    </contour>
    <contour>
      <point x="616" y="870" type="move" name="R"/>
    </contour>
    <contour>
      <point x="448" y="1353" type="move" name="U"/>
    </contour>
    <contour>
      <point x="248" y="-100" type="move" name="L"/>
    </contour>
    <contour>
      <point x="288" y="0" type="move" name="O"/>
    </contour>
  </outline>
</glyph>
<glyph name="LtnSmIMacron" format="1">
  <advance width="589"/>
  <unicode hex="012B"/>
  <outline>
    <component base="LtnSmDotlessI"/>
    <component base="CombMacron.Short" xOffset="797"/>
    <contour>
      <point x="248" y="0" type="move" name="H"/>
    </contour>
    <contour>
      <point x="616" y="870" type="move" name="R"/>
    </contour>
    <contour>
      <point x="451" y="1370" type="move" name="U"/>
    </contour>
    <contour>
      <point x="248" y="-100" type="move" name="L"/>
    </contour>
    <contour>
      <point x="288" y="0" type="move" name="O"/>
    </contour>
  </outline>
</glyph>
<glyph name="LtnCapIBreve" format="1">
  <advance width="652"/>
  <unicode hex="012C"/>
  <outline>
    <component base="LtnCapI"/>
    <component base="CombBreve" xOffset="822" yOffset="320"/>
    <contour>
      <point x="269" y="0" type="move" name="H"/>
    </contour>
    <contour>
      <point x="648" y="1072" type="move" name="R"/>
    </contour>
    <contour>
      <point x="479" y="1640" type="move" name="U"/>
    </contour>
    <contour>
      <point x="250" y="-100" type="move" name="L"/>
    </contour>
    <contour>
      <point x="324" y="0" type="move" name="O"/>
    </contour>
  </outline>
</glyph>
<glyph name="LtnSmIBreve" format="1">
  <advance width="589"/>
  <unicode hex="012D"/>
  <outline>
    <component base="LtnSmDotlessI"/>
    <component base="CombBreve" xOffset="786"/>
    <contour>
      <point x="248" y="0" type="move" name="H"/>
    </contour>
    <contour>
      <point x="616" y="870" type="move" name="R"/>
    </contour>
    <contour>
      <point x="443" y="1320" type="move" name="U"/>
    </contour>
    <contour>
      <point x="248" y="-100" type="move" name="L"/>
    </contour>
    <contour>
      <point x="288" y="0" type="move" name="O"/>
    </contour>
  </outline>
</glyph>
<glyph name="LtnSmIOgonek" format="1">
  <advance width="589"/>
  <unicode hex="012F"/>
  <outline>
    <component base="LtnSmI"/>
    <component base="CombOgonek" xOffset="769"/>
    <contour>
      <point x="250" y="0" type="move" name="H"/>
    </contour>
    <contour>
      <point x="771" y="870" type="move" name="R"/>
    </contour>
    <contour>
      <point x="399" y="1000" type="move" name="U"/>
    </contour>
    <contour>
      <point x="148" y="-600" type="move" name="L"/>
    </contour>
  </outline>
</glyph>
<glyph name="LtnCapLigIj" format="1">
  <advance width="1151"/>
  <unicode hex="0132"/>
  <outline>
    <component base="LtnCapI"/>
    <component base="LtnCapJ" xOffset="573"/>
    <contour>
      <point x="202" y="0" type="move" name="H"/>
    </contour>
    <contour>
      <point x="225" y="0" type="move" name="O"/>
    </contour>
    <contour>
      <point x="1003" y="1320" type="move" name="U"/>
    </contour>
    <contour>
      <point x="731" y="-600" type="move" name="L"/>
    </contour>
  </outline>
</glyph>
<glyph name="LtnCapJCircum" format="1">
  <advance width="658"/>
  <unicode hex="0134"/>
  <outline>
    <component base="LtnCapJ"/>
    <component base="CombCircum.LP" xOffset="854" yOffset="320"/>
    <contour>
      <point x="528" y="1735" type="move" name="U"/>
    </contour>
    <contour>
      <point x="205" y="-600" type="move" name="L"/>
    </contour>
  </outline>
</glyph>
<glyph name="LtnSmKCedilla" format="1">
  <advance width="1039"/>
  <unicode hex="0137"/>
  <outline>
    <component base="LtnSmK"/>
    <component base="CombCommaBlw" xOffset="993"/>
    <contour>
      <point x="190" y="0" type="move" name="H"/>
    </contour>
    <contour>
      <point x="1174" y="870" type="move" name="R"/>
    </contour>
    <contour>
      <point x="687" y="1580" type="move" name="U"/>
    </contour>
    <contour>
      <point x="385" y="-600" type="move" name="L"/>
    </contour>
  </outline>
</glyph>
<glyph name="LtnCapLAcute" format="1">
  <advance width="1018"/>
  <unicode hex="0139"/>
  <outline>
    <component base="LtnCapL"/>
    <component base="CombAcute.LP" xOffset="988" yOffset="320"/>
    <contour>
      <point x="480" y="0" type="move" name="H"/>
    </contour>
    <contour>
      <point x="744" y="870" type="move" name="R"/>
    </contour>
    <contour>
      <point x="646" y="1640" type="move" name="U"/>
    </contour>
    <contour>
      <point x="448" y="-100" type="move" name="L"/>
    </contour>
  </outline>
</glyph>
<glyph name="LtnSmLCedilla" format="1">
  <advance width="569"/>
  <unicode hex="013C"/>
  <outline>
    <component base="LtnSmL"/>
    <component base="CombCommaBlw" xOffset="742"/>
    <contour>
      <point x="220" y="0" type="move" name="H"/>
    </contour>
    <contour>
      <point x="666" y="870" type="move" name="R"/>
    </contour>
    <contour>
      <point x="447" y="1640" type="move" name="U"/>
    </contour>
    <contour>
      <point x="134" y="-600" type="move" name="L"/>
    </contour>
  </outline>
</glyph>
<glyph name="LtnSmLCaron" format="1">
  <advance width="737"/>
  <unicode hex="013E"/>
  <outline>
    <component base="LtnSmL"/>
    <component base="CombCommaAbvRt" xOffset="478"/>
    <contour>
      <point x="397" y="1640" type="move" name="U"/>
    </contour>
    <contour>
      <point x="180" y="0" type="move" name="H"/>
    </contour>
    <contour>
      <point x="158" y="-100" type="move" name="L"/>
    </contour>
  </outline>
</glyph>
<glyph name="LtnSmNAcute" format="1">
  <advance width="1103"/>
  <unicode hex="0144"/>
  <outline>
    <component base="LtnSmN"/>
    <component base="CombAcute" xOffset="1015"/>
    <contour>
      <point x="760" y="0" type="move" name="H"/>
    </contour>
    <contour>
      <point x="680" y="1370" type="move" name="U"/>
    </contour>
    <contour>
      <point x="478" y="-100" type="move" name="L"/>
    </contour>
  </outline>
</glyph>
<glyph name="LtnSmNCaron" format="1">
  <advance width="1103"/>
  <unicode hex="0148"/>
  <outline>
    <component base="LtnSmN"/>
    <component base="CombCaron" xOffset="1019"/>
    <contour>
      <point x="760" y="0" type="move" name="H"/>
    </contour>
    <contour>
      <point x="689" y="1422" type="move" name="U"/>
    </contour>
    <contour>
      <point x="478" y="-100" type="move" name="L"/>
    </contour>
  </outline>
</glyph>
<glyph name="LtnCapOMacron" format="1">
  <advance width="1191"/>
  <unicode hex="014C"/>
  <outline>
    <component base="LtnCapO"/>
    <component base="CombMacron.LP" xOffset="1127" yOffset="320"/>
    <contour>
      <point x="540" y="0" type="move" name="H"/>
    </contour>
    <contour>
      <point x="1248" y="1072" type="move" name="R"/>
    </contour>
    <contour>
      <point x="773" y="1640" type="move" name="U"/>
    </contour>
    <contour>
      <point x="545" y="-100" type="move" name="L"/>
    </contour>
    <contour>
      <point x="616" y="0" type="move" name="O"/>
    </contour>
  </outline>
</glyph>
<glyph name="LtnCapOBreve" format="1">
  <advance width="1191"/>
  <unicode hex="014E"/>
  <outline>
    <component base="LtnCapO"/>
    <component base="CombBreve" xOffset="1116" yOffset="320"/>
    <contour>
      <point x="540" y="0" type="move" name="H"/>
    </contour>
    <contour>
      <point x="1248" y="1072" type="move" name="R"/>
    </contour>
    <contour>
      <point x="773" y="1640" type="move" name="U"/>
    </contour>
    <contour>
      <point x="545" y="-100" type="move" name="L"/>
    </contour>
    <contour>
      <point x="616" y="0" type="move" name="O"/>
    </contour>
  </outline>
</glyph>
<glyph name="LtnCapODblAcute" format="1">
  <advance width="1191"/>
  <unicode hex="0150"/>
  <outline>
    <component base="LtnCapO"/>
    <component base="CombDblAcute" xOffset="1123" yOffset="320"/>
    <contour>
      <point x="540" y="0" type="move" name="H"/>
    </contour>
    <contour>
      <point x="1248" y="1072" type="move" name="R"/>
    </contour>
    <contour>
      <point x="874" y="1844" type="move" name="U"/>
    </contour>
    <contour>
      <point x="545" y="-100" type="move" name="L"/>
    </contour>
    <contour>
      <point x="616" y="0" type="move" name="O"/>
    </contour>
  </outline>
</glyph>
<glyph name="LtnCapRCedilla" format="1">
  <advance width="1167"/>
  <unicode hex="0156"/>
  <outline>
    <component base="LtnCapR"/>
    <component base="CombCommaBlw" xOffset="1013"/>
    <contour>
      <point x="250" y="0" type="move" name="H"/>
    </contour>
    <contour>
      <point x="658" y="1320" type="move" name="U"/>
    </contour>
    <contour>
      <point x="405" y="-600" type="move" name="L"/>
    </contour>
  </outline>
</glyph>
<glyph name="LtnSmSAcute" format="1">
  <advance width="811"/>
  <unicode hex="015B"/>
  <outline>
    <component base="LtnSmS"/>
    <component base="CombAcute" xOffset="873"/>
    <contour>
      <point x="340" y="0" type="move" name="H"/>
    </contour>
    <contour>
      <point x="538" y="1370" type="move" name="U"/>
    </contour>
    <contour>
      <point x="336" y="-100" type="move" name="L"/>
    </contour>
  </outline>
</glyph>
<glyph name="LtnCapSCaron" format="1">
  <advance width="1000"/>
  <unicode hex="0160"/>
  <outline>
    <component base="LtnCapS"/>
    <component base="CombCaron.LP" xOffset="998" yOffset="320"/>
    <contour>
      <point x="438" y="0" type="move" name="H"/>
    </contour>
    <contour>
      <point x="657" y="1668" type="move" name="U"/>
    </contour>
    <contour>
      <point x="424" y="-100" type="move" name="L"/>
    </contour>
  </outline>
</glyph>
<glyph name="LtnSmSCaron" format="1">
  <advance width="811"/>
  <unicode hex="0161"/>
  <outline>
    <component base="LtnSmS"/>
    <component base="CombCaron" xOffset="877"/>
    <contour>
      <point x="340" y="0" type="move" name="H"/>
    </contour>
    <contour>
      <point x="547" y="1422" type="move" name="U"/>
    </contour>
    <contour>
      <point x="336" y="-100" type="move" name="L"/>
    </contour>
  </outline>
</glyph>
<glyph name="LtnSmUTilde" format="1">
  <advance width="1127"/>
  <unicode hex="0169"/>
  <outline>
    <component base="LtnSmU"/>
    <component base="CombTilde" xOffset="1021"/>
    <contour>
      <point x="435" y="0" type="move" name="H"/>
    </contour>
    <contour>
      <point x="1170" y="870" type="move" name="R"/>
    </contour>
    <contour>
      <point x="682" y="1353" type="move" name="U"/>
    </contour>
    <contour>
      <point x="482" y="-100" type="move" name="L"/>
    </contour>
    <contour>
      <point x="849" y="0" type="move" name="O"/>
    </contour>
  </outline>
</glyph>
<glyph name="LtnCapURingAbv" format="1">
  <advance width="1282"/>
  <unicode hex="016E"/>
  <outline>
    <component base="LtnCapU"/>
    <component base="CombRingAbv" xOffset="1161" yOffset="320"/>
    <contour>
      <point x="620" y="0" type="move" name="H"/>
    </contour>
    <contour>
      <point x="688" y="0" type="move" name="O"/>
    </contour>
    <contour>
      <point x="1296" y="1072" type="move" name="R"/>
    </contour>
    <contour>
      <point x="828" y="1740" type="move" name="U"/>
    </contour>
    <contour>
      <point x="590" y="-100" type="move" name="L"/>
    </contour>
  </outline>
</glyph>
<glyph name="LtnCapUDblAcute" format="1">
  <advance width="1282"/>
  <unicode hex="0170"/>
  <outline>
    <component base="LtnCapU"/>
    <component base="CombDblAcute" xOffset="1168" yOffset="320"/>
    <contour>
      <point x="620" y="0" type="move" name="H"/>
    </contour>
    <contour>
      <point x="1296" y="1072" type="move" name="R"/>
    </contour>
    <contour>
      <point x="919" y="1844" type="move" name="U"/>
    </contour>
    <contour>
      <point x="590" y="-100" type="move" name="L"/>
    </contour>
    <contour>
      <point x="688" y="0" type="move" name="O"/>
    </contour>
  </outline>
</glyph>
<glyph name="LtnCapZAcute" format="1">
  <advance width="1078"/>
  <unicode hex="0179"/>
  <outline>
    <component base="LtnCapZ"/>
    <component base="CombAcute.LP" xOffset="1043" yOffset="320"/>
    <contour>
      <point x="701" y="1640" type="move" name="U"/>
    </contour>
    <contour>
      <point x="493" y="-100" type="move" name="L"/>
    </contour>
  </outline>
</glyph>
<glyph name="LtnSmZAcute" format="1">
  <advance width="776"/>
  <unicode hex="017A"/>
  <outline>
    <component base="LtnSmZ"/>
    <component base="CombAcute" xOffset="880"/>
    <contour>
      <point x="343" y="0" type="move" name="H"/>
    </contour>
    <contour>
      <point x="545" y="1370" type="move" name="U"/>
    </contour>
    <contour>
      <point x="343" y="-100" type="move" name="L"/>
    </contour>
  </outline>
</glyph>
<glyph name="LtnSmZCaron" format="1">
  <advance width="776"/>
  <unicode hex="017E"/>
  <outline>
    <component base="LtnSmZ"/>
    <component base="CombCaron" xOffset="884"/>
    <contour>
      <point x="343" y="0" type="move" name="H"/>
    </contour>
    <contour>
      <point x="554" y="1422" type="move" name="U"/>
    </contour>
    <contour>
      <point x="343" y="-100" type="move" name="L"/>
    </contour>
  </outline>
</glyph>
<glyph name="LtnCapSchwa" format="1">
  <advance width="1206"/>
  <unicode hex="018F"/>
  <outline>
    <contour>
      <point x="1182" y="678" type="curve" smooth="yes"/>
      <point x="1236" y="1065"/>
      <point x="994" y="1290"/>
      <point x="704" y="1290" type="curve" smooth="yes"/>
      <point x="589" y="1290"/>
      <point x="406" y="1260"/>
      <point x="200" y="1081" type="curve"/>
      <point x="205" y="1073"/>
      <point x="233" y="1012"/>
      <point x="246" y="1006" type="curve"/>
      <point x="422" y="1119"/>
      <point x="511" y="1135"/>
      <point x="612" y="1135" type="curve" smooth="yes"/>
      <point x="753" y="1135"/>
      <point x="939" y="975"/>
      <point x="892" y="641" type="curve" smooth="yes"/>
      <point x="837" y="255"/>
      <point x="685" y="125"/>
      <point x="532" y="125" type="curve" smooth="yes"/>
      <point x="399" y="125"/>
      <point x="317" y="234"/>
      <point x="332" y="339" type="curve" smooth="yes"/>
      <point x="343" y="413"/>
      <point x="381" y="460"/>
      <point x="419" y="460" type="curve" smooth="yes"/>
      <point x="929" y="460" type="line"/>
      <point x="947" y="590" type="line"/>
      <point x="333" y="590" type="line" smooth="yes"/>
      <point x="315" y="590"/>
      <point x="197" y="540"/>
      <point x="130" y="502" type="curve"/>
      <point x="95" y="461"/>
      <point x="81" y="401"/>
      <point x="74" y="354" type="curve" smooth="yes"/>
      <point x="49" y="177"/>
      <point x="144" y="-30"/>
      <point x="455" y="-30" type="curve" smooth="yes"/>
      <point x="832" y="-30"/>
      <point x="1123" y="258"/>
    </contour>
    <contour>
      <point x="599" y="1320" type="move" name="U"/>
    </contour>
    <contour>
      <point x="405" y="-100" type="move" name="L"/>
    </contour>
  </outline>
</glyph>
<glyph name="LtnCapOHorn" format="1">
  <advance width="1278"/>
  <unicode hex="01A0"/>
  <outline>
    <component base="LtnCapO"/>
    <component base="CombHorn" xOffset="1110" yOffset="380"/>
    <contour>
      <point x="729" y="1320" type="move" name="U"/>
    </contour>
    <contour>
      <point x="545" y="-100" type="move" name="L"/>
    </contour>
  </outline>
</glyph>
<glyph name="LtnSmOHorn" format="1">
  <advance width="1028"/>
  <unicode hex="01A1"/>
  <outline>
    <component base="LtnSmO" xOffset="-234"/>
    <component base="CombHorn" xOffset="860"/>
    <contour>
      <point x="535" y="1000" type="move" name="U"/>
    </contour>
    <contour>
      <point x="384" y="-100" type="move" name="L"/>
    </contour>
  </outline>
</glyph>
<glyph name="LtnSmUHorn" format="1">
  <advance width="1258"/>
  <unicode hex="01B0"/>
  <outline>
    <component base="LtnSmU"/>
    <component base="CombHorn" xOffset="1090"/>
    <contour>
      <point x="633" y="1000" type="move" name="U"/>
    </contour>
    <contour>
      <point x="482" y="-100" type="move" name="L"/>
    </contour>
  </outline>
</glyph>
<glyph name="LtnLateralClick" format="1">
  <advance width="827"/>
  <unicode hex="01C1"/>
  <outline>
    <contour>
      <point x="242" y="-439" type="curve"/>
      <point x="242" y="-203"/>
      <point x="453" y="1229"/>
      <point x="502" y="1498" type="curve"/>
      <point x="454" y="1520" type="line"/>
      <point x="418" y="1510"/>
      <point x="305" y="1481"/>
      <point x="269" y="1459" type="curve"/>
      <point x="295" y="1220"/>
      <point x="70" y="-217"/>
      <point x="20" y="-478" type="curve"/>
      <point x="68" y="-500" type="line"/>
      <point x="99" y="-489"/>
      <point x="217" y="-460"/>
    </contour>
    <contour>
      <point x="572" y="-439" type="curve"/>
      <point x="572" y="-203"/>
      <point x="783" y="1229"/>
      <point x="832" y="1498" type="curve"/>
      <point x="784" y="1520" type="line"/>
      <point x="748" y="1510"/>
      <point x="635" y="1481"/>
      <point x="599" y="1459" type="curve"/>
      <point x="625" y="1220"/>
      <point x="400" y="-217"/>
      <point x="350" y="-478" type="curve"/>
      <point x="398" y="-500" type="line"/>
      <point x="429" y="-489"/>
      <point x="547" y="-460"/>
    </contour>
    <contour>
      <point x="568" y="1640" type="move" name="U"/>
    </contour>
    <contour>
      <point x="261" y="-600" type="move" name="L"/>
    </contour>
  </outline>
</glyph>
<glyph name="LtnCapDSmZCaron" format="1">
  <advance width="2014"/>
  <unicode hex="01C5"/>
  <outline>
    <component base="LtnCapD"/>
    <component base="LtnSmZ" xOffset="1238"/>
    <component base="CombCaron" xOffset="2122"/>
    <contour>
      <point x="1581" y="0" type="move" name="H"/>
    </contour>
    <contour>
      <point x="1792" y="1422" type="move" name="U"/>
    </contour>
    <contour>
      <point x="1581" y="-100" type="move" name="L"/>
    </contour>
  </outline>
</glyph>
<glyph name="LtnCapNj" format="1">
  <advance width="1931"/>
  <unicode hex="01CA"/>
  <outline>
    <component base="LtnCapN"/>
    <component base="LtnCapJ" xOffset="1273"/>
    <contour>
      <point x="965" y="0" type="move" name="H"/>
    </contour>
    <contour>
      <point x="1742" y="1320" type="move" name="U"/>
    </contour>
    <contour>
      <point x="1478" y="-600" type="move" name="L"/>
    </contour>
  </outline>
</glyph>
<glyph name="LtnCapNSmJ" format="1">
  <advance width="1741"/>
  <unicode hex="01CB"/>
  <outline>
    <component base="LtnCapN"/>
    <component base="LtnSmJ" xOffset="1239"/>
    <contour>
      <point x="1347" y="-600" type="move" name="L"/>
    </contour>
    <contour>
      <point x="1566" y="1000" type="move" name="U"/>
    </contour>
    <contour>
      <point x="580" y="0" type="move" name="H"/>
    </contour>
  </outline>
</glyph>
<glyph name="LtnSmNj" format="1">
  <advance width="1514"/>
  <unicode hex="01CC"/>
  <outline>
    <component base="LtnSmN"/>
    <component base="LtnSmJ" xOffset="1012"/>
    <contour>
      <point x="1339" y="1000" type="move" name="U"/>
    </contour>
    <contour>
      <point x="456" y="0" type="move" name="H"/>
    </contour>
    <contour>
      <point x="1120" y="-600" type="move" name="L"/>
    </contour>
  </outline>
</glyph>
<glyph name="LtnSmACaron" format="1">
  <advance width="1007"/>
  <unicode hex="01CE"/>
  <outline>
    <component base="LtnSmA"/>
    <component base="CombCaron" xOffset="982"/>
    <contour>
      <point x="385" y="0" type="move" name="H"/>
    </contour>
    <contour>
      <point x="1184" y="870" type="move" name="R"/>
    </contour>
    <contour>
      <point x="652" y="1422" type="move" name="U"/>
    </contour>
    <contour>
      <point x="442" y="-100" type="move" name="L"/>
    </contour>
    <contour>
      <point x="755" y="0" type="move" name="O"/>
    </contour>
  </outline>
</glyph>
<glyph name="LtnSmICaron" format="1">
  <advance width="589"/>
  <unicode hex="01D0"/>
  <outline>
    <component base="LtnSmDotlessI"/>
    <component base="CombCaron" xOffset="789"/>
    <contour>
      <point x="248" y="0" type="move" name="H"/>
    </contour>
    <contour>
      <point x="616" y="870" type="move" name="R"/>
    </contour>
    <contour>
      <point x="459" y="1422" type="move" name="U"/>
    </contour>
    <contour>
      <point x="248" y="-100" type="move" name="L"/>
    </contour>
    <contour>
      <point x="288" y="0" type="move" name="O"/>
    </contour>
  </outline>
</glyph>
<glyph name="LtnCapOCaron" format="1">
  <advance width="1191"/>
  <unicode hex="01D1"/>
  <outline>
    <component base="LtnCapO"/>
    <component base="CombCaron.LP" xOffset="1119" yOffset="320"/>
    <contour>
      <point x="540" y="0" type="move" name="H"/>
    </contour>
    <contour>
      <point x="1248" y="1072" type="move" name="R"/>
    </contour>
    <contour>
      <point x="778" y="1668" type="move" name="U"/>
    </contour>
    <contour>
      <point x="545" y="-100" type="move" name="L"/>
    </contour>
    <contour>
      <point x="616" y="0" type="move" name="O"/>
    </contour>
  </outline>
</glyph>
<glyph name="LtnSmOCaron" format="1">
  <advance width="924"/>
  <unicode hex="01D2"/>
  <outline>
    <component base="LtnSmO"/>
    <component base="CombCaron" xOffset="945"/>
    <contour>
      <point x="430" y="0" type="move" name="H"/>
    </contour>
    <contour>
      <point x="479" y="0" type="move" name="O"/>
    </contour>
    <contour>
      <point x="970" y="870" type="move" name="R"/>
    </contour>
    <contour>
      <point x="615" y="1422" type="move" name="U"/>
    </contour>
    <contour>
      <point x="404" y="-100" type="move" name="L"/>
    </contour>
  </outline>
</glyph>
<glyph name="LtnSmUDiaerMacron" format="1">
  <advance width="1127"/>
  <unicode hex="01D6"/>
  <outline>
    <component base="LtnSmU"/>
    <component base="CombDiaer" xOffset="1021"/>
    <component base="CombMacron" xOffset="1083" yOffset="370"/>
    <contour>
      <point x="435" y="0" type="move" name="H"/>
    </contour>
    <contour>
      <point x="1170" y="870" type="move" name="R"/>
    </contour>
    <contour>
      <point x="737" y="1740" type="move" name="U"/>
    </contour>
    <contour>
      <point x="482" y="-100" type="move" name="L"/>
    </contour>
    <contour>
      <point x="849" y="0" type="move" name="O"/>
    </contour>
  </outline>
</glyph>
<glyph name="LtnCapUDiaerAcute" format="1">
  <advance width="1282"/>
  <unicode hex="01D7"/>
  <outline>
    <component base="LtnCapU"/>
    <component base="CombDiaer.LP" xOffset="1162" yOffset="320"/>
    <component base="CombAcute.LP" xOffset="1204" yOffset="640"/>
    <contour>
      <point x="620" y="0" type="move" name="H"/>
    </contour>
    <contour>
      <point x="1296" y="1072" type="move" name="R"/>
    </contour>
    <contour>
      <point x="862" y="1960" type="move" name="U"/>
    </contour>
    <contour>
      <point x="590" y="-100" type="move" name="L"/>
    </contour>
    <contour>
      <point x="688" y="0" type="move" name="O"/>
    </contour>
  </outline>
</glyph>
<glyph name="LtnSmUDiaerCaron" format="1">
  <advance width="1127"/>
  <unicode hex="01DA"/>
  <outline>
    <component base="LtnSmU"/>
    <component base="CombDiaer" xOffset="1021"/>
    <component base="CombCaron" xOffset="1075" yOffset="370"/>
    <contour>
      <point x="435" y="0" type="move" name="H"/>
    </contour>
    <contour>
      <point x="849" y="0" type="move" name="O"/>
    </contour>
    <contour>
      <point x="1170" y="870" type="move" name="R"/>
    </contour>
    <contour>
      <point x="745" y="1792" type="move" name="U"/>
    </contour>
    <contour>
      <point x="482" y="-100" type="move" name="L"/>
    </contour>
  </outline>
</glyph>
<glyph name="LtnCapADiaerMacron" format="1">
  <advance width="1210"/>
  <unicode hex="01DE"/>
  <outline>
    <component base="LtnCapA"/>
    <component base="CombDiaer.LP" xOffset="1105" yOffset="320"/>
    <component base="CombMacron.LP" xOffset="1159" yOffset="640"/>
    <contour>
      <point x="546" y="0" type="move" name="H"/>
    </contour>
    <contour>
      <point x="805" y="1960" type="move" name="U"/>
    </contour>
    <contour>
      <point x="533" y="-100" type="move" name="L"/>
    </contour>
    <contour>
      <point x="877" y="0" type="move" name="O"/>
    </contour>
  </outline>
</glyph>
<glyph name="LtnSmADiaerMacron" format="1">
  <advance width="922"/>
  <unicode hex="01DF"/>
  <outline>
    <component base="LtnSmA"/>
    <component base="CombDiaer" xOffset="905"/>
    <component base="CombMacron" xOffset="964" yOffset="353"/>
    <contour>
      <point x="648" y="1706" type="move" name="U"/>
    </contour>
    <contour>
      <point x="1059" y="870" type="move" name="R"/>
    </contour>
    <contour>
      <point x="723" y="0" type="move" name="O"/>
    </contour>
    <contour>
      <point x="400" y="-100" type="move" name="L"/>
    </contour>
    <contour>
      <point x="680" y="0" type="move" name="H"/>
    </contour>
  </outline>
</glyph>
<glyph name="LtnCapADotAbvMacron" format="1">
  <advance width="1147"/>
  <unicode hex="01E0"/>
  <outline>
    <component base="LtnCapA"/>
    <component base="DotAbv" xOffset="470" yOffset="320"/>
    <component base="CombMacron" xOffset="1109" yOffset="673"/>
    <contour>
      <point x="502" y="-100" type="move" name="L"/>
    </contour>
    <contour>
      <point x="880" y="0" type="move" name="H"/>
    </contour>
    <contour>
      <point x="793" y="2026" type="move" name="U"/>
    </contour>
    <contour>
      <point x="846" y="0" type="move" name="O"/>
    </contour>
  </outline>
</glyph>
<glyph name="LtnCapGCaron" format="1">
  <advance width="1136"/>
  <unicode hex="01E6"/>
  <outline>
    <component base="LtnCapG"/>
    <component base="CombCaron.LP" xOffset="1132" yOffset="320"/>
    <contour>
      <point x="550" y="0" type="move" name="H"/>
    </contour>
    <contour>
      <point x="791" y="1668" type="move" name="U"/>
    </contour>
    <contour>
      <point x="557" y="-100" type="move" name="L"/>
    </contour>
  </outline>
</glyph>
<glyph name="LtnSmOOgonekMacron" format="1">
  <advance width="924"/>
  <unicode hex="01ED"/>
  <outline>
    <component base="LtnSmOOgonek"/>
    <component base="CombMacron" xOffset="953"/>
    <contour>
      <point x="332" y="0" type="move" name="H"/>
    </contour>
    <contour>
      <point x="926" y="870" type="move" name="R"/>
    </contour>
    <contour>
      <point x="607" y="1370" type="move" name="U"/>
    </contour>
    <contour>
      <point x="350" y="-600" type="move" name="L"/>
    </contour>
  </outline>
</glyph>
<glyph name="LtnCapEzhCaron" format="1">
  <advance width="1042"/>
  <unicode hex="01EE"/>
  <outline>
    <component base="LtnCapEzh"/>
    <component base="CombCaron.LP" xOffset="1042" yOffset="320"/>
    <contour>
      <point x="701" y="1668" type="move" name="U"/>
    </contour>
    <contour>
      <point x="467" y="-100" type="move" name="L"/>
    </contour>
  </outline>
</glyph>
<glyph name="LtnSmEzhCaron" format="1">
  <advance width="842"/>
  <unicode hex="01EF"/>
  <outline>
    <component base="LtnSmEzh"/>
    <component base="CombCaron" xOffset="883"/>
    <contour>
      <point x="553" y="1422" type="move" name="U"/>
    </contour>
    <contour>
      <point x="273" y="-600" type="move" name="L"/>
    </contour>
  </outline>
</glyph>
<glyph name="LtnCapDSmZ" format="1">
  <advance width="2014"/>
  <unicode hex="01F2"/>
  <outline>
    <component base="LtnCapD"/>
    <component base="LtnSmZ" xOffset="1238"/>
    <contour>
      <point x="1581" y="0" type="move" name="H"/>
    </contour>
    <contour>
      <point x="1732" y="1000" type="move" name="U"/>
    </contour>
    <contour>
      <point x="1581" y="-100" type="move" name="L"/>
    </contour>
  </outline>
</glyph>
<glyph name="LtnSmNGrave" format="1">
  <advance width="1103"/>
  <unicode hex="01F9"/>
  <outline>
    <component base="LtnSmN"/>
    <component base="CombGrave" xOffset="904"/>
    <contour>
      <point x="760" y="0" type="move" name="H"/>
    </contour>
    <contour>
      <point x="679" y="1370" type="move" name="U"/>
    </contour>
    <contour>
      <point x="478" y="-100" type="move" name="L"/>
    </contour>
  </outline>
</glyph>
<glyph name="LtnCapARingAbvAcute" format="1">
  <advance width="1210"/>
  <unicode hex="01FA"/>
  <outline>
    <component base="LtnCapA"/>
    <component base="CombRingAbv" xOffset="1104" yOffset="320"/>
    <component base="CombAcute.LP" xOffset="1157" yOffset="740"/>
    <contour>
      <point x="546" y="0" type="move" name="H"/>
    </contour>
    <contour>
      <point x="815" y="2060" type="move" name="U"/>
    </contour>
    <contour>
      <point x="533" y="-100" type="move" name="L"/>
    </contour>
    <contour>
      <point x="877" y="0" type="move" name="O"/>
    </contour>
  </outline>
</glyph>
<glyph name="LtnSmADblGrave" format="1">
  <advance width="1007"/>
  <unicode hex="0201"/>
  <outline>
    <component base="LtnSmA"/>
    <component base="CombDblGrave" xOffset="984"/>
    <contour>
      <point x="385" y="0" type="move" name="H"/>
    </contour>
    <contour>
      <point x="755" y="0" type="move" name="O"/>
    </contour>
    <contour>
      <point x="1184" y="870" type="move" name="R"/>
    </contour>
    <contour>
      <point x="679" y="1496" type="move" name="U"/>
    </contour>
    <contour>
      <point x="442" y="-100" type="move" name="L"/>
    </contour>
  </outline>
</glyph>
<glyph name="LtnCapEDblGrave" format="1">
  <advance width="1030"/>
  <unicode hex="0204"/>
  <outline>
    <component base="LtnCapE"/>
    <component base="CombDblGrave" xOffset="1020" yOffset="320"/>
    <contour>
      <point x="458" y="0" type="move" name="H"/>
    </contour>
    <contour>
      <point x="668" y="0" type="move" name="O"/>
    </contour>
    <contour>
      <point x="1068" y="1072" type="move" name="R"/>
    </contour>
    <contour>
      <point x="715" y="1816" type="move" name="U"/>
    </contour>
    <contour>
      <point x="444" y="-100" type="move" name="L"/>
    </contour>
  </outline>
</glyph>
<glyph name="LtnSmEDblGrave" format="1">
  <advance width="885"/>
  <unicode hex="0205"/>
  <outline>
    <component base="LtnSmE"/>
    <component base="CombDblGrave" xOffset="942"/>
    <contour>
      <point x="398" y="0" type="move" name="H"/>
    </contour>
    <contour>
      <point x="1062" y="870" type="move" name="R"/>
    </contour>
    <contour>
      <point x="637" y="1496" type="move" name="U"/>
    </contour>
    <contour>
      <point x="384" y="-100" type="move" name="L"/>
    </contour>
    <contour>
      <point x="448" y="0" type="move" name="O"/>
    </contour>
  </outline>
</glyph>
<glyph name="LtnCapODblGrave" format="1">
  <advance width="1191"/>
  <unicode hex="020C"/>
  <outline>
    <component base="LtnCapO"/>
    <component base="CombDblGrave" xOffset="1121" yOffset="320"/>
    <contour>
      <point x="540" y="0" type="move" name="H"/>
    </contour>
    <contour>
      <point x="1248" y="1072" type="move" name="R"/>
    </contour>
    <contour>
      <point x="816" y="1816" type="move" name="U"/>
    </contour>
    <contour>
      <point x="545" y="-100" type="move" name="L"/>
    </contour>
    <contour>
      <point x="616" y="0" type="move" name="O"/>
    </contour>
  </outline>
</glyph>
<glyph name="LtnSmODblGrave" format="1">
  <advance width="924"/>
  <unicode hex="020D"/>
  <outline>
    <component base="LtnSmO"/>
    <component base="CombDblGrave" xOffset="947"/>
    <contour>
      <point x="430" y="0" type="move" name="H"/>
    </contour>
    <contour>
      <point x="970" y="870" type="move" name="R"/>
    </contour>
    <contour>
      <point x="642" y="1496" type="move" name="U"/>
    </contour>
    <contour>
      <point x="404" y="-100" type="move" name="L"/>
    </contour>
    <contour>
      <point x="479" y="0" type="move" name="O"/>
    </contour>
  </outline>
</glyph>
<glyph name="LtnCapRDblGrave" format="1">
  <advance width="1167"/>
  <unicode hex="0210"/>
  <outline>
    <component base="LtnCapR"/>
    <component base="CombDblGrave" xOffset="1050" yOffset="320"/>
    <contour>
      <point x="250" y="0" type="move" name="H"/>
    </contour>
    <contour>
      <point x="745" y="1816" type="move" name="U"/>
    </contour>
    <contour>
      <point x="473" y="-100" type="move" name="L"/>
    </contour>
  </outline>
</glyph>
<glyph name="LtnSmRDblGrave" format="1">
  <advance width="872"/>
  <unicode hex="0211"/>
  <outline>
    <component base="LtnSmR"/>
    <component base="CombDblGrave" xOffset="925"/>
    <contour>
      <point x="195" y="0" type="move" name="H"/>
    </contour>
    <contour>
      <point x="620" y="1496" type="move" name="U"/>
    </contour>
    <contour>
      <point x="237" y="-100" type="move" name="L"/>
    </contour>
  </outline>
</glyph>
<glyph name="LtnCapRInvBreve" format="1">
  <advance width="1167"/>
  <unicode hex="0212"/>
  <outline>
    <component base="LtnCapR"/>
    <component base="CombInvBreve" xOffset="1045" yOffset="320"/>
    <contour>
      <point x="250" y="0" type="move" name="H"/>
    </contour>
    <contour>
      <point x="702" y="1640" type="move" name="U"/>
    </contour>
    <contour>
      <point x="473" y="-100" type="move" name="L"/>
    </contour>
  </outline>
</glyph>
<glyph name="LtnSmUDblGrave" format="1">
  <advance width="1127"/>
  <unicode hex="0215"/>
  <outline>
    <component base="LtnSmU"/>
    <component base="CombDblGrave" xOffset="1025"/>
    <contour>
      <point x="435" y="0" type="move" name="H"/>
    </contour>
    <contour>
      <point x="1170" y="870" type="move" name="R"/>
    </contour>
    <contour>
      <point x="720" y="1496" type="move" name="U"/>
    </contour>
    <contour>
      <point x="482" y="-100" type="move" name="L"/>
    </contour>
    <contour>
      <point x="849" y="0" type="move" name="O"/>
    </contour>
  </outline>
</glyph>
<glyph name="LtnCapUInvBreve" format="1">
  <advance width="1282"/>
  <unicode hex="0216"/>
  <outline>
    <component base="LtnCapU"/>
    <component base="CombInvBreve" xOffset="1161" yOffset="320"/>
    <contour>
      <point x="620" y="0" type="move" name="H"/>
    </contour>
    <contour>
      <point x="1296" y="1072" type="move" name="R"/>
    </contour>
    <contour>
      <point x="818" y="1640" type="move" name="U"/>
    </contour>
    <contour>
      <point x="590" y="-100" type="move" name="L"/>
    </contour>
    <contour>
      <point x="688" y="0" type="move" name="O"/>
    </contour>
  </outline>
</glyph>
<glyph name="LtnSmUInvBreve" format="1">
  <advance width="1127"/>
  <unicode hex="0217"/>
  <outline>
    <component base="LtnSmU"/>
    <component base="CombInvBreve" xOffset="1020"/>
    <contour>
      <point x="435" y="0" type="move" name="H"/>
    </contour>
    <contour>
      <point x="1170" y="870" type="move" name="R"/>
    </contour>
    <contour>
      <point x="677" y="1320" type="move" name="U"/>
    </contour>
    <contour>
      <point x="482" y="-100" type="move" name="L"/>
    </contour>
    <contour>
      <point x="849" y="0" type="move" name="O"/>
    </contour>
  </outline>
</glyph>
<glyph name="LtnSmSCommaBlw" format="1">
  <advance width="811"/>
  <unicode hex="0219"/>
  <outline>
    <component base="LtnSmS"/>
    <component base="CombCommaBlw" xOffset="876"/>
    <contour>
      <point x="340" y="0" type="move" name="H"/>
    </contour>
    <contour>
      <point x="487" y="1000" type="move" name="U"/>
    </contour>
    <contour>
      <point x="268" y="-600" type="move" name="L"/>
    </contour>
  </outline>
</glyph>
<glyph name="LtnSmHCaron" format="1">
  <advance width="1097"/>
  <unicode hex="021F"/>
  <outline>
    <component base="LtnSmH"/>
    <component base="CombCaron.LP" xOffset="1090" yOffset="580"/>
    <contour>
      <point x="165" y="0" type="move" name="H"/>
    </contour>
    <contour>
      <point x="749" y="1928" type="move" name="U"/>
    </contour>
    <contour>
      <point x="467" y="-100" type="move" name="L"/>
    </contour>
  </outline>
</glyph>
<glyph name="LtnCapADotAbv" format="1">
  <advance width="1210"/>
  <unicode hex="0226"/>
  <outline>
    <component base="LtnCapA"/>
    <component base="CombDotAbv.LP" xOffset="1106" yOffset="320"/>
    <contour>
      <point x="546" y="0" type="move" name="H"/>
    </contour>
    <contour>
      <point x="761" y="1640" type="move" name="U"/>
    </contour>
    <contour>
      <point x="533" y="-100" type="move" name="L"/>
    </contour>
    <contour>
      <point x="877" y="0" type="move" name="O"/>
    </contour>
  </outline>
</glyph>
<glyph name="LtnSmECedilla" format="1">
  <advance width="885"/>
  <unicode hex="0229"/>
  <outline>
    <component base="LtnSmE"/>
    <component base="CombCedilla" xOffset="916"/>
    <contour>
      <point x="1062" y="870" type="move" name="R"/>
    </contour>
    <contour>
      <point x="550" y="1000" type="move" name="U"/>
    </contour>
    <contour>
      <point x="316" y="-600" type="move" name="L"/>
    </contour>
    <contour>
      <point x="448" y="0" type="move" name="O"/>
    </contour>
  </outline>
</glyph>
<glyph name="LtnCapOTildeMacron" format="1">
  <advance width="1191"/>
  <unicode hex="022C"/>
  <outline>
    <component base="LtnCapO"/>
    <component base="CombTilde.LP" xOffset="1084" yOffset="320"/>
    <component base="CombMacron.LP" xOffset="1171" yOffset="640"/>
    <contour>
      <point x="540" y="0" type="move" name="H"/>
    </contour>
    <contour>
      <point x="616" y="0" type="move" name="O"/>
    </contour>
    <contour>
      <point x="1248" y="1072" type="move" name="R"/>
    </contour>
    <contour>
      <point x="817" y="1960" type="move" name="U"/>
    </contour>
    <contour>
      <point x="545" y="-100" type="move" name="L"/>
    </contour>
  </outline>
</glyph>
<glyph name="LtnCapYMacron" format="1">
  <advance width="1178"/>
  <unicode hex="0232"/>
  <outline>
    <component base="LtnCapY"/>
    <component base="CombMacron.LP" xOffset="1123" yOffset="320"/>
    <contour>
      <point x="769" y="1640" type="move" name="U"/>
    </contour>
    <contour>
      <point x="541" y="-100" type="move" name="L"/>
    </contour>
  </outline>
</glyph>
<glyph name="LtnSmZSwashTail" format="1">
  <advance width="776"/>
  <unicode hex="0240"/>
  <outline>
    <contour>
      <point x="207" y="102" type="curve"/>
      <point x="418" y="372"/>
      <point x="568" y="634"/>
      <point x="787" y="870" type="curve"/>
      <point x="756" y="915" type="line"/>
      <point x="238" y="915" type="line" smooth="yes"/>
      <point x="191" y="915"/>
      <point x="165" y="930"/>
      <point x="140" y="936" type="curve"/>
      <point x="130" y="879"/>
      <point x="86" y="703"/>
      <point x="61" y="584" type="curve"/>
      <point x="134" y="566" type="line"/>
      <point x="173" y="678"/>
      <point x="205" y="705"/>
      <point x="268" y="705" type="curve" smooth="yes"/>
      <point x="474" y="705" type="line"/>
      <point x="358" y="567"/>
      <point x="177" y="265"/>
      <point x="-22" y="25" type="curve"/>
      <point x="18" y="-31" type="line"/>
      <point x="61" y="-16"/>
      <point x="86" y="-10"/>
      <point x="116" y="-10" type="curve" smooth="yes"/>
      <point x="345" y="-10"/>
      <point x="278" y="-400"/>
      <point x="488" y="-400" type="curve" smooth="yes"/>
      <point x="666" y="-400"/>
      <point x="793" y="-228"/>
      <point x="770" y="-129" type="curve"/>
      <point x="759" y="-90" type="line"/>
      <point x="707" y="-100"/>
      <point x="566" y="-165"/>
      <point x="571" y="-177" type="curve" smooth="yes"/>
      <point x="595" y="-233"/>
      <point x="577" y="-276"/>
      <point x="551" y="-276" type="curve" smooth="yes"/>
      <point x="425" y="-276"/>
      <point x="475" y="30"/>
      <point x="274" y="94" type="curve" smooth="yes"/>
      <point x="255" y="100"/>
      <point x="232" y="102"/>
    </contour>
    <contour>
      <point x="487" y="1000" type="move" name="U"/>
    </contour>
    <contour>
      <point x="285" y="-600" type="move" name="L"/>
    </contour>
  </outline>
</glyph>
<glyph name="LtnSmIota" format="1">
  <advance width="554"/>
  <unicode hex="0269"/>
  <outline>
    <contour>
      <point x="584" y="232" type="curve"/>
      <point x="539" y="319" type="line"/>
      <point x="448" y="217"/>
      <point x="416" y="204"/>
      <point x="388" y="204" type="curve" smooth="yes"/>
      <point x="353" y="204"/>
      <point x="346" y="231"/>
      <point x="372" y="379" type="curve" smooth="yes"/>
      <point x="468" y="936" type="line"/>
      <point x="397" y="936" type="line"/>
      <point x="310" y="890"/>
      <point x="139" y="820"/>
      <point x="35" y="806" type="curve"/>
      <point x="24" y="727" type="line"/>
      <point x="149" y="715"/>
      <point x="169" y="694"/>
      <point x="145" y="559" type="curve" smooth="yes"/>
      <point x="80" y="190" type="line" smooth="yes"/>
      <point x="53" y="35"/>
      <point x="116" y="-41"/>
      <point x="236" y="-41" type="curve" smooth="yes"/>
      <point x="371" y="-41"/>
      <point x="498" y="95"/>
    </contour>
    <contour>
      <point x="373" y="1000" type="move" name="U"/>
    </contour>
    <contour>
      <point x="222" y="-100" type="move" name="L"/>
    </contour>
    <contour>
      <point x="602" y="870" type="move" name="R"/>
    </contour>
    <contour>
      <point x="290" y="0" type="move" name="O"/>
    </contour>
    <contour>
      <point x="230" y="0" type="move" name="H"/>
    </contour>
  </outline>
</glyph>
<glyph name="LtnSmCapI" format="1">
  <advance width="624"/>
  <unicode hex="026A"/>
  <outline>
    <contour>
      <point x="498" y="0" type="line"/>
      <point x="510" y="83" type="line"/>
      <point x="427" y="101"/>
      <point x="393" y="127"/>
      <point x="396" y="142" type="curve" smooth="yes"/>
      <point x="481" y="764" type="line" smooth="yes"/>
      <point x="483" y="781"/>
      <point x="531" y="806"/>
      <point x="613" y="824" type="curve"/>
      <point x="624" y="906" type="line"/>
      <point x="113" y="906" type="line"/>
      <point x="102" y="824" type="line"/>
      <point x="185" y="806"/>
      <point x="220" y="779"/>
      <point x="218" y="764" type="curve" smooth="yes"/>
      <point x="133" y="142" type="line" smooth="yes"/>
      <point x="130" y="125"/>
      <point x="82" y="101"/>
      <point x="-1" y="83" type="curve"/>
      <point x="-10" y="0" type="line"/>
    </contour>
    <contour>
      <point x="379" y="1000" type="move" name="U"/>
    </contour>
    <contour>
      <point x="221" y="-100" type="move" name="L"/>
    </contour>
    <contour>
      <point x="647" y="870" type="move" name="R"/>
    </contour>
    <contour>
      <point x="213" y="0" type="move" name="H"/>
    </contour>
    <contour>
      <point x="257" y="0" type="move" name="O"/>
    </contour>
  </outline>
</glyph>
<glyph name="ModCircumAccent" format="1">
  <advance width="682"/>
  <unicode hex="02C6"/>
  <outline>
    <contour>
      <point x="772" y="1081" type="curve"/>
      <point x="569" y="1462" type="line"/>
      <point x="417" y="1462" type="line"/>
      <point x="113" y="1081" type="line"/>
      <point x="126" y="1054"/>
      <point x="163" y="1024"/>
      <point x="175" y="1016" type="curve"/>
      <point x="467" y="1231" type="line"/>
      <point x="696" y="1016" type="line"/>
      <point x="717" y="1026"/>
      <point x="754" y="1054"/>
    </contour>
  </outline>
</glyph>
<glyph name="ModMacron" format="1">
  <advance width="895"/>
  <unicode hex="02C9"/>
  <outline>
    <contour>
      <point x="945" y="1268" type="curve"/>
      <point x="916" y="1303" type="line"/>
      <point x="269" y="1303" type="line"/>
      <point x="254" y="1276"/>
      <point x="210" y="1198"/>
      <point x="200" y="1171" type="curve"/>
      <point x="226" y="1137" type="line"/>
      <point x="875" y="1137" type="line"/>
      <point x="888" y="1159"/>
      <point x="936" y="1239"/>
    </contour>
    <contour>
      <point x="583" y="1353" type="move" name="U"/>
    </contour>
  </outline>
</glyph>
<glyph name="ModMinusSgn" format="1">
  <advance width="691"/>
  <unicode hex="02D7"/>
  <outline>
    <component base="HyphenMinus"/>
    <contour>
      <point x="365" y="1000" type="move" name="U"/>
    </contour>
  </outline>
</glyph>
<glyph name="ModRhoticHook" format="1">
  <advance width="321"/>
  <unicode hex="02DE"/>
  <outline>
    <contour>
      <point x="240" y="894" type="curve"/>
      <point x="196" y="936" type="line"/>
      <point x="120" y="870"/>
      <point x="-61" y="775"/>
      <point x="-197" y="719" type="curve"/>
      <point x="-182" y="605" type="line"/>
      <point x="-109" y="648"/>
      <point x="-32" y="688"/>
      <point x="18" y="698" type="curve"/>
      <point x="6" y="667"/>
      <point x="-4" y="631"/>
      <point x="-7" y="607" type="curve" smooth="yes"/>
      <point x="-18" y="521"/>
      <point x="34" y="489"/>
      <point x="84" y="489" type="curve" smooth="yes"/>
      <point x="167" y="489"/>
      <point x="264" y="565"/>
      <point x="358" y="636" type="curve"/>
      <point x="339" y="698" type="line"/>
      <point x="279" y="664"/>
      <point x="243" y="643"/>
      <point x="201" y="642" type="curve" smooth="yes"/>
      <point x="153" y="641"/>
      <point x="141" y="692"/>
      <point x="157" y="747" type="curve" smooth="yes"/>
      <point x="171" y="794"/>
      <point x="202" y="841"/>
    </contour>
    <contour>
      <point x="22" y="870" type="move" name="_R"/>
    </contour>
  </outline>
</glyph>
<glyph name="ModSmRevGlottalStop" format="1">
  <advance width="552"/>
  <unicode hex="02E4"/>
  <outline>
    <contour>
      <point x="428" y="608" type="line"/>
      <point x="432" y="643" type="line"/>
      <point x="362" y="655"/>
      <point x="341" y="667"/>
      <point x="343" y="679" type="curve" smooth="yes"/>
      <point x="378" y="897" type="line" smooth="yes"/>
      <point x="407" y="1080"/>
      <point x="219" y="1165"/>
      <point x="241" y="1301" type="curve" smooth="yes"/>
      <point x="257" y="1398"/>
      <point x="319" y="1453"/>
      <point x="383" y="1453" type="curve" smooth="yes"/>
      <point x="474" y="1453"/>
      <point x="518" y="1394"/>
      <point x="506" y="1293" type="curve"/>
      <point x="546" y="1293"/>
      <point x="629" y="1318"/>
      <point x="635" y="1331" type="curve"/>
      <point x="643" y="1445"/>
      <point x="572" y="1520"/>
      <point x="425" y="1520" type="curve" smooth="yes"/>
      <point x="287" y="1520"/>
      <point x="142" y="1432"/>
      <point x="118" y="1287" type="curve" smooth="yes"/>
      <point x="93" y="1123"/>
      <point x="281" y="1040"/>
      <point x="255" y="877" type="curve" smooth="yes"/>
      <point x="223" y="679" type="line" smooth="yes"/>
      <point x="221" y="668"/>
      <point x="191" y="654"/>
      <point x="121" y="643" type="curve"/>
      <point x="116" y="608" type="line"/>
    </contour>
    <contour>
      <point x="411" y="1580" type="move" name="U"/>
    </contour>
    <contour>
      <point x="265" y="540" type="move" name="L"/>
    </contour>
  </outline>
</glyph>
<glyph name="ModLowDwnArrwhd" format="1">
  <advance width="373"/>
  <unicode hex="02EF"/>
  <outline>
    <contour>
      <point x="8" y="-560" type="line"/>
      <point x="26" y="-552"/>
      <point x="71" y="-534"/>
      <point x="89" y="-520" type="curve"/>
      <point x="289" y="-169" type="line"/>
      <point x="275" y="-154" type="line"/>
      <point x="264" y="-159"/>
      <point x="205" y="-180"/>
      <point x="191" y="-192" type="curve"/>
      <point x="68" y="-420" type="line"/>
      <point x="-14" y="-166" type="line"/>
      <point x="-33" y="-152" type="line"/>
      <point x="-54" y="-160"/>
      <point x="-89" y="-181"/>
      <point x="-105" y="-192" type="curve"/>
    </contour>
  </outline>
</glyph>
<glyph name="ModLowUpArrwhd" format="1">
  <advance width="373"/>
  <unicode hex="02F0"/>
  <outline>
    <contour>
      <point x="130" y="-154" type="line"/>
      <point x="113" y="-162"/>
      <point x="67" y="-179"/>
      <point x="50" y="-193" type="curve"/>
      <point x="-150" y="-545" type="line"/>
      <point x="-137" y="-560" type="line"/>
      <point x="-125" y="-555"/>
      <point x="-67" y="-534"/>
      <point x="-53" y="-522" type="curve"/>
      <point x="71" y="-294" type="line"/>
      <point x="153" y="-548" type="line"/>
      <point x="171" y="-562" type="line"/>
      <point x="193" y="-554"/>
      <point x="228" y="-533"/>
      <point x="243" y="-522" type="curve"/>
    </contour>
  </outline>
</glyph>
<glyph name="ModLowUpArrwhd" format="1">
  <advance width="373"/>
  <unicode hex="02F0"/>
  <outline>
    <contour>
      <point x="130" y="-154" type="line"/>
      <point x="113" y="-162"/>
      <point x="67" y="-179"/>
      <point x="50" y="-193" type="curve"/>
      <point x="-150" y="-545" type="line"/>
      <point x="-137" y="-560" type="line"/>
      <point x="-125" y="-555"/>
      <point x="-67" y="-534"/>
      <point x="-53" y="-522" type="curve"/>
      <point x="71" y="-294" type="line"/>
      <point x="153" y="-548" type="line"/>
      <point x="171" y="-562" type="line"/>
      <point x="193" y="-554"/>
      <point x="228" y="-533"/>
      <point x="243" y="-522" type="curve"/>
    </contour>
  </outline>
</glyph>
<glyph name="ModLowLftArrwhd" format="1">
  <advance width="459"/>
  <unicode hex="02F1"/>
  <outline>
    <contour>
      <point x="339" y="-183" type="curve"/>
      <point x="319" y="-162" type="line"/>
      <point x="-87" y="-322" type="line"/>
      <point x="-96" y="-337"/>
      <point x="-114" y="-380"/>
      <point x="-120" y="-395" type="curve"/>
      <point x="-95" y="-419" type="line"/>
      <point x="308" y="-260" type="line"/>
      <point x="314" y="-246"/>
      <point x="333" y="-199"/>
    </contour>
    <contour>
      <point x="278" y="-511" type="curve"/>
      <point x="270" y="-477" type="line"/>
      <point x="-87" y="-322" type="line"/>
      <point x="-96" y="-337"/>
      <point x="-114" y="-380"/>
      <point x="-120" y="-395" type="curve"/>
      <point x="-95" y="-419" type="line"/>
      <point x="216" y="-558" type="line"/>
      <point x="241" y="-544"/>
      <point x="261" y="-526"/>
    </contour>
  </outline>
</glyph>
<glyph name="ModLowLftArrw" format="1">
  <advance width="1203"/>
  <unicode hex="02FF"/>
  <outline>
    <contour>
      <point x="1203" y="-378" type="line"/>
      <point x="1203" y="-215" type="line"/>
      <point x="335" y="-215" type="line"/>
      <point x="689" y="-72" type="line"/>
      <point x="639" y="59" type="line"/>
      <point x="0" y="-216" type="line"/>
      <point x="0" y="-377" type="line"/>
      <point x="639" y="-651" type="line"/>
      <point x="689" y="-521" type="line"/>
      <point x="335" y="-378" type="line"/>
    </contour>
  </outline>
</glyph>
<glyph name="CombAcute" format="1">
  <advance width="0"/>
  <unicode hex="0301"/>
  <outline>
    <contour>
      <point x="-16" y="1429" type="line"/>
      <point x="-38" y="1442"/>
      <point x="-193" y="1462"/>
      <point x="-229" y="1469" type="curve"/>
      <point x="-451" y="1071" type="line"/>
      <point x="-435" y="1047"/>
      <point x="-402" y="1023"/>
      <point x="-376" y="1016" type="curve"/>
      <point x="9" y="1364" type="line"/>
    </contour>
    <contour>
      <point x="-335" y="1370" type="move" name="U"/>
    </contour>
    <contour>
      <point x="-386" y="1000" type="move" name="_U"/>
    </contour>
  </outline>
</glyph>
<glyph name="CombDotAbv" format="1">
  <advance width="0"/>
  <unicode hex="0307"/>
  <outline>
    <contour>
      <point x="-226" y="1252" type="curve" smooth="yes"/>
      <point x="-226" y="1307"/>
      <point x="-259" y="1363"/>
      <point x="-330" y="1363" type="curve" smooth="yes"/>
      <point x="-436" y="1363"/>
      <point x="-499" y="1247"/>
      <point x="-499" y="1166" type="curve" smooth="yes"/>
      <point x="-499" y="1111"/>
      <point x="-468" y="1056"/>
      <point x="-397" y="1056" type="curve" smooth="yes"/>
      <point x="-290" y="1056"/>
      <point x="-226" y="1168"/>
    </contour>
    <contour>
      <point x="-373" y="1353" type="move" name="U"/>
    </contour>
    <contour>
      <point x="-422" y="1000" type="move" name="_U"/>
    </contour>
  </outline>
</glyph>
<glyph name="CombCaron" format="1">
  <advance width="0"/>
  <unicode hex="030C"/>
  <outline>
    <contour>
      <point x="-5" y="1421" type="line"/>
      <point x="-20" y="1445"/>
      <point x="-51" y="1472"/>
      <point x="-67" y="1486" type="curve"/>
      <point x="-360" y="1272" type="line"/>
      <point x="-589" y="1486" type="line"/>
      <point x="-611" y="1471"/>
      <point x="-643" y="1444"/>
      <point x="-664" y="1421" type="curve"/>
      <point x="-458" y="1040" type="line"/>
      <point x="-306" y="1040" type="line"/>
    </contour>
    <contour>
      <point x="-330" y="1422" type="move" name="U"/>
    </contour>
    <contour>
      <point x="-390" y="1000" type="move" name="_U"/>
    </contour>
  </outline>
</glyph>
<glyph name="CombVertLineAbv" format="1">
  <advance width="0"/>
  <unicode hex="030D"/>
  <outline>
    <contour>
      <point x="-306" y="1058" type="curve"/>
      <point x="-252" y="1446" type="line"/>
      <point x="-282" y="1479" type="line"/>
      <point x="-306" y="1474"/>
      <point x="-384" y="1440"/>
      <point x="-407" y="1430" type="curve"/>
      <point x="-460" y="1040" type="line"/>
      <point x="-430" y="1009" type="line"/>
      <point x="-406" y="1015"/>
      <point x="-331" y="1045"/>
    </contour>
    <contour>
      <point x="-344" y="1320" type="move" name="U"/>
    </contour>
    <contour>
      <point x="-388" y="1000" type="move" name="_U"/>
    </contour>
  </outline>
</glyph>
<glyph name="CombDblGrave" format="1">
  <advance width="0"/>
  <unicode hex="030F"/>
  <outline>
    <contour>
      <point x="-538" y="1016" type="line"/>
      <point x="-518" y="1018"/>
      <point x="-461" y="1026"/>
      <point x="-439" y="1042" type="curve"/>
      <point x="-540" y="1489" type="line"/>
      <point x="-566" y="1485"/>
      <point x="-697" y="1477"/>
      <point x="-719" y="1464" type="curve"/>
      <point x="-752" y="1419" type="line"/>
    </contour>
    <contour>
      <point x="-267" y="1016" type="line"/>
      <point x="-247" y="1018"/>
      <point x="-190" y="1026"/>
      <point x="-168" y="1042" type="curve"/>
      <point x="-269" y="1489" type="line"/>
      <point x="-305" y="1486"/>
      <point x="-426" y="1477"/>
      <point x="-448" y="1464" type="curve"/>
      <point x="-481" y="1419" type="line"/>
    </contour>
    <contour>
      <point x="-305" y="1496" type="move" name="U"/>
    </contour>
    <contour>
      <point x="-392" y="1000" type="move" name="_U"/>
    </contour>
  </outline>
</glyph>
<glyph name="CombTrndCommaAbv" format="1">
  <advance width="0"/>
  <unicode hex="0312"/>
  <outline>
    <contour>
      <point x="-439" y="1019" type="curve"/>
      <point x="-371" y="1017"/>
      <point x="-208" y="1076"/>
      <point x="-156" y="1104" type="curve"/>
      <point x="-161" y="1184" type="line"/>
      <point x="-272" y="1184"/>
      <point x="-303" y="1251"/>
      <point x="-288" y="1313" type="curve" smooth="yes"/>
      <point x="-276" y="1362"/>
      <point x="-248" y="1401"/>
      <point x="-182" y="1460" type="curve"/>
      <point x="-240" y="1514" type="line"/>
      <point x="-361" y="1451"/>
      <point x="-456" y="1349"/>
      <point x="-485" y="1263" type="curve" smooth="yes"/>
      <point x="-519" y="1163"/>
      <point x="-499" y="1049"/>
    </contour>
    <contour>
      <point x="-347" y="1320" type="move" name="U"/>
    </contour>
    <contour>
      <point x="-392" y="1000" type="move" name="_U"/>
    </contour>
  </outline>
</glyph>
<glyph name="CombCommaAbvRt" format="1">
  <advance width="0"/>
  <unicode hex="0315"/>
  <outline>
    <contour>
      <point x="388" y="1283" type="curve" smooth="yes"/>
      <point x="403" y="1349"/>
      <point x="396" y="1422"/>
      <point x="324" y="1472" type="curve"/>
      <point x="275" y="1478"/>
      <point x="74" y="1408"/>
      <point x="41" y="1372" type="curve"/>
      <point x="51" y="1312" type="line"/>
      <point x="135" y="1314"/>
      <point x="180" y="1271"/>
      <point x="173" y="1198" type="curve" smooth="yes"/>
      <point x="168" y="1143"/>
      <point x="131" y="1097"/>
      <point x="58" y="1045" type="curve"/>
      <point x="110" y="980" type="line"/>
      <point x="275" y="1073"/>
      <point x="366" y="1188"/>
    </contour>
    <contour>
      <point x="57" y="870" type="move" name="_R"/>
    </contour>
  </outline>
</glyph>
<glyph name="CombGraveBlw" format="1">
  <advance width="0"/>
  <unicode hex="0316"/>
  <outline>
    <contour>
      <point x="-370" y="-436" type="curve"/>
      <point x="-703" y="-101" type="line"/>
      <point x="-734" y="-117"/>
      <point x="-834" y="-172"/>
      <point x="-859" y="-192" type="curve"/>
      <point x="-878" y="-269" type="line"/>
      <point x="-447" y="-513" type="line"/>
      <point x="-418" y="-502"/>
      <point x="-388" y="-463"/>
    </contour>
    <contour>
      <point x="-626" y="-600" type="move" name="L"/>
    </contour>
    <contour>
      <point x="-548" y="-100" type="move" name="_L"/>
    </contour>
  </outline>
</glyph>
<glyph name="CombAcuteBlw" format="1">
  <advance width="0"/>
  <unicode hex="0317"/>
  <outline>
    <contour>
      <point x="-272" y="-235" type="line"/>
      <point x="-289" y="-215"/>
      <point x="-396" y="-130"/>
      <point x="-419" y="-114" type="curve"/>
      <point x="-845" y="-464" type="line"/>
      <point x="-833" y="-491"/>
      <point x="-806" y="-534"/>
      <point x="-787" y="-546" type="curve"/>
      <point x="-272" y="-302" type="line"/>
    </contour>
    <contour>
      <point x="-500" y="-100" type="move" name="_L"/>
    </contour>
    <contour>
      <point x="-576" y="-600" type="move" name="L"/>
    </contour>
  </outline>
</glyph>
<glyph name="CombLftHalfRingBlw" format="1">
  <advance width="0"/>
  <unicode hex="031C"/>
  <outline>
    <contour>
      <point x="-494" y="-442" type="line"/>
      <point x="-556" y="-447"/>
      <point x="-635" y="-424"/>
      <point x="-620" y="-329" type="curve" smooth="yes"/>
      <point x="-607" y="-247"/>
      <point x="-529" y="-227"/>
      <point x="-472" y="-235" type="curve"/>
      <point x="-447" y="-116" type="line"/>
      <point x="-607" y="-95"/>
      <point x="-730" y="-213"/>
      <point x="-746" y="-329" type="curve" smooth="yes"/>
      <point x="-766" y="-473"/>
      <point x="-657" y="-576"/>
      <point x="-515" y="-558" type="curve"/>
    </contour>
    <contour>
      <point x="-616" y="-600" type="move" name="L"/>
    </contour>
    <contour>
      <point x="-547" y="-100" type="move" name="_L"/>
    </contour>
  </outline>
</glyph>
<glyph name="CombRingBlw" format="1">
  <advance width="0"/>
  <unicode hex="0325"/>
  <outline>
    <contour>
      <point x="-370" y="-276" type="curve" smooth="yes"/>
      <point x="-370" y="-192"/>
      <point x="-427" y="-117"/>
      <point x="-527" y="-117" type="curve" smooth="yes"/>
      <point x="-672" y="-117"/>
      <point x="-782" y="-278"/>
      <point x="-782" y="-407" type="curve" smooth="yes"/>
      <point x="-782" y="-483"/>
      <point x="-733" y="-560"/>
      <point x="-633" y="-560" type="curve" smooth="yes"/>
      <point x="-484" y="-560"/>
      <point x="-370" y="-395"/>
    </contour>
    <contour>
      <point x="-519" y="-313" type="curve" smooth="yes"/>
      <point x="-519" y="-377"/>
      <point x="-556" y="-425"/>
      <point x="-594" y="-426" type="curve" smooth="yes"/>
      <point x="-620" y="-427"/>
      <point x="-643" y="-403"/>
      <point x="-643" y="-364" type="curve" smooth="yes"/>
      <point x="-643" y="-301"/>
      <point x="-609" y="-253"/>
      <point x="-565" y="-253" type="curve" smooth="yes"/>
      <point x="-540" y="-253"/>
      <point x="-519" y="-276"/>
    </contour>
    <contour>
      <point x="-619" y="-650" type="move" name="L"/>
    </contour>
    <contour>
      <point x="-541" y="-100" type="move" name="_L"/>
    </contour>
  </outline>
</glyph>
<glyph name="CombOgonek" format="1">
  <advance width="0"/>
  <unicode hex="0328"/>
  <outline>
    <contour>
      <point x="-325" y="-291" type="curve"/>
      <point x="-344" y="-216" type="line"/>
      <point x="-399" y="-267"/>
      <point x="-456" y="-285"/>
      <point x="-485" y="-285" type="curve" smooth="yes"/>
      <point x="-524" y="-285"/>
      <point x="-552" y="-257"/>
      <point x="-552" y="-212" type="curve" smooth="yes"/>
      <point x="-552" y="-147"/>
      <point x="-477" y="-54"/>
      <point x="-367" y="19" type="curve"/>
      <point x="-487" y="25" type="line"/>
      <point x="-636" y="-52"/>
      <point x="-801" y="-178"/>
      <point x="-801" y="-312" type="curve" smooth="yes"/>
      <point x="-801" y="-425"/>
      <point x="-694" y="-446"/>
      <point x="-632" y="-446" type="curve" smooth="yes"/>
      <point x="-517" y="-446"/>
      <point x="-387" y="-363"/>
    </contour>
    <contour>
      <point x="-621" y="-600" type="move" name="L"/>
    </contour>
    <contour>
      <point x="-489" y="0" type="move" name="_O"/>
    </contour>
  </outline>
</glyph>
<glyph name="CombBreveBlw" format="1">
  <advance width="0"/>
  <unicode hex="032E"/>
  <outline>
    <contour>
      <point x="-221" y="-195" type="curve"/>
      <point x="-234" y="-170"/>
      <point x="-276" y="-125"/>
      <point x="-294" y="-112" type="curve"/>
      <point x="-367" y="-239"/>
      <point x="-501" y="-281"/>
      <point x="-585" y="-281" type="curve" smooth="yes"/>
      <point x="-661" y="-281"/>
      <point x="-774" y="-239"/>
      <point x="-814" y="-112" type="curve"/>
      <point x="-834" y="-125"/>
      <point x="-881" y="-172"/>
      <point x="-899" y="-195" type="curve"/>
      <point x="-854" y="-408"/>
      <point x="-714" y="-490"/>
      <point x="-597" y="-490" type="curve" smooth="yes"/>
      <point x="-491" y="-490"/>
      <point x="-320" y="-410"/>
    </contour>
    <contour>
      <point x="-614" y="-600" type="move" name="L"/>
    </contour>
    <contour>
      <point x="-546" y="-100" type="move" name="_L"/>
    </contour>
  </outline>
</glyph>
<glyph name="CombMacronBlw" format="1">
  <advance width="0"/>
  <unicode hex="0331"/>
  <outline>
    <contour>
      <point x="-194" y="-224" type="curve"/>
      <point x="-223" y="-189" type="line"/>
      <point x="-860" y="-189" type="line"/>
      <point x="-875" y="-216"/>
      <point x="-919" y="-294"/>
      <point x="-929" y="-321" type="curve"/>
      <point x="-903" y="-355" type="line"/>
      <point x="-264" y="-355" type="line"/>
      <point x="-251" y="-333"/>
      <point x="-203" y="-253"/>
    </contour>
    <contour>
      <point x="-605" y="-600" type="move" name="L"/>
    </contour>
    <contour>
      <point x="-537" y="-100" type="move" name="_L"/>
    </contour>
  </outline>
</glyph>
<glyph name="CombLftAngBlw" format="1">
  <advance width="0"/>
  <unicode hex="0349"/>
  <outline>
    <contour>
      <point x="-725" y="-147" type="line"/>
      <point x="-741" y="-170"/>
      <point x="-771" y="-225"/>
      <point x="-780" y="-248" type="curve"/>
      <point x="-753" y="-282" type="line"/>
      <point x="-428" y="-283" type="line"/>
      <point x="-415" y="-262"/>
      <point x="-381" y="-207"/>
      <point x="-373" y="-184" type="curve"/>
      <point x="-401" y="-147" type="line"/>
    </contour>
    <contour>
      <point x="-557" y="-528" type="line"/>
      <point x="-526" y="-562" type="line"/>
      <point x="-502" y="-557"/>
      <point x="-440" y="-529"/>
      <point x="-416" y="-519" type="curve"/>
      <point x="-371" y="-179" type="line"/>
      <point x="-401" y="-147" type="line"/>
      <point x="-425" y="-153"/>
      <point x="-486" y="-176"/>
      <point x="-511" y="-190" type="curve"/>
    </contour>
    <contour>
      <point x="-616" y="-600" type="move" name="L"/>
    </contour>
    <contour>
      <point x="-548" y="-100" type="move" name="_L"/>
    </contour>
  </outline>
</glyph>
<glyph name="CombLftRtArrwBlw" format="1">
  <advance width="0"/>
  <unicode hex="034D"/>
  <outline>
    <contour>
      <point x="-325" y="-287" type="curve"/>
      <point x="-344" y="-241" type="line"/>
      <point x="-811" y="-241" type="line"/>
      <point x="-829" y="-268"/>
      <point x="-850" y="-301"/>
      <point x="-861" y="-327" type="curve"/>
      <point x="-836" y="-361" type="line"/>
      <point x="-359" y="-361" type="line"/>
      <point x="-345" y="-339"/>
      <point x="-336" y="-312"/>
    </contour>
    <contour>
      <point x="-526" y="-486" type="line"/>
      <point x="-458" y="-522" type="line"/>
      <point x="-261" y="-304" type="line"/>
      <point x="-395" y="-80" type="line"/>
      <point x="-473" y="-116" type="line"/>
      <point x="-402" y="-290" type="line"/>
    </contour>
    <contour>
      <point x="-750" y="-307" type="line"/>
      <point x="-626" y="-116" type="line"/>
      <point x="-694" y="-80" type="line"/>
      <point x="-890" y="-304" type="line"/>
      <point x="-759" y="-522" type="line"/>
      <point x="-681" y="-486" type="line"/>
    </contour>
    <contour>
      <point x="-612" y="-600" type="move" name="L"/>
    </contour>
    <contour>
      <point x="-544" y="-100" type="move" name="_L"/>
    </contour>
  </outline>
</glyph>
<glyph name="CombUpArrwBlw" format="1">
  <advance width="0"/>
  <unicode hex="034E"/>
  <outline>
    <contour>
      <point x="-535" y="-478" type="curve"/>
      <point x="-506" y="-265" type="line"/>
      <point x="-375" y="-358" type="line"/>
      <point x="-330" y="-278" type="line"/>
      <point x="-539" y="-90" type="line"/>
      <point x="-809" y="-278" type="line"/>
      <point x="-782" y="-358" type="line"/>
      <point x="-626" y="-265" type="line"/>
      <point x="-656" y="-488" type="line"/>
      <point x="-630" y="-517" type="line"/>
      <point x="-603" y="-509"/>
      <point x="-564" y="-494"/>
    </contour>
    <contour>
      <point x="-612" y="-600" type="move" name="L"/>
    </contour>
    <contour>
      <point x="-544" y="-100" type="move" name="_L"/>
    </contour>
  </outline>
</glyph>
<glyph name="CombUpArrwBlw" format="1">
  <advance width="0"/>
  <unicode hex="034E"/>
  <outline>
    <contour>
      <point x="-535" y="-478" type="curve"/>
      <point x="-506" y="-265" type="line"/>
      <point x="-375" y="-358" type="line"/>
      <point x="-330" y="-278" type="line"/>
      <point x="-539" y="-90" type="line"/>
      <point x="-809" y="-278" type="line"/>
      <point x="-782" y="-358" type="line"/>
      <point x="-626" y="-265" type="line"/>
      <point x="-656" y="-488" type="line"/>
      <point x="-630" y="-517" type="line"/>
      <point x="-603" y="-509"/>
      <point x="-564" y="-494"/>
    </contour>
    <contour>
      <point x="-612" y="-600" type="move" name="L"/>
    </contour>
    <contour>
      <point x="-544" y="-100" type="move" name="_L"/>
    </contour>
  </outline>
</glyph>
<glyph name="CombRtArrwhdAbv" format="1">
  <advance width="0"/>
  <unicode hex="0350"/>
  <outline>
    <contour>
      <point x="-690" y="998" type="curve"/>
      <point x="-661" y="968" type="line"/>
      <point x="-51" y="1205" type="line"/>
      <point x="-39" y="1227"/>
      <point x="-13" y="1288"/>
      <point x="-5" y="1310" type="curve"/>
      <point x="-40" y="1344" type="line"/>
      <point x="-646" y="1108" type="line"/>
      <point x="-655" y="1088"/>
      <point x="-682" y="1021"/>
    </contour>
    <contour>
      <point x="-597" y="1485" type="curve"/>
      <point x="-586" y="1436" type="line"/>
      <point x="-51" y="1205" type="line"/>
      <point x="-39" y="1227"/>
      <point x="-13" y="1288"/>
      <point x="-5" y="1310" type="curve"/>
      <point x="-40" y="1344" type="line"/>
      <point x="-508" y="1552" type="line"/>
      <point x="-544" y="1532"/>
      <point x="-572" y="1507"/>
    </contour>
    <contour>
      <point x="-350" y="1422" type="move" name="U"/>
    </contour>
    <contour>
      <point x="-409" y="1000" type="move" name="_U"/>
    </contour>
  </outline>
</glyph>
<glyph name="CombLftArrwhdBlw" format="1">
  <advance width="0"/>
  <unicode hex="0354"/>
  <outline>
    <contour>
      <point x="-189" y="-107" type="curve"/>
      <point x="-218" y="-77" type="line"/>
      <point x="-828" y="-314" type="line"/>
      <point x="-840" y="-336"/>
      <point x="-866" y="-397"/>
      <point x="-874" y="-419" type="curve"/>
      <point x="-839" y="-453" type="line"/>
      <point x="-233" y="-217" type="line"/>
      <point x="-224" y="-197"/>
      <point x="-197" y="-130"/>
    </contour>
    <contour>
      <point x="-282" y="-594" type="curve"/>
      <point x="-293" y="-545" type="line"/>
      <point x="-828" y="-314" type="line"/>
      <point x="-840" y="-336"/>
      <point x="-866" y="-397"/>
      <point x="-874" y="-419" type="curve"/>
      <point x="-839" y="-453" type="line"/>
      <point x="-371" y="-661" type="line"/>
      <point x="-335" y="-641"/>
      <point x="-307" y="-616"/>
    </contour>
    <contour>
      <point x="-543" y="-600" type="move" name="L"/>
    </contour>
    <contour>
      <point x="-474" y="-100" type="move" name="_L"/>
    </contour>
  </outline>
</glyph>
<glyph name="CombRtArrwhdBlw" format="1">
  <advance width="0"/>
  <unicode hex="0355"/>
  <outline>
    <contour>
      <point x="-949" y="-649" type="curve"/>
      <point x="-920" y="-679" type="line"/>
      <point x="-310" y="-442" type="line"/>
      <point x="-298" y="-420"/>
      <point x="-272" y="-359"/>
      <point x="-264" y="-337" type="curve"/>
      <point x="-299" y="-303" type="line"/>
      <point x="-905" y="-539" type="line"/>
      <point x="-914" y="-559"/>
      <point x="-941" y="-626"/>
    </contour>
    <contour>
      <point x="-856" y="-162" type="curve"/>
      <point x="-845" y="-211" type="line"/>
      <point x="-310" y="-442" type="line"/>
      <point x="-298" y="-420"/>
      <point x="-272" y="-359"/>
      <point x="-264" y="-337" type="curve"/>
      <point x="-299" y="-303" type="line"/>
      <point x="-767" y="-95" type="line"/>
      <point x="-803" y="-115"/>
      <point x="-831" y="-140"/>
    </contour>
    <contour>
      <point x="-609" y="-600" type="move" name="L"/>
    </contour>
    <contour>
      <point x="-544" y="-100" type="move" name="_L"/>
    </contour>
  </outline>
</glyph>
<glyph name="CombRtDotAbv" format="1">
  <advance width="188"/>
  <unicode hex="0358"/>
  <outline>
    <contour>
      <point x="364" y="1252" type="curve" smooth="yes"/>
      <point x="364" y="1307"/>
      <point x="331" y="1363"/>
      <point x="260" y="1363" type="curve" smooth="yes"/>
      <point x="154" y="1363"/>
      <point x="91" y="1247"/>
      <point x="91" y="1166" type="curve" smooth="yes"/>
      <point x="91" y="1111"/>
      <point x="122" y="1056"/>
      <point x="193" y="1056" type="curve" smooth="yes"/>
      <point x="300" y="1056"/>
      <point x="364" y="1168"/>
    </contour>
    <contour>
      <point x="320" y="1320" type="move" name="U"/>
    </contour>
    <contour>
      <point x="90" y="870" type="move" name="_R"/>
    </contour>
  </outline>
</glyph>
<glyph name="GrSmHeta" format="1">
  <advance width="773"/>
  <unicode hex="0371"/>
  <outline>
    <contour>
      <point x="468" y="821" type="curve" smooth="yes"/>
      <point x="468" y="915"/>
      <point x="441" y="936"/>
      <point x="394" y="936" type="curve" smooth="yes"/>
      <point x="321" y="936"/>
      <point x="128" y="870"/>
      <point x="5" y="820" type="curve"/>
      <point x="35" y="743" type="line"/>
      <point x="59" y="751"/>
      <point x="120" y="767"/>
      <point x="138" y="767" type="curve" smooth="yes"/>
      <point x="160" y="767"/>
      <point x="179" y="761"/>
      <point x="179" y="700" type="curve" smooth="yes"/>
      <point x="179" y="579"/>
      <point x="135" y="274"/>
      <point x="76" y="-10" type="curve"/>
      <point x="119" y="-41" type="line"/>
      <point x="172" y="-32"/>
      <point x="347" y="-4"/>
      <point x="382" y="15" type="curve"/>
      <point x="376" y="191"/>
      <point x="468" y="721"/>
    </contour>
    <contour>
      <point x="773" y="502" type="curve"/>
      <point x="733" y="550" type="line"/>
      <point x="304" y="550" type="line"/>
      <point x="288" y="420" type="line"/>
      <point x="473" y="420" type="line" smooth="yes"/>
      <point x="573" y="420"/>
      <point x="622" y="412"/>
      <point x="636" y="375" type="curve"/>
      <point x="663" y="389"/>
      <point x="747" y="465"/>
    </contour>
    <contour>
      <point x="438" y="1000" type="move" name="U"/>
    </contour>
    <contour>
      <point x="314" y="-100" type="move" name="L"/>
    </contour>
  </outline>
</glyph>
<glyph name="GrCapGamma" format="1">
  <advance width="974"/>
  <unicode hex="0393"/>
  <outline>
    <contour>
      <point x="1057" y="1225" type="curve"/>
      <point x="1014" y="1260" type="line"/>
      <point x="527" y="1260" type="line"/>
      <point x="482" y="1130" type="line"/>
      <point x="841" y="1130" type="line" smooth="yes"/>
      <point x="888" y="1130"/>
      <point x="893" y="973"/>
      <point x="880" y="850" type="curve"/>
      <point x="961" y="850" type="line"/>
      <point x="983" y="901"/>
      <point x="1046" y="1157"/>
    </contour>
    <contour>
      <point x="530" y="0" type="line"/>
      <point x="541" y="83" type="line"/>
      <point x="422" y="108"/>
      <point x="393" y="128"/>
      <point x="395" y="144" type="curve" smooth="yes"/>
      <point x="531" y="1137" type="line" smooth="yes"/>
      <point x="534" y="1155"/>
      <point x="585" y="1158"/>
      <point x="672" y="1177" type="curve"/>
      <point x="683" y="1260" type="line"/>
      <point x="527" y="1260" type="line"/>
      <point x="162" y="1260" type="line"/>
      <point x="151" y="1177" type="line"/>
      <point x="237" y="1158"/>
      <point x="270" y="1131"/>
      <point x="268" y="1115" type="curve" smooth="yes"/>
      <point x="135" y="144" type="line" smooth="yes"/>
      <point x="133" y="126"/>
      <point x="87" y="101"/>
      <point x="1" y="83" type="curve"/>
      <point x="-10" y="0" type="line"/>
    </contour>
    <contour>
      <point x="630" y="1366" type="move" name="U"/>
    </contour>
    <contour>
      <point x="427" y="-100" type="move" name="L"/>
    </contour>
  </outline>
</glyph>
<glyph name="GrCapUpsilon" format="1">
  <advance width="1351"/>
  <unicode hex="03A5"/>
  <outline>
    <contour>
      <point x="1431" y="1239" type="line"/>
      <point x="1405" y="1284" type="line"/>
      <point x="1252" y="1311"/>
      <point x="1121" y="1256"/>
      <point x="1011" y="1104" type="curve" smooth="yes"/>
      <point x="926" y="988"/>
      <point x="868" y="869"/>
      <point x="785" y="701" type="curve"/>
      <point x="770" y="832"/>
      <point x="720" y="1056"/>
      <point x="630" y="1196" type="curve" smooth="yes"/>
      <point x="602" y="1240"/>
      <point x="572" y="1290"/>
      <point x="510" y="1290" type="curve" smooth="yes"/>
      <point x="455" y="1290"/>
      <point x="227" y="1280"/>
      <point x="148" y="1270" type="curve"/>
      <point x="145" y="1187" type="line"/>
      <point x="256" y="1187"/>
      <point x="335" y="1126"/>
      <point x="376" y="1042" type="curve"/>
      <point x="454" y="889"/>
      <point x="558" y="598"/>
      <point x="514" y="291" type="curve" smooth="yes"/>
      <point x="495" y="155" type="line" smooth="yes"/>
      <point x="493" y="136"/>
      <point x="446" y="108"/>
      <point x="321" y="83" type="curve"/>
      <point x="310" y="0" type="line"/>
      <point x="920" y="0" type="line"/>
      <point x="931" y="83" type="line"/>
      <point x="810" y="108"/>
      <point x="773" y="138"/>
      <point x="775" y="155" type="curve" smooth="yes"/>
      <point x="794" y="291" type="line" smooth="yes"/>
      <point x="833" y="563"/>
      <point x="979" y="818"/>
      <point x="1060" y="936" type="curve" smooth="yes"/>
      <point x="1165" y="1089"/>
      <point x="1247" y="1090"/>
      <point x="1319" y="1076" type="curve"/>
    </contour>
    <contour>
      <point x="776" y="1370" type="move" name="U"/>
    </contour>
  </outline>
</glyph>
<glyph name="GrSmBeta" format="1">
  <advance width="1063"/>
  <unicode hex="03B2"/>
  <outline>
    <contour>
      <point x="998" y="379" type="curve"/>
      <point x="1056" y="653"/>
      <point x="933" y="815"/>
      <point x="740" y="819" type="curve"/>
      <point x="898" y="932"/>
      <point x="977" y="1080"/>
      <point x="997" y="1240" type="curve" smooth="yes"/>
      <point x="1015" y="1385"/>
      <point x="915" y="1520"/>
      <point x="734" y="1520" type="curve" smooth="yes"/>
      <point x="324" y="1520"/>
      <point x="183" y="1042"/>
      <point x="130" y="647" type="curve" smooth="yes"/>
      <point x="56" y="96"/>
      <point x="-2" y="-314"/>
      <point x="-20" y="-461" type="curve"/>
      <point x="23" y="-500" type="line"/>
      <point x="57" y="-484"/>
      <point x="246" y="-440"/>
      <point x="288" y="-427" type="curve"/>
      <point x="257" y="-324"/>
      <point x="274" y="-124"/>
      <point x="399" y="762" type="curve" smooth="yes"/>
      <point x="448" y="1108"/>
      <point x="523" y="1356"/>
      <point x="629" y="1356" type="curve" smooth="yes"/>
      <point x="729" y="1356"/>
      <point x="753" y="1275"/>
      <point x="733" y="1149" type="curve" smooth="yes"/>
      <point x="711" y="1010"/>
      <point x="612" y="838"/>
      <point x="446" y="803" type="curve"/>
      <point x="442" y="695" type="line"/>
      <point x="477" y="703"/>
      <point x="534" y="713"/>
      <point x="567" y="713" type="curve" smooth="yes"/>
      <point x="707" y="713"/>
      <point x="810" y="578"/>
      <point x="757" y="334" type="curve" smooth="yes"/>
      <point x="730" y="209"/>
      <point x="648" y="104"/>
      <point x="527" y="104" type="curve" smooth="yes"/>
      <point x="406" y="104"/>
      <point x="283" y="331"/>
      <point x="279" y="429" type="curve"/>
      <point x="226" y="283" type="line"/>
      <point x="188" y="158"/>
      <point x="401" y="-41"/>
      <point x="519" y="-41" type="curve" smooth="yes"/>
      <point x="815" y="-41"/>
      <point x="966" y="229"/>
    </contour>
    <contour>
      <point x="670" y="1580" type="move" name="U"/>
    </contour>
    <contour>
      <point x="363" y="-600" type="move" name="L"/>
    </contour>
  </outline>
</glyph>
<glyph name="GrSmGamma" format="1">
  <advance width="1037"/>
  <unicode hex="03B3"/>
  <outline>
    <contour>
      <point x="1074" y="903" type="curve"/>
      <point x="1038" y="944" type="line"/>
      <point x="991" y="932"/>
      <point x="823" y="909"/>
      <point x="776" y="897" type="curve"/>
      <point x="723" y="590"/>
      <point x="710" y="406"/>
      <point x="548" y="101" type="curve"/>
      <point x="560" y="58"/>
      <point x="617" y="-66"/>
      <point x="617" y="-66" type="curve"/>
      <point x="746" y="263"/>
      <point x="898" y="600"/>
    </contour>
    <contour>
      <point x="632" y="16" type="curve" smooth="yes"/>
      <point x="632" y="90"/>
      <point x="618" y="324"/>
      <point x="596" y="424" type="curve" smooth="yes"/>
      <point x="531" y="717"/>
      <point x="469" y="936"/>
      <point x="408" y="936" type="curve" smooth="yes"/>
      <point x="319" y="936"/>
      <point x="173" y="879"/>
      <point x="40" y="820" type="curve"/>
      <point x="67" y="741" type="line"/>
      <point x="67" y="741"/>
      <point x="149" y="767"/>
      <point x="182" y="767" type="curve" smooth="yes"/>
      <point x="286" y="767"/>
      <point x="385" y="88"/>
      <point x="385" y="0" type="curve" smooth="yes"/>
      <point x="385" y="-86"/>
      <point x="379" y="-242"/>
      <point x="326" y="-461" type="curve"/>
      <point x="342" y="-474"/>
      <point x="358" y="-492"/>
      <point x="366" y="-500" type="curve"/>
      <point x="409" y="-487"/>
      <point x="561" y="-445"/>
      <point x="618" y="-428" type="curve"/>
      <point x="624" y="-371"/>
      <point x="632" y="-39"/>
    </contour>
    <contour>
      <point x="669" y="1000" type="move" name="U"/>
    </contour>
    <contour>
      <point x="447" y="-600" type="move" name="L"/>
    </contour>
  </outline>
</glyph>
<glyph name="GrSmDelta" format="1">
  <advance width="999"/>
  <unicode hex="03B4"/>
  <outline>
    <contour>
      <point x="1132" y="1374" type="curve"/>
      <point x="1122" y="1393"/>
      <point x="1100" y="1407"/>
      <point x="1092" y="1413" type="curve"/>
      <point x="965" y="1358"/>
      <point x="832" y="1509"/>
      <point x="563" y="1509" type="curve" smooth="yes"/>
      <point x="437" y="1509"/>
      <point x="282" y="1417"/>
      <point x="282" y="1250" type="curve" smooth="yes"/>
      <point x="282" y="976"/>
      <point x="682" y="763"/>
      <point x="682" y="398" type="curve" smooth="yes"/>
      <point x="682" y="223"/>
      <point x="590" y="102"/>
      <point x="503" y="102" type="curve" smooth="yes"/>
      <point x="408" y="102"/>
      <point x="289" y="226"/>
      <point x="313" y="429" type="curve" smooth="yes"/>
      <point x="338" y="644"/>
      <point x="427" y="734"/>
      <point x="601" y="820" type="curve"/>
      <point x="607" y="836"/>
      <point x="569" y="905"/>
      <point x="557" y="928" type="curve"/>
      <point x="354" y="846"/>
      <point x="58" y="664"/>
      <point x="44" y="374" type="curve" smooth="yes"/>
      <point x="30" y="93"/>
      <point x="203" y="-41"/>
      <point x="445" y="-41" type="curve" smooth="yes"/>
      <point x="719" y="-41"/>
      <point x="949" y="202"/>
      <point x="949" y="466" type="curve" smooth="yes"/>
      <point x="949" y="849"/>
      <point x="495" y="1150"/>
      <point x="495" y="1295" type="curve" smooth="yes"/>
      <point x="495" y="1359"/>
      <point x="537" y="1380"/>
      <point x="570" y="1380" type="curve" smooth="yes"/>
      <point x="692" y="1380"/>
      <point x="857" y="1154"/>
      <point x="902" y="1154" type="curve" smooth="yes"/>
      <point x="937" y="1154"/>
      <point x="1055" y="1292"/>
    </contour>
    <contour>
      <point x="613" y="1580" type="move" name="U"/>
    </contour>
    <contour>
      <point x="375" y="-100" type="move" name="L"/>
    </contour>
  </outline>
</glyph>
<glyph name="GrSmZeta" format="1">
  <advance width="876"/>
  <unicode hex="03B6"/>
  <outline>
    <contour>
      <point x="1046" y="1373" type="curve"/>
      <point x="1046" y="1391"/>
      <point x="1040" y="1440"/>
      <point x="1040" y="1456" type="curve"/>
      <point x="856" y="1417"/>
      <point x="570" y="1397"/>
      <point x="504" y="1397" type="curve" smooth="yes"/>
      <point x="424" y="1397"/>
      <point x="402" y="1487"/>
      <point x="396" y="1513" type="curve"/>
      <point x="379" y="1518"/>
      <point x="336" y="1513"/>
      <point x="318" y="1507" type="curve"/>
      <point x="318" y="1462"/>
      <point x="312" y="1269"/>
      <point x="312" y="1269" type="curve"/>
      <point x="312" y="1232"/>
      <point x="366" y="1218"/>
      <point x="399" y="1218" type="curve" smooth="yes"/>
      <point x="442" y="1218"/>
      <point x="544" y="1242"/>
      <point x="683" y="1285" type="curve"/>
      <point x="446" y="1083"/>
      <point x="70" y="719"/>
      <point x="70" y="387" type="curve" smooth="yes"/>
      <point x="70" y="14"/>
      <point x="482" y="3"/>
      <point x="482" y="-143" type="curve" smooth="yes"/>
      <point x="482" y="-213"/>
      <point x="461" y="-269"/>
      <point x="328" y="-422" type="curve"/>
      <point x="336" y="-437"/>
      <point x="370" y="-469"/>
      <point x="387" y="-477" type="curve"/>
      <point x="620" y="-292"/>
      <point x="740" y="-152"/>
      <point x="740" y="-45" type="curve" smooth="yes"/>
      <point x="740" y="187"/>
      <point x="320" y="186"/>
      <point x="320" y="463" type="curve" smooth="yes"/>
      <point x="320" y="808"/>
      <point x="763" y="1236"/>
    </contour>
  </outline>
</glyph>
<glyph name="GrSmTheta" format="1">
  <advance width="1074"/>
  <unicode hex="03B8"/>
  <outline>
    <contour>
      <point x="1041" y="690" type="curve" smooth="yes"/>
      <point x="1094" y="1094"/>
      <point x="986" y="1420"/>
      <point x="693" y="1420" type="curve" smooth="yes"/>
      <point x="426" y="1420"/>
      <point x="166" y="1073"/>
      <point x="113" y="670" type="curve" smooth="yes"/>
      <point x="59" y="266"/>
      <point x="174" y="-41"/>
      <point x="465" y="-41" type="curve" smooth="yes"/>
      <point x="739" y="-41"/>
      <point x="988" y="287"/>
    </contour>
    <contour>
      <point x="520" y="100" type="curve" smooth="yes"/>
      <point x="410" y="100"/>
      <point x="349" y="334"/>
      <point x="377" y="628" type="curve"/>
      <point x="536" y="635"/>
      <point x="607" y="639"/>
      <point x="765" y="633" type="curve"/>
      <point x="724" y="280"/>
      <point x="623" y="100"/>
    </contour>
    <contour>
      <point x="640" y="1279" type="curve" smooth="yes"/>
      <point x="736" y="1279"/>
      <point x="796" y="1060"/>
      <point x="777" y="776" type="curve"/>
      <point x="620" y="765"/>
      <point x="562" y="760"/>
      <point x="393" y="772" type="curve"/>
      <point x="444" y="1113"/>
      <point x="544" y="1279"/>
    </contour>
    <contour>
      <point x="710" y="1580" type="move" name="U"/>
    </contour>
    <contour>
      <point x="472" y="-100" type="move" name="L"/>
    </contour>
  </outline>
</glyph>
<glyph name="GrSmLamda" format="1">
  <advance width="1057"/>
  <unicode hex="03BB"/>
  <outline>
    <contour>
      <point x="1042" y="298" type="curve"/>
      <point x="989" y="346" type="line"/>
      <point x="950" y="284"/>
      <point x="895" y="221"/>
      <point x="865" y="221" type="curve" smooth="yes"/>
      <point x="795" y="221"/>
      <point x="765" y="493"/>
      <point x="735" y="776" type="curve" smooth="yes"/>
      <point x="668" y="1405"/>
      <point x="603" y="1520"/>
      <point x="451" y="1520" type="curve" smooth="yes"/>
      <point x="298" y="1520"/>
      <point x="214" y="1352"/>
      <point x="128" y="1177" type="curve"/>
      <point x="194" y="1125" type="line"/>
      <point x="226" y="1201"/>
      <point x="291" y="1283"/>
      <point x="337" y="1283" type="curve" smooth="yes"/>
      <point x="421" y="1283"/>
      <point x="460" y="1140"/>
      <point x="501" y="785" type="curve" smooth="yes"/>
      <point x="589" y="21"/>
      <point x="605" y="-41"/>
      <point x="747" y="-41" type="curve" smooth="yes"/>
      <point x="840" y="-41"/>
      <point x="964" y="124"/>
    </contour>
    <contour>
      <point x="587" y="851" type="curve"/>
      <point x="585" y="871"/>
      <point x="537" y="1032"/>
      <point x="514" y="1057" type="curve"/>
      <point x="408" y="773"/>
      <point x="212" y="322"/>
      <point x="-60" y="2" type="curve"/>
      <point x="-27" y="-41" type="line"/>
      <point x="20" y="-26"/>
      <point x="180" y="-16"/>
      <point x="229" y="-10" type="curve"/>
      <point x="367" y="320"/>
      <point x="429" y="596"/>
    </contour>
    <contour>
      <point x="601" y="1640" type="move" name="U"/>
    </contour>
    <contour>
      <point x="363" y="-100" type="move" name="L"/>
    </contour>
  </outline>
</glyph>
<glyph name="GrSmNu" format="1">
  <advance width="1109"/>
  <unicode hex="03BD"/>
  <outline>
    <contour>
      <point x="1064" y="852" type="curve" smooth="yes"/>
      <point x="1064" y="915"/>
      <point x="1028" y="936"/>
      <point x="980" y="936" type="curve" smooth="yes"/>
      <point x="875" y="936"/>
      <point x="701" y="857"/>
      <point x="623" y="818" type="curve"/>
      <point x="657" y="742" type="line"/>
      <point x="695" y="753"/>
      <point x="714" y="758"/>
      <point x="736" y="758" type="curve" smooth="yes"/>
      <point x="773" y="758"/>
      <point x="787" y="733"/>
      <point x="787" y="686" type="curve" smooth="yes"/>
      <point x="787" y="621"/>
      <point x="768" y="484"/>
      <point x="566" y="254" type="curve"/>
      <point x="543" y="492"/>
      <point x="503" y="707"/>
      <point x="474" y="809" type="curve" smooth="yes"/>
      <point x="448" y="903"/>
      <point x="413" y="936"/>
      <point x="374" y="936" type="curve" smooth="yes"/>
      <point x="301" y="936"/>
      <point x="133" y="871"/>
      <point x="20" y="820" type="curve"/>
      <point x="46" y="741" type="line"/>
      <point x="46" y="741"/>
      <point x="116" y="767"/>
      <point x="139" y="767" type="curve" smooth="yes"/>
      <point x="164" y="767"/>
      <point x="203" y="757"/>
      <point x="223" y="685" type="curve" smooth="yes"/>
      <point x="258" y="563"/>
      <point x="297" y="327"/>
      <point x="324" y="0" type="curve"/>
      <point x="367" y="-41" type="line"/>
      <point x="393" y="-29"/>
      <point x="518" y="-10"/>
      <point x="541" y="2" type="curve"/>
      <point x="905" y="440"/>
      <point x="1064" y="690"/>
    </contour>
  </outline>
</glyph>
<glyph name="GrSmXi" format="1">
  <advance width="954"/>
  <unicode hex="03BE"/>
  <outline>
    <contour>
      <point x="1039" y="1389" type="curve"/>
      <point x="1039" y="1410"/>
      <point x="1027" y="1477"/>
      <point x="1021" y="1497" type="curve"/>
      <point x="802" y="1458"/>
      <point x="555" y="1446"/>
      <point x="455" y="1446" type="curve" smooth="yes"/>
      <point x="390" y="1446"/>
      <point x="381" y="1464"/>
      <point x="361" y="1550" type="curve"/>
      <point x="344" y="1550"/>
      <point x="298" y="1548"/>
      <point x="280" y="1542" type="curve"/>
      <point x="285" y="1350"/>
      <point x="282" y="1287"/>
      <point x="342" y="1287" type="curve" smooth="yes"/>
      <point x="364" y="1287"/>
      <point x="434" y="1292"/>
      <point x="548" y="1316" type="curve"/>
      <point x="352" y="1233"/>
      <point x="245" y="1116"/>
      <point x="245" y="983" type="curve" smooth="yes"/>
      <point x="245" y="918"/>
      <point x="300" y="799"/>
      <point x="480" y="807" type="curve"/>
      <point x="284" y="737"/>
      <point x="60" y="535"/>
      <point x="60" y="317" type="curve" smooth="yes"/>
      <point x="60" y="-55"/>
      <point x="585" y="-34"/>
      <point x="585" y="-199" type="curve" smooth="yes"/>
      <point x="585" y="-268"/>
      <point x="548" y="-304"/>
      <point x="440" y="-422" type="curve"/>
      <point x="450" y="-437"/>
      <point x="490" y="-469"/>
      <point x="508" y="-477" type="curve"/>
      <point x="741" y="-319"/>
      <point x="861" y="-168"/>
      <point x="861" y="-92" type="curve" smooth="yes"/>
      <point x="861" y="121"/>
      <point x="308" y="184"/>
      <point x="308" y="379" type="curve" smooth="yes"/>
      <point x="308" y="578"/>
      <point x="521" y="740"/>
      <point x="881" y="787" type="curve"/>
      <point x="883" y="812"/>
      <point x="887" y="880"/>
      <point x="887" y="905" type="curve"/>
      <point x="690" y="887"/>
      <point x="504" y="923"/>
      <point x="504" y="1026" type="curve" smooth="yes"/>
      <point x="504" y="1139"/>
      <point x="641" y="1293"/>
    </contour>
  </outline>
</glyph>
<glyph name="GrSmPi" format="1">
  <advance width="1078"/>
  <unicode hex="03C0"/>
  <outline>
    <contour>
      <point x="1060" y="955" type="line"/>
      <point x="1017" y="922"/>
      <point x="978" y="895"/>
      <point x="925" y="895" type="curve" smooth="yes"/>
      <point x="755" y="895"/>
      <point x="561" y="936"/>
      <point x="274" y="936" type="curve" smooth="yes"/>
      <point x="194" y="936"/>
      <point x="86" y="786"/>
      <point x="0" y="694" type="curve"/>
      <point x="37" y="629" type="line"/>
      <point x="115" y="681"/>
      <point x="150" y="701"/>
      <point x="230" y="701" type="curve" smooth="yes"/>
      <point x="479" y="701"/>
      <point x="645" y="656"/>
      <point x="856" y="656" type="curve" smooth="yes"/>
      <point x="928" y="656"/>
      <point x="1042" y="805"/>
      <point x="1108" y="891" type="curve"/>
    </contour>
    <contour>
      <point x="1018" y="195" type="curve"/>
      <point x="965" y="267" type="line"/>
      <point x="903" y="185"/>
      <point x="855" y="167"/>
      <point x="824" y="167" type="curve" smooth="yes"/>
      <point x="787" y="167"/>
      <point x="755" y="199"/>
      <point x="755" y="319" type="curve" smooth="yes"/>
      <point x="755" y="443"/>
      <point x="775" y="568"/>
      <point x="830" y="738" type="curve"/>
      <point x="688" y="727" type="line"/>
      <point x="598" y="411"/>
      <point x="565" y="233"/>
      <point x="565" y="152" type="curve" smooth="yes"/>
      <point x="565" y="0"/>
      <point x="627" y="-41"/>
      <point x="708" y="-41" type="curve" smooth="yes"/>
      <point x="782" y="-41"/>
      <point x="886" y="0"/>
    </contour>
    <contour>
      <point x="448" y="815" type="curve"/>
      <point x="448" y="815"/>
      <point x="317" y="803"/>
      <point x="288" y="791" type="curve"/>
      <point x="207" y="333"/>
      <point x="132" y="181"/>
      <point x="18" y="-2" type="curve"/>
      <point x="18" y="-2"/>
      <point x="46" y="-39"/>
      <point x="50" y="-47" type="curve"/>
      <point x="110" y="-31"/>
      <point x="302" y="50"/>
      <point x="339" y="73" type="curve"/>
      <point x="344" y="295"/>
      <point x="389" y="568"/>
    </contour>
    <contour>
      <point x="584" y="1000" type="move" name="U"/>
    </contour>
    <contour>
      <point x="433" y="-100" type="move" name="L"/>
    </contour>
  </outline>
</glyph>
<glyph name="GrSmTau" format="1">
  <advance width="921"/>
  <unicode hex="03C4"/>
  <outline>
    <contour>
      <point x="1006" y="898" type="curve"/>
      <point x="955" y="957" type="line"/>
      <point x="921" y="926"/>
      <point x="884" y="897"/>
      <point x="808" y="897" type="curve" smooth="yes"/>
      <point x="703" y="897"/>
      <point x="458" y="936"/>
      <point x="300" y="936" type="curve" smooth="yes"/>
      <point x="220" y="936"/>
      <point x="100" y="832"/>
      <point x="30" y="756" type="curve"/>
      <point x="62" y="682" type="line"/>
      <point x="146" y="733"/>
      <point x="202" y="737"/>
      <point x="266" y="737" type="curve" smooth="yes"/>
      <point x="366" y="737"/>
      <point x="629" y="681"/>
      <point x="799" y="681" type="curve" smooth="yes"/>
      <point x="883" y="681"/>
      <point x="940" y="812"/>
    </contour>
    <contour>
      <point x="768" y="178" type="curve"/>
      <point x="732" y="249" type="line"/>
      <point x="638" y="187"/>
      <point x="578" y="160"/>
      <point x="531" y="160" type="curve" smooth="yes"/>
      <point x="494" y="160"/>
      <point x="469" y="189"/>
      <point x="469" y="251" type="curve" smooth="yes"/>
      <point x="469" y="338"/>
      <point x="508" y="561"/>
      <point x="564" y="850" type="curve"/>
      <point x="392" y="856" type="line"/>
      <point x="332" y="567"/>
      <point x="191" y="305"/>
      <point x="191" y="127" type="curve" smooth="yes"/>
      <point x="191" y="20"/>
      <point x="245" y="-41"/>
      <point x="330" y="-41" type="curve" smooth="yes"/>
      <point x="480" y="-41"/>
      <point x="615" y="47"/>
    </contour>
  </outline>
</glyph>
<glyph name="GrSmUpsilon" format="1">
  <advance width="1156"/>
  <unicode hex="03C5"/>
  <outline>
    <contour>
      <point x="1047" y="588" type="curve" smooth="yes"/>
      <point x="1074" y="784"/>
      <point x="1038" y="909"/>
      <point x="961" y="936" type="curve"/>
      <point x="891" y="924"/>
      <point x="755" y="883"/>
      <point x="676" y="856" type="curve"/>
      <point x="696" y="777" type="line"/>
      <point x="785" y="759"/>
      <point x="814" y="654"/>
      <point x="799" y="525" type="curve" smooth="yes"/>
      <point x="776" y="333"/>
      <point x="683" y="110"/>
      <point x="523" y="110" type="curve" smooth="yes"/>
      <point x="473" y="110"/>
      <point x="404" y="170"/>
      <point x="418" y="319" type="curve" smooth="yes"/>
      <point x="430" y="449"/>
      <point x="514" y="701"/>
      <point x="514" y="852" type="curve" smooth="yes"/>
      <point x="514" y="913"/>
      <point x="484" y="936"/>
      <point x="445" y="936" type="curve" smooth="yes"/>
      <point x="382" y="936"/>
      <point x="178" y="861"/>
      <point x="65" y="810" type="curve"/>
      <point x="91" y="733" type="line"/>
      <point x="91" y="733"/>
      <point x="161" y="757"/>
      <point x="184" y="757" type="curve" smooth="yes"/>
      <point x="208" y="757"/>
      <point x="225" y="751"/>
      <point x="225" y="690" type="curve" smooth="yes"/>
      <point x="225" y="597"/>
      <point x="151" y="405"/>
      <point x="145" y="262" type="curve" smooth="yes"/>
      <point x="135" y="39"/>
      <point x="304" y="-41"/>
      <point x="427" y="-41" type="curve" smooth="yes"/>
      <point x="770" y="-41"/>
      <point x="1009" y="313"/>
    </contour>
    <contour>
      <point x="716" y="1050" type="move" name="U"/>
    </contour>
  </outline>
</glyph>
<glyph name="GrSmPhi" format="1">
  <advance width="1350"/>
  <unicode hex="03C6"/>
  <outline>
    <contour>
      <point x="1285" y="563" type="curve" smooth="yes"/>
      <point x="1285" y="772"/>
      <point x="1197" y="936"/>
      <point x="963" y="936" type="curve" smooth="yes"/>
      <point x="751" y="936"/>
      <point x="596" y="772"/>
      <point x="549" y="438" type="curve"/>
      <point x="520" y="250"/>
      <point x="430" y="-299"/>
      <point x="404" y="-430" type="curve"/>
      <point x="414" y="-443"/>
      <point x="438" y="-459"/>
      <point x="450" y="-467" type="curve"/>
      <point x="498" y="-442"/>
      <point x="653" y="-353"/>
      <point x="694" y="-322" type="curve"/>
      <point x="698" y="-248"/>
      <point x="758" y="278"/>
      <point x="776" y="459" type="curve" smooth="yes"/>
      <point x="804" y="739"/>
      <point x="840" y="791"/>
      <point x="896" y="791" type="curve" smooth="yes"/>
      <point x="952" y="791"/>
      <point x="1004" y="704"/>
      <point x="1004" y="538" type="curve" smooth="yes"/>
      <point x="1004" y="223"/>
      <point x="882" y="97"/>
      <point x="669" y="97" type="curve" smooth="yes"/>
      <point x="432" y="97"/>
      <point x="331" y="270"/>
      <point x="331" y="428" type="curve" smooth="yes"/>
      <point x="331" y="576"/>
      <point x="393" y="754"/>
      <point x="609" y="857" type="curve"/>
      <point x="607" y="869"/>
      <point x="593" y="924"/>
      <point x="587" y="940" type="curve"/>
      <point x="165" y="811"/>
      <point x="65" y="530"/>
      <point x="65" y="381" type="curve" smooth="yes"/>
      <point x="65" y="199"/>
      <point x="150" y="-41"/>
      <point x="576" y="-41" type="curve" smooth="yes"/>
      <point x="1000" y="-41"/>
      <point x="1285" y="219"/>
    </contour>
  </outline>
</glyph>
<glyph name="GrSmChi" format="1">
  <advance width="1065"/>
  <unicode hex="03C7"/>
  <outline>
    <contour>
      <point x="1092" y="895" type="curve"/>
      <point x="1060" y="938" type="line"/>
      <point x="1011" y="924"/>
      <point x="853" y="913"/>
      <point x="804" y="907" type="curve"/>
      <point x="728" y="735"/>
      <point x="659" y="568"/>
      <point x="572" y="400" type="curve"/>
      <point x="624" y="250" type="line"/>
      <point x="765" y="483"/>
      <point x="924" y="684"/>
    </contour>
    <contour>
      <point x="1030" y="-97" type="curve"/>
      <point x="975" y="-31" type="line"/>
      <point x="918" y="-96"/>
      <point x="877" y="-133"/>
      <point x="844" y="-133" type="curve" smooth="yes"/>
      <point x="797" y="-133"/>
      <point x="736" y="-41"/>
      <point x="654" y="348" type="curve" smooth="yes"/>
      <point x="545" y="862"/>
      <point x="512" y="936"/>
      <point x="443" y="936" type="curve" smooth="yes"/>
      <point x="374" y="936"/>
      <point x="179" y="877"/>
      <point x="66" y="834" type="curve"/>
      <point x="97" y="751" type="line"/>
      <point x="97" y="751"/>
      <point x="159" y="763"/>
      <point x="202" y="763" type="curve" smooth="yes"/>
      <point x="271" y="763"/>
      <point x="325" y="662"/>
      <point x="417" y="238" type="curve"/>
      <point x="517" y="-209"/>
      <point x="562" y="-385"/>
      <point x="687" y="-385" type="curve" smooth="yes"/>
      <point x="798" y="-385"/>
      <point x="881" y="-289"/>
    </contour>
    <contour>
      <point x="544" y="209" type="curve"/>
      <point x="465" y="297" type="line"/>
      <point x="336" y="80"/>
      <point x="153" y="-135"/>
      <point x="-36" y="-342" type="curve"/>
      <point x="-3" y="-385" type="line"/>
      <point x="46" y="-371"/>
      <point x="203" y="-360"/>
      <point x="253" y="-354" type="curve"/>
      <point x="353" y="-178"/>
      <point x="483" y="88"/>
    </contour>
    <contour>
      <point x="673" y="1000" type="move" name="U"/>
    </contour>
    <contour>
      <point x="451" y="-600" type="move" name="L"/>
    </contour>
  </outline>
</glyph>
<glyph name="GrSmOmega" format="1">
  <advance width="1420"/>
  <unicode hex="03C9"/>
  <outline>
    <contour>
      <point x="1339" y="383" type="curve" smooth="yes"/>
      <point x="1372" y="620"/>
      <point x="1257" y="812"/>
      <point x="1114" y="942" type="curve"/>
      <point x="1101" y="936"/>
      <point x="1029" y="910"/>
      <point x="1019" y="900" type="curve"/>
      <point x="1094" y="682"/>
      <point x="1098" y="524"/>
      <point x="1053" y="322" type="curve" smooth="yes"/>
      <point x="1017" y="161"/>
      <point x="947" y="109"/>
      <point x="901" y="109" type="curve" smooth="yes"/>
      <point x="799" y="109"/>
      <point x="784" y="236"/>
      <point x="801" y="367" type="curve" smooth="yes"/>
      <point x="818" y="499"/>
      <point x="859" y="584"/>
      <point x="859" y="584" type="curve"/>
      <point x="859" y="584"/>
      <point x="832" y="602"/>
      <point x="812" y="615" type="curve"/>
      <point x="769" y="605"/>
      <point x="658" y="579"/>
      <point x="601" y="558" type="curve"/>
      <point x="607" y="519"/>
      <point x="615" y="459"/>
      <point x="603" y="363" type="curve" smooth="yes"/>
      <point x="584" y="234"/>
      <point x="539" y="109"/>
      <point x="465" y="109" type="curve" smooth="yes"/>
      <point x="392" y="109"/>
      <point x="319" y="203"/>
      <point x="350" y="441" type="curve" smooth="yes"/>
      <point x="370" y="600"/>
      <point x="412" y="726"/>
      <point x="568" y="894" type="curve"/>
      <point x="560" y="906"/>
      <point x="489" y="934"/>
      <point x="481" y="942" type="curve"/>
      <point x="263" y="838"/>
      <point x="103" y="619"/>
      <point x="72" y="406" type="curve" smooth="yes"/>
      <point x="35" y="148"/>
      <point x="165" y="-41"/>
      <point x="391" y="-41" type="curve" smooth="yes"/>
      <point x="554" y="-41"/>
      <point x="635" y="52"/>
      <point x="680" y="143" type="curve"/>
      <point x="713" y="6"/>
      <point x="809" y="-41"/>
      <point x="918" y="-41" type="curve" smooth="yes"/>
      <point x="1075" y="-41"/>
      <point x="1301" y="114"/>
    </contour>
    <contour>
      <point x="817" y="1000" type="move" name="U"/>
    </contour>
    <contour>
      <point x="653" y="-100" type="move" name="L"/>
    </contour>
  </outline>
</glyph>
<glyph name="GrBetaSym" format="1">
  <advance width="1092"/>
  <unicode hex="03D0"/>
  <outline>
    <contour>
      <point x="1066" y="1297" type="curve"/>
      <point x="1073" y="1408"/>
      <point x="1000" y="1521"/>
      <point x="812" y="1520" type="curve" smooth="yes"/>
      <point x="376" y="1518"/>
      <point x="138" y="888"/>
      <point x="106" y="567" type="curve" smooth="yes"/>
      <point x="77" y="280"/>
      <point x="162" y="-41"/>
      <point x="471" y="-41" type="curve" smooth="yes"/>
      <point x="828" y="-41"/>
      <point x="998" y="297"/>
      <point x="1014" y="522" type="curve" smooth="yes"/>
      <point x="1033" y="784"/>
      <point x="931" y="871"/>
      <point x="767" y="868" type="curve"/>
      <point x="970" y="990"/>
      <point x="1055" y="1144"/>
    </contour>
    <contour>
      <point x="812" y="1207" type="curve" smooth="yes"/>
      <point x="801" y="1041"/>
      <point x="609" y="854"/>
      <point x="316" y="807" type="curve"/>
      <point x="302" y="614" type="line"/>
      <point x="611" y="807"/>
      <point x="798" y="793"/>
      <point x="771" y="440" type="curve"/>
      <point x="761" y="276"/>
      <point x="673" y="105"/>
      <point x="537" y="105" type="curve" smooth="yes"/>
      <point x="399" y="105"/>
      <point x="348" y="396"/>
      <point x="370" y="613" type="curve" smooth="yes"/>
      <point x="405" y="961"/>
      <point x="561" y="1366"/>
      <point x="715" y="1366" type="curve" smooth="yes"/>
      <point x="771" y="1366"/>
      <point x="820" y="1333"/>
    </contour>
  </outline>
</glyph>
<glyph name="GrArchaicKoppa" format="1">
  <advance width="1174"/>
  <unicode hex="03D8"/>
  <outline>
    <contour>
      <point x="1155" y="825" type="curve" smooth="yes"/>
      <point x="1194" y="1098"/>
      <point x="1015" y="1290"/>
      <point x="741" y="1290" type="curve" smooth="yes"/>
      <point x="458" y="1290"/>
      <point x="187" y="1049"/>
      <point x="150" y="784" type="curve" smooth="yes"/>
      <point x="111" y="512"/>
      <point x="304" y="320"/>
      <point x="555" y="320" type="curve" smooth="yes"/>
      <point x="841" y="320"/>
      <point x="1118" y="559"/>
    </contour>
    <contour>
      <point x="876" y="795" type="curve" smooth="yes"/>
      <point x="844" y="567"/>
      <point x="731" y="450"/>
      <point x="632" y="450" type="curve" smooth="yes"/>
      <point x="503" y="450"/>
      <point x="399" y="602"/>
      <point x="429" y="813" type="curve" smooth="yes"/>
      <point x="459" y="1026"/>
      <point x="560" y="1160"/>
      <point x="684" y="1160" type="curve" smooth="yes"/>
      <point x="821" y="1160"/>
      <point x="906" y="1006"/>
    </contour>
    <contour>
      <point x="807" y="0" type="line"/>
      <point x="818" y="83" type="line"/>
      <point x="725" y="101"/>
      <point x="689" y="128"/>
      <point x="692" y="144" type="curve"/>
      <point x="721" y="355" type="line" smooth="yes"/>
      <point x="732" y="433"/>
      <point x="472" y="434"/>
      <point x="461" y="355" type="curve" smooth="yes"/>
      <point x="432" y="144" type="line" smooth="yes"/>
      <point x="429" y="126"/>
      <point x="381" y="101"/>
      <point x="288" y="83" type="curve"/>
      <point x="277" y="0" type="line"/>
    </contour>
    <contour>
      <point x="499" y="0" type="move" name="O"/>
    </contour>
    <contour>
      <point x="999" y="1250" type="move" name="R"/>
    </contour>
    <contour>
      <point x="337" y="1370" type="move" name="U"/>
    </contour>
    <contour>
      <point x="444" y="-100" type="move" name="L"/>
    </contour>
  </outline>
</glyph>
<glyph name="GrSmDigamma" format="1">
  <advance width="942"/>
  <unicode hex="03DD"/>
  <outline>
    <contour>
      <point x="401" y="626" type="curve" smooth="yes"/>
      <point x="417" y="757"/>
      <point x="463" y="796"/>
      <point x="556" y="796" type="curve" smooth="yes"/>
      <point x="628" y="796"/>
      <point x="745" y="659"/>
      <point x="801" y="659" type="curve" smooth="yes"/>
      <point x="830" y="659"/>
      <point x="912" y="774"/>
      <point x="972" y="862" type="curve"/>
      <point x="964" y="875"/>
      <point x="949" y="903"/>
      <point x="937" y="909" type="curve"/>
      <point x="825" y="889"/>
      <point x="764" y="936"/>
      <point x="619" y="936" type="curve" smooth="yes"/>
      <point x="468" y="936"/>
      <point x="184" y="854"/>
      <point x="136" y="537" type="curve" smooth="yes"/>
      <point x="54" y="-5"/>
      <point x="18" y="-314"/>
      <point x="0" y="-461" type="curve"/>
      <point x="53" y="-500" type="line"/>
      <point x="87" y="-484"/>
      <point x="267" y="-440"/>
      <point x="309" y="-427" type="curve"/>
      <point x="267" y="-350"/>
      <point x="336" y="96"/>
    </contour>
    <contour>
      <point x="847" y="447" type="curve"/>
      <point x="807" y="495" type="line"/>
      <point x="332" y="495" type="line"/>
      <point x="311" y="397" type="line"/>
      <point x="326" y="366" type="line"/>
      <point x="537" y="365" type="line" smooth="yes"/>
      <point x="637" y="365"/>
      <point x="684" y="357"/>
      <point x="700" y="320" type="curve"/>
      <point x="725" y="334"/>
      <point x="820" y="410"/>
    </contour>
  </outline>
</glyph>
<glyph name="CyCapNje" format="1">
  <advance width="1616"/>
  <unicode hex="040A"/>
  <outline>
    <contour>
      <point x="1049" y="0" type="line"/>
      <point x="1054" y="43" type="line"/>
      <point x="971" y="61"/>
      <point x="930" y="88"/>
      <point x="932" y="104" type="curve" smooth="yes"/>
      <point x="1076" y="1155" type="line" smooth="yes"/>
      <point x="1078" y="1174"/>
      <point x="1132" y="1198"/>
      <point x="1215" y="1217" type="curve"/>
      <point x="1221" y="1260" type="line"/>
      <point x="816" y="1260" type="line"/>
      <point x="810" y="1217" type="line"/>
      <point x="894" y="1198"/>
      <point x="934" y="1171"/>
      <point x="932" y="1155" type="curve" smooth="yes"/>
      <point x="788" y="104" type="line" smooth="yes"/>
      <point x="785" y="86"/>
      <point x="733" y="61"/>
      <point x="649" y="43" type="curve"/>
      <point x="644" y="0" type="line"/>
    </contour>
    <contour>
      <point x="876" y="615" type="line"/>
      <point x="888" y="705" type="line"/>
      <point x="350" y="705" type="line"/>
      <point x="338" y="615" type="line"/>
    </contour>
    <contour>
      <point x="410" y="0" type="line"/>
      <point x="415" y="43" type="line"/>
      <point x="331" y="61"/>
      <point x="291" y="88"/>
      <point x="293" y="104" type="curve" smooth="yes"/>
      <point x="437" y="1155" type="line" smooth="yes"/>
      <point x="439" y="1174"/>
      <point x="493" y="1198"/>
      <point x="576" y="1217" type="curve"/>
      <point x="582" y="1260" type="line"/>
      <point x="177" y="1260" type="line"/>
      <point x="171" y="1217" type="line"/>
      <point x="255" y="1198"/>
      <point x="295" y="1171"/>
      <point x="293" y="1155" type="curve" smooth="yes"/>
      <point x="149" y="104" type="line" smooth="yes"/>
      <point x="146" y="86"/>
      <point x="94" y="61"/>
      <point x="10" y="43" type="curve"/>
      <point x="5" y="0" type="line"/>
    </contour>
    <contour>
      <point x="1541" y="336" type="curve" smooth="yes"/>
      <point x="1571" y="561"/>
      <point x="1445" y="720"/>
      <point x="1182" y="720" type="curve" smooth="yes"/>
      <point x="1091" y="720"/>
      <point x="1002" y="706"/>
      <point x="936" y="686" type="curve"/>
      <point x="935" y="608" type="line"/>
      <point x="993" y="618"/>
      <point x="1056" y="630"/>
      <point x="1135" y="630" type="curve" smooth="yes"/>
      <point x="1344" y="630"/>
      <point x="1409" y="449"/>
      <point x="1389" y="302" type="curve" smooth="yes"/>
      <point x="1368" y="152"/>
      <point x="1246" y="70"/>
      <point x="1073" y="70" type="curve" smooth="yes"/>
      <point x="1019" y="70"/>
      <point x="956" y="76"/>
      <point x="922" y="98" type="curve"/>
      <point x="692" y="0" type="line"/>
      <point x="692" y="0"/>
      <point x="977" y="-14"/>
      <point x="1082" y="-14" type="curve" smooth="yes"/>
      <point x="1325" y="-14"/>
      <point x="1509" y="109"/>
    </contour>
    <contour>
      <point x="713" y="1320" type="move" name="U"/>
    </contour>
    <contour>
      <point x="716" y="-100" type="move" name="L"/>
    </contour>
  </outline>
</glyph>
<glyph name="CyCapBe" format="1">
  <advance width="1013"/>
  <unicode hex="0411"/>
  <outline>
    <contour>
      <point x="922" y="356" type="curve"/>
      <point x="953" y="581"/>
      <point x="827" y="740"/>
      <point x="564" y="740" type="curve" smooth="yes"/>
      <point x="473" y="740"/>
      <point x="384" y="725"/>
      <point x="318" y="705" type="curve"/>
      <point x="316" y="627" type="line"/>
      <point x="375" y="637"/>
      <point x="438" y="650"/>
      <point x="517" y="650" type="curve" smooth="yes"/>
      <point x="726" y="650"/>
      <point x="791" y="469"/>
      <point x="771" y="322" type="curve" smooth="yes"/>
      <point x="750" y="172"/>
      <point x="625" y="70"/>
      <point x="452" y="70" type="curve" smooth="yes"/>
      <point x="398" y="70"/>
      <point x="317" y="76"/>
      <point x="283" y="98" type="curve"/>
      <point x="71" y="0" type="line"/>
      <point x="71" y="0"/>
      <point x="356" y="-14"/>
      <point x="461" y="-14" type="curve" smooth="yes"/>
      <point x="704" y="-14"/>
      <point x="891" y="129"/>
    </contour>
    <contour>
      <point x="438" y="0" type="line"/>
      <point x="443" y="43" type="line"/>
      <point x="303" y="70"/>
      <point x="290" y="86"/>
      <point x="293" y="104" type="curve" smooth="yes"/>
      <point x="440" y="1177" type="line" smooth="yes"/>
      <point x="442" y="1195"/>
      <point x="493" y="1198"/>
      <point x="576" y="1217" type="curve"/>
      <point x="582" y="1260" type="line"/>
      <point x="431" y="1260" type="line"/>
      <point x="177" y="1260" type="line"/>
      <point x="171" y="1217" type="line"/>
      <point x="255" y="1198"/>
      <point x="295" y="1171"/>
      <point x="293" y="1155" type="curve" smooth="yes"/>
      <point x="149" y="104" type="line" smooth="yes"/>
      <point x="146" y="86"/>
      <point x="94" y="61"/>
      <point x="10" y="43" type="curve"/>
      <point x="5" y="0" type="line"/>
    </contour>
    <contour>
      <point x="939" y="1235" type="curve"/>
      <point x="912" y="1260" type="line"/>
      <point x="431" y="1260" type="line"/>
      <point x="393" y="1170" type="line"/>
      <point x="769" y="1170" type="line" smooth="yes"/>
      <point x="813" y="1170"/>
      <point x="822" y="1083"/>
      <point x="811" y="960" type="curve"/>
      <point x="851" y="960" type="line"/>
      <point x="873" y="1011"/>
      <point x="925" y="1167"/>
    </contour>
    <contour>
      <point x="621" y="1320" type="move" name="U"/>
    </contour>
    <contour>
      <point x="439" y="-100" type="move" name="L"/>
    </contour>
  </outline>
</glyph>
<glyph name="CyCapVe" format="1">
  <advance width="1014"/>
  <unicode hex="0412"/>
  <outline>
    <contour>
      <point x="934" y="410" type="curve"/>
      <point x="934" y="569"/>
      <point x="842" y="672"/>
      <point x="707" y="703" type="curve"/>
      <point x="834" y="754"/>
      <point x="928" y="901"/>
      <point x="928" y="1040" type="curve" smooth="yes"/>
      <point x="928" y="1196"/>
      <point x="793" y="1290"/>
      <point x="578" y="1290" type="curve" smooth="yes"/>
      <point x="393" y="1290"/>
      <point x="264" y="1262"/>
      <point x="141" y="1227" type="curve"/>
      <point x="141" y="1165" type="line"/>
      <point x="242" y="1188"/>
      <point x="336" y="1206"/>
      <point x="551" y="1206" type="curve" smooth="yes"/>
      <point x="643" y="1206"/>
      <point x="772" y="1151"/>
      <point x="772" y="987" type="curve" smooth="yes"/>
      <point x="772" y="774"/>
      <point x="598" y="705"/>
      <point x="410" y="705" type="curve" smooth="yes"/>
      <point x="319" y="705" type="line"/>
      <point x="315" y="607" type="line"/>
      <point x="375" y="617"/>
      <point x="438" y="629"/>
      <point x="518" y="629" type="curve" smooth="yes"/>
      <point x="705" y="629"/>
      <point x="778" y="508"/>
      <point x="778" y="375" type="curve" smooth="yes"/>
      <point x="778" y="213"/>
      <point x="662" y="53"/>
      <point x="487" y="53" type="curve" smooth="yes"/>
      <point x="422" y="53"/>
      <point x="330" y="63"/>
      <point x="283" y="98" type="curve"/>
      <point x="66" y="0" type="line"/>
      <point x="66" y="0"/>
      <point x="354" y="-31"/>
      <point x="461" y="-31" type="curve" smooth="yes"/>
      <point x="715" y="-31"/>
      <point x="934" y="150"/>
    </contour>
    <contour>
      <point x="451" y="1260" type="line"/>
      <point x="305" y="1260" type="line"/>
      <point x="147" y="104" type="line" smooth="yes"/>
      <point x="145" y="86"/>
      <point x="90" y="61"/>
      <point x="6" y="43" type="curve"/>
      <point x="0" y="0" type="line"/>
      <point x="410" y="0" type="line"/>
      <point x="416" y="43" type="line"/>
      <point x="332" y="61"/>
      <point x="289" y="88"/>
      <point x="293" y="104" type="curve"/>
    </contour>
    <contour>
      <point x="608" y="1320" type="move" name="U"/>
    </contour>
    <contour>
      <point x="413" y="-100" type="move" name="L"/>
    </contour>
  </outline>
</glyph>
<glyph name="CyCapTe" format="1">
  <advance width="1067"/>
  <unicode hex="0422"/>
  <outline>
    <contour>
      <point x="1118" y="1235" type="curve"/>
      <point x="1096" y="1260" type="line"/>
      <point x="633" y="1260" type="line"/>
      <point x="594" y="1169" type="line"/>
      <point x="940" y="1169" type="line" smooth="yes"/>
      <point x="994" y="1169"/>
      <point x="1012" y="1100"/>
      <point x="1009" y="949" type="curve"/>
      <point x="1050" y="949" type="line"/>
      <point x="1072" y="1015"/>
      <point x="1108" y="1171"/>
    </contour>
    <contour>
      <point x="758" y="1169" type="line"/>
      <point x="743" y="1260" type="line"/>
      <point x="174" y="1260" type="line"/>
      <point x="150" y="1194"/>
      <point x="110" y="1033"/>
      <point x="102" y="964" type="curve"/>
      <point x="139" y="945" type="line"/>
      <point x="217" y="1123"/>
      <point x="254" y="1169"/>
      <point x="289" y="1169" type="curve" smooth="yes"/>
    </contour>
    <contour>
      <point x="840" y="1260" type="line"/>
      <point x="430" y="1260" type="line"/>
      <point x="424" y="1217" type="line"/>
      <point x="510" y="1198"/>
      <point x="553" y="1192"/>
      <point x="551" y="1176" type="curve" smooth="yes"/>
      <point x="403" y="115" type="line" smooth="yes"/>
      <point x="401" y="96"/>
      <point x="358" y="68"/>
      <point x="244" y="43" type="curve"/>
      <point x="238" y="0" type="line"/>
      <point x="684" y="0" type="line"/>
      <point x="690" y="43" type="line"/>
      <point x="582" y="68"/>
      <point x="547" y="98"/>
      <point x="549" y="115" type="curve" smooth="yes"/>
      <point x="694" y="1176" type="line"/>
      <point x="698" y="1194"/>
      <point x="750" y="1198"/>
      <point x="834" y="1217" type="curve"/>
    </contour>
    <contour>
      <point x="641" y="1320" type="move" name="U"/>
    </contour>
    <contour>
      <point x="447" y="-100" type="move" name="L"/>
    </contour>
  </outline>
</glyph>
<glyph name="CyCapHardSgn" format="1">
  <advance width="1245"/>
  <unicode hex="042A"/>
  <outline>
    <contour>
      <point x="1172" y="356" type="curve"/>
      <point x="1203" y="581"/>
      <point x="1076" y="739"/>
      <point x="813" y="739" type="curve" smooth="yes"/>
      <point x="722" y="739"/>
      <point x="633" y="725"/>
      <point x="567" y="705" type="curve"/>
      <point x="565" y="627" type="line"/>
      <point x="625" y="637"/>
      <point x="686" y="649"/>
      <point x="765" y="649" type="curve" smooth="yes"/>
      <point x="974" y="649"/>
      <point x="1040" y="469"/>
      <point x="1020" y="322" type="curve" smooth="yes"/>
      <point x="999" y="172"/>
      <point x="874" y="70"/>
      <point x="702" y="70" type="curve" smooth="yes"/>
      <point x="648" y="70"/>
      <point x="585" y="76"/>
      <point x="551" y="98" type="curve"/>
      <point x="320" y="0" type="line"/>
      <point x="320" y="0"/>
      <point x="605" y="-14"/>
      <point x="710" y="-14" type="curve" smooth="yes"/>
      <point x="953" y="-14"/>
      <point x="1141" y="129"/>
    </contour>
    <contour>
      <point x="677" y="0" type="line"/>
      <point x="682" y="43" type="line"/>
      <point x="599" y="61"/>
      <point x="559" y="88"/>
      <point x="561" y="104" type="curve" smooth="yes"/>
      <point x="705" y="1155" type="line" smooth="yes"/>
      <point x="707" y="1174"/>
      <point x="787" y="1198"/>
      <point x="870" y="1217" type="curve"/>
      <point x="876" y="1260" type="line"/>
      <point x="444" y="1260" type="line"/>
      <point x="438" y="1217" type="line"/>
      <point x="528" y="1216"/>
      <point x="567" y="1201"/>
      <point x="565" y="1185" type="curve" smooth="yes"/>
      <point x="417" y="104" type="line" smooth="yes"/>
      <point x="414" y="86"/>
      <point x="361" y="61"/>
      <point x="277" y="43" type="curve"/>
      <point x="272" y="0" type="line"/>
    </contour>
    <contour>
      <point x="646" y="1170" type="line"/>
      <point x="741" y="1260" type="line"/>
      <point x="187" y="1260" type="line"/>
      <point x="163" y="1190"/>
      <point x="111" y="990"/>
      <point x="98" y="912" type="curve"/>
      <point x="134" y="893" type="line"/>
      <point x="221" y="1100"/>
      <point x="273" y="1170"/>
      <point x="319" y="1170" type="curve" smooth="yes"/>
    </contour>
    <contour>
      <point x="660" y="1320" type="move" name="U"/>
    </contour>
    <contour>
      <point x="468" y="-100" type="move" name="L"/>
    </contour>
  </outline>
</glyph>
<glyph name="CyCapSoftSgn" format="1">
  <advance width="995"/>
  <unicode hex="042C"/>
  <outline>
    <contour>
      <point x="922" y="356" type="curve"/>
      <point x="953" y="581"/>
      <point x="827" y="739"/>
      <point x="564" y="739" type="curve" smooth="yes"/>
      <point x="473" y="739"/>
      <point x="384" y="725"/>
      <point x="318" y="705" type="curve"/>
      <point x="316" y="627" type="line"/>
      <point x="375" y="637"/>
      <point x="437" y="649"/>
      <point x="516" y="649" type="curve" smooth="yes"/>
      <point x="725" y="649"/>
      <point x="791" y="469"/>
      <point x="771" y="322" type="curve" smooth="yes"/>
      <point x="750" y="172"/>
      <point x="625" y="70"/>
      <point x="452" y="70" type="curve" smooth="yes"/>
      <point x="398" y="70"/>
      <point x="317" y="76"/>
      <point x="283" y="98" type="curve"/>
      <point x="71" y="0" type="line"/>
      <point x="71" y="0"/>
      <point x="356" y="-14"/>
      <point x="461" y="-14" type="curve" smooth="yes"/>
      <point x="704" y="-14"/>
      <point x="891" y="129"/>
    </contour>
    <contour>
      <point x="410" y="0" type="line"/>
      <point x="415" y="43" type="line"/>
      <point x="332" y="61"/>
      <point x="291" y="88"/>
      <point x="293" y="104" type="curve" smooth="yes"/>
      <point x="437" y="1155" type="line" smooth="yes"/>
      <point x="439" y="1174"/>
      <point x="520" y="1198"/>
      <point x="603" y="1217" type="curve"/>
      <point x="609" y="1260" type="line"/>
      <point x="177" y="1260" type="line"/>
      <point x="171" y="1217" type="line"/>
      <point x="255" y="1198"/>
      <point x="295" y="1171"/>
      <point x="293" y="1155" type="curve" smooth="yes"/>
      <point x="149" y="104" type="line" smooth="yes"/>
      <point x="146" y="86"/>
      <point x="94" y="61"/>
      <point x="10" y="43" type="curve"/>
      <point x="5" y="0" type="line"/>
    </contour>
    <contour>
      <point x="624" y="1320" type="move" name="U"/>
    </contour>
    <contour>
      <point x="440" y="-100" type="move" name="L"/>
    </contour>
  </outline>
</glyph>
<glyph name="CyCapE" format="1">
  <advance width="1030"/>
  <unicode hex="042D"/>
  <outline>
    <contour>
      <point x="999" y="658" type="curve" smooth="yes"/>
      <point x="1055" y="1065"/>
      <point x="911" y="1290"/>
      <point x="632" y="1290" type="curve" smooth="yes"/>
      <point x="510" y="1290"/>
      <point x="355" y="1252"/>
      <point x="238" y="1186" type="curve" smooth="yes"/>
      <point x="229" y="1181"/>
      <point x="214" y="939"/>
      <point x="226" y="933" type="curve"/>
      <point x="265" y="941" type="line"/>
      <point x="330" y="1152"/>
      <point x="503" y="1191"/>
      <point x="556" y="1191" type="curve" smooth="yes"/>
      <point x="782" y="1191"/>
      <point x="896" y="995"/>
      <point x="845" y="621" type="curve" smooth="yes"/>
      <point x="785" y="185"/>
      <point x="620" y="84"/>
      <point x="451" y="84" type="curve" smooth="yes"/>
      <point x="304" y="84"/>
      <point x="200" y="148"/>
      <point x="160" y="329" type="curve"/>
      <point x="122" y="334" type="line"/>
      <point x="84" y="211"/>
      <point x="77" y="87"/>
      <point x="87" y="78" type="curve"/>
      <point x="150" y="24"/>
      <point x="250" y="-30"/>
      <point x="394" y="-30" type="curve" smooth="yes"/>
      <point x="688" y="-30"/>
      <point x="939" y="218"/>
    </contour>
    <contour>
      <point x="941" y="662" type="line"/>
      <point x="916" y="705" type="line"/>
      <point x="623" y="705" type="line" smooth="yes"/>
      <point x="541" y="705"/>
      <point x="467" y="712"/>
      <point x="395" y="728" type="curve"/>
      <point x="382" y="707"/>
      <point x="327" y="615"/>
      <point x="321" y="595" type="curve"/>
      <point x="343" y="564" type="line"/>
      <point x="411" y="589"/>
      <point x="512" y="615"/>
      <point x="621" y="615" type="curve" smooth="yes"/>
      <point x="915" y="615" type="line"/>
    </contour>
    <contour>
      <point x="637" y="1320" type="move" name="U"/>
    </contour>
    <contour>
      <point x="442" y="-100" type="move" name="L"/>
    </contour>
  </outline>
</glyph>
<glyph name="CyCapYa" format="1">
  <advance width="1061"/>
  <unicode hex="042F"/>
  <outline>
    <contour>
      <point x="281" y="947" type="curve"/>
      <point x="246" y="691"/>
      <point x="431" y="615"/>
      <point x="672" y="615" type="curve" smooth="yes"/>
      <point x="705" y="615"/>
      <point x="796" y="615"/>
      <point x="796" y="615" type="curve"/>
      <point x="814" y="705" type="line"/>
      <point x="814" y="705"/>
      <point x="730" y="705"/>
      <point x="699" y="705" type="curve" smooth="yes"/>
      <point x="501" y="705"/>
      <point x="398" y="790"/>
      <point x="422" y="966" type="curve" smooth="yes"/>
      <point x="442" y="1112"/>
      <point x="556" y="1206"/>
      <point x="779" y="1206" type="curve" smooth="yes"/>
      <point x="885" y="1206"/>
      <point x="1015" y="1189"/>
      <point x="1135" y="1168" type="curve"/>
      <point x="1152" y="1230" type="line"/>
      <point x="1044" y="1261"/>
      <point x="915" y="1290"/>
      <point x="784" y="1290" type="curve" smooth="yes"/>
      <point x="470" y="1290"/>
      <point x="305" y="1119"/>
    </contour>
    <contour>
      <point x="976" y="0" type="line"/>
      <point x="981" y="43" type="line"/>
      <point x="903" y="61"/>
      <point x="857" y="86"/>
      <point x="860" y="104" type="curve" smooth="yes"/>
      <point x="1013" y="1221" type="line"/>
      <point x="869" y="1221" type="line"/>
      <point x="716" y="104" type="line" smooth="yes"/>
      <point x="714" y="88"/>
      <point x="666" y="61"/>
      <point x="576" y="43" type="curve"/>
      <point x="571" y="0" type="line"/>
    </contour>
    <contour>
      <point x="-56" y="104" type="line"/>
      <point x="25" y="30"/>
      <point x="104" y="-14"/>
      <point x="151" y="-14" type="curve" smooth="yes"/>
      <point x="203" y="-14"/>
      <point x="236" y="11"/>
      <point x="256" y="41" type="curve"/>
      <point x="633" y="632" type="line"/>
      <point x="550" y="704" type="line"/>
      <point x="151" y="159" type="line"/>
      <point x="112" y="106"/>
      <point x="71" y="103"/>
      <point x="-30" y="145" type="curve"/>
    </contour>
    <contour>
      <point x="725" y="1320" type="move" name="U"/>
    </contour>
    <contour>
      <point x="490" y="-100" type="move" name="L"/>
    </contour>
  </outline>
</glyph>
<glyph name="CySmI" format="1">
  <advance width="1022"/>
  <unicode hex="0438"/>
  <outline>
    <contour>
      <point x="652" y="194" type="curve" smooth="yes"/>
      <point x="652" y="153"/>
      <point x="658" y="-41"/>
      <point x="742" y="-41" type="curve" smooth="yes"/>
      <point x="775" y="-41"/>
      <point x="849" y="-17"/>
      <point x="974" y="68" type="curve"/>
      <point x="960" y="104" type="line"/>
      <point x="905" y="84"/>
      <point x="867" y="76"/>
      <point x="845" y="76" type="curve" smooth="yes"/>
      <point x="823" y="76"/>
      <point x="794" y="121"/>
      <point x="794" y="243" type="curve" smooth="yes"/>
      <point x="794" y="348"/>
      <point x="840" y="623"/>
      <point x="897" y="905" type="curve"/>
      <point x="864" y="936" type="line"/>
      <point x="831" y="918"/>
      <point x="761" y="887"/>
      <point x="721" y="870" type="curve"/>
      <point x="728" y="806"/>
      <point x="717" y="718"/>
      <point x="697" y="570" type="curve" smooth="yes"/>
      <point x="660" y="293"/>
      <point x="439" y="80"/>
      <point x="352" y="80" type="curve" smooth="yes"/>
      <point x="303" y="80"/>
      <point x="274" y="135"/>
      <point x="274" y="262" type="curve" smooth="yes"/>
      <point x="274" y="379"/>
      <point x="354" y="735"/>
      <point x="354" y="852" type="curve" smooth="yes"/>
      <point x="354" y="913"/>
      <point x="344" y="936"/>
      <point x="305" y="936" type="curve" smooth="yes"/>
      <point x="272" y="936"/>
      <point x="152" y="891"/>
      <point x="39" y="840" type="curve"/>
      <point x="51" y="803" type="line"/>
      <point x="51" y="803"/>
      <point x="131" y="827"/>
      <point x="154" y="827" type="curve" smooth="yes"/>
      <point x="178" y="827"/>
      <point x="195" y="821"/>
      <point x="195" y="760" type="curve" smooth="yes"/>
      <point x="195" y="662"/>
      <point x="121" y="324"/>
      <point x="121" y="205" type="curve" smooth="yes"/>
      <point x="121" y="43"/>
      <point x="210" y="-41"/>
      <point x="268" y="-41" type="curve" smooth="yes"/>
      <point x="390" y="-41"/>
      <point x="530" y="86"/>
      <point x="655" y="256" type="curve"/>
      <point x="652" y="223"/>
      <point x="652" y="232"/>
    </contour>
    <contour>
      <point x="581" y="1000" type="move" name="U"/>
    </contour>
    <contour>
      <point x="430" y="-100" type="move" name="L"/>
    </contour>
  </outline>
</glyph>
<glyph name="CySmKa" format="1">
  <advance width="982"/>
  <unicode hex="043A"/>
  <outline>
    <contour>
      <point x="931" y="895" type="curve" smooth="yes"/>
      <point x="902" y="919"/>
      <point x="866" y="936"/>
      <point x="823" y="936" type="curve" smooth="yes"/>
      <point x="724" y="936"/>
      <point x="578" y="836"/>
      <point x="291" y="426" type="curve"/>
      <point x="317" y="510"/>
      <point x="348" y="774"/>
      <point x="348" y="823" type="curve" smooth="yes"/>
      <point x="348" y="918"/>
      <point x="346" y="936"/>
      <point x="309" y="936" type="curve" smooth="yes"/>
      <point x="276" y="936"/>
      <point x="154" y="891"/>
      <point x="41" y="842" type="curve"/>
      <point x="55" y="803" type="line"/>
      <point x="55" y="803"/>
      <point x="139" y="829"/>
      <point x="162" y="829" type="curve" smooth="yes"/>
      <point x="186" y="829"/>
      <point x="199" y="823"/>
      <point x="199" y="762" type="curve" smooth="yes"/>
      <point x="199" y="668"/>
      <point x="133" y="242"/>
      <point x="66" y="-10" type="curve"/>
      <point x="98" y="-41" type="line"/>
      <point x="131" y="-24"/>
      <point x="197" y="4"/>
      <point x="233" y="20" type="curve"/>
      <point x="237" y="255"/>
      <point x="335" y="365"/>
      <point x="434" y="496" type="curve" smooth="yes"/>
      <point x="612" y="733"/>
      <point x="712" y="794"/>
      <point x="773" y="794" type="curve" smooth="yes"/>
      <point x="810" y="794"/>
      <point x="853" y="754"/>
      <point x="847" y="627" type="curve"/>
      <point x="860" y="621"/>
      <point x="872" y="618"/>
      <point x="885" y="616" type="curve"/>
      <point x="927" y="758"/>
      <point x="944" y="885"/>
    </contour>
    <contour>
      <point x="910" y="230" type="curve"/>
      <point x="898" y="246"/>
      <point x="893" y="248"/>
      <point x="877" y="258" type="curve"/>
      <point x="842" y="205"/>
      <point x="791" y="135"/>
      <point x="748" y="135" type="curve" smooth="yes"/>
      <point x="650" y="135"/>
      <point x="626" y="535"/>
      <point x="505" y="535" type="curve" smooth="yes"/>
      <point x="471" y="535"/>
      <point x="402" y="537"/>
      <point x="237" y="224" type="curve"/>
      <point x="249" y="200"/>
      <point x="262" y="212"/>
      <point x="262" y="212" type="curve"/>
      <point x="295" y="314"/>
      <point x="373" y="441"/>
      <point x="421" y="441" type="curve" smooth="yes"/>
      <point x="520" y="441"/>
      <point x="553" y="-41"/>
      <point x="691" y="-41" type="curve" smooth="yes"/>
      <point x="768" y="-41"/>
      <point x="854" y="117"/>
    </contour>
    <contour>
      <point x="580" y="1000" type="move" name="U"/>
    </contour>
    <contour>
      <point x="400" y="-100" type="move" name="L"/>
    </contour>
  </outline>
</glyph>
<glyph name="CySmEl" format="1">
  <advance width="1011"/>
  <unicode hex="043B"/>
  <outline>
    <contour>
      <point x="61" y="279" type="line"/>
      <point x="34" y="202"/>
      <point x="-1" y="12"/>
      <point x="15" y="0" type="curve" smooth="yes"/>
      <point x="37" y="-16"/>
      <point x="78" y="-41"/>
      <point x="131" y="-41" type="curve" smooth="yes"/>
      <point x="241" y="-41"/>
      <point x="299" y="50"/>
      <point x="401" y="350" type="curve" smooth="yes"/>
      <point x="542" y="763"/>
      <point x="544" y="799"/>
      <point x="654" y="800" type="curve" smooth="yes"/>
      <point x="673" y="800"/>
      <point x="740" y="800"/>
      <point x="740" y="800" type="curve"/>
      <point x="740" y="800"/>
      <point x="882" y="938"/>
      <point x="872" y="936" type="curve"/>
      <point x="832" y="936"/>
      <point x="756" y="936"/>
      <point x="721" y="936" type="curve" smooth="yes"/>
      <point x="511" y="936"/>
      <point x="419" y="713"/>
      <point x="343" y="501" type="curve" smooth="yes"/>
      <point x="218" y="152"/>
      <point x="165" y="121"/>
      <point x="129" y="121" type="curve" smooth="yes"/>
      <point x="103" y="121"/>
      <point x="97" y="173"/>
      <point x="99" y="268" type="curve"/>
    </contour>
    <contour>
      <point x="659" y="143" type="curve" smooth="yes"/>
      <point x="659" y="102"/>
      <point x="666" y="-41"/>
      <point x="750" y="-41" type="curve" smooth="yes"/>
      <point x="783" y="-41"/>
      <point x="857" y="-17"/>
      <point x="982" y="68" type="curve"/>
      <point x="968" y="104" type="line"/>
      <point x="913" y="84"/>
      <point x="875" y="76"/>
      <point x="853" y="76" type="curve" smooth="yes"/>
      <point x="831" y="76"/>
      <point x="800" y="104"/>
      <point x="800" y="200" type="curve" smooth="yes"/>
      <point x="800" y="305"/>
      <point x="848" y="623"/>
      <point x="905" y="905" type="curve"/>
      <point x="872" y="936" type="line"/>
      <point x="872" y="936"/>
      <point x="774" y="889"/>
      <point x="739" y="870" type="curve"/>
      <point x="746" y="806"/>
      <point x="715" y="630"/>
      <point x="695" y="492" type="curve" smooth="yes"/>
      <point x="675" y="357"/>
      <point x="659" y="246"/>
    </contour>
    <contour>
      <point x="661" y="1000" type="move" name="U"/>
    </contour>
    <contour>
      <point x="450" y="-100" type="move" name="L"/>
    </contour>
  </outline>
</glyph>
<glyph name="CySmEm" format="1">
  <advance width="1314"/>
  <unicode hex="043C"/>
  <outline>
    <contour>
      <point x="1128" y="866" type="curve"/>
      <point x="1087" y="840"/>
      <point x="1098" y="892"/>
      <point x="1032" y="869" type="curve"/>
      <point x="964" y="774"/>
      <point x="810" y="552"/>
      <point x="683" y="299" type="curve"/>
      <point x="648" y="453"/>
      <point x="567" y="707"/>
      <point x="518" y="809" type="curve" smooth="yes"/>
      <point x="476" y="897"/>
      <point x="457" y="936"/>
      <point x="428" y="936" type="curve" smooth="yes"/>
      <point x="395" y="936"/>
      <point x="297" y="891"/>
      <point x="184" y="840" type="curve"/>
      <point x="197" y="803" type="line"/>
      <point x="197" y="803"/>
      <point x="270" y="827"/>
      <point x="295" y="827" type="curve" smooth="yes"/>
      <point x="318" y="827"/>
      <point x="367" y="814"/>
      <point x="397" y="745" type="curve" smooth="yes"/>
      <point x="451" y="623"/>
      <point x="541" y="349"/>
      <point x="568" y="124" type="curve"/>
      <point x="600" y="93" type="line"/>
      <point x="627" y="105"/>
      <point x="662" y="124"/>
      <point x="685" y="136" type="curve"/>
      <point x="843" y="443"/>
      <point x="980" y="687"/>
    </contour>
    <contour>
      <point x="962" y="143" type="curve" smooth="yes"/>
      <point x="962" y="102"/>
      <point x="969" y="-41"/>
      <point x="1053" y="-41" type="curve" smooth="yes"/>
      <point x="1086" y="-41"/>
      <point x="1160" y="-17"/>
      <point x="1285" y="68" type="curve"/>
      <point x="1271" y="104" type="line"/>
      <point x="1216" y="84"/>
      <point x="1178" y="76"/>
      <point x="1156" y="76" type="curve" smooth="yes"/>
      <point x="1134" y="76"/>
      <point x="1103" y="104"/>
      <point x="1103" y="200" type="curve" smooth="yes"/>
      <point x="1103" y="305"/>
      <point x="1151" y="623"/>
      <point x="1208" y="905" type="curve"/>
      <point x="1175" y="936" type="line"/>
      <point x="1142" y="918"/>
      <point x="1067" y="889"/>
      <point x="1032" y="870" type="curve"/>
      <point x="1039" y="806"/>
      <point x="1018" y="630"/>
      <point x="998" y="492" type="curve" smooth="yes"/>
      <point x="978" y="357"/>
      <point x="962" y="246"/>
    </contour>
    <contour>
      <point x="61" y="279" type="line"/>
      <point x="34" y="202"/>
      <point x="-1" y="12"/>
      <point x="15" y="0" type="curve" smooth="yes"/>
      <point x="37" y="-16"/>
      <point x="68" y="-41"/>
      <point x="121" y="-41" type="curve" smooth="yes"/>
      <point x="221" y="-41"/>
      <point x="316" y="92"/>
      <point x="365" y="435" type="curve" smooth="yes"/>
      <point x="385" y="575"/>
      <point x="403" y="724"/>
      <point x="424" y="864" type="curve"/>
      <point x="424" y="864"/>
      <point x="365" y="854"/>
      <point x="345" y="842" type="curve"/>
      <point x="317" y="659"/>
      <point x="293" y="489"/>
      <point x="261" y="347" type="curve" smooth="yes"/>
      <point x="220" y="166"/>
      <point x="165" y="121"/>
      <point x="129" y="121" type="curve" smooth="yes"/>
      <point x="103" y="121"/>
      <point x="97" y="173"/>
      <point x="99" y="268" type="curve"/>
    </contour>
    <contour>
      <point x="768" y="1000" type="move" name="U"/>
    </contour>
    <contour>
      <point x="614" y="-100" type="move" name="L"/>
    </contour>
  </outline>
</glyph>
<glyph name="CySmHardSgn" format="1">
  <advance width="909"/>
  <unicode hex="044A"/>
  <outline>
    <contour>
      <point x="839" y="307" type="curve" smooth="yes"/>
      <point x="839" y="419"/>
      <point x="771" y="541"/>
      <point x="573" y="541" type="curve" smooth="yes"/>
      <point x="524" y="541"/>
      <point x="394" y="529"/>
      <point x="322" y="456" type="curve"/>
      <point x="303" y="378" type="line"/>
      <point x="368" y="441"/>
      <point x="441" y="460"/>
      <point x="494" y="460" type="curve" smooth="yes"/>
      <point x="654" y="460"/>
      <point x="685" y="350"/>
      <point x="684" y="256" type="curve" smooth="yes"/>
      <point x="683" y="159"/>
      <point x="625" y="64"/>
      <point x="485" y="64" type="curve" smooth="yes"/>
      <point x="384" y="64"/>
      <point x="338" y="119"/>
      <point x="338" y="239" type="curve" smooth="yes"/>
      <point x="338" y="407"/>
      <point x="404" y="605"/>
      <point x="680" y="906" type="curve"/>
      <point x="647" y="937" type="line"/>
      <point x="356" y="698"/>
      <point x="192" y="442"/>
      <point x="192" y="206" type="curve" smooth="yes"/>
      <point x="192" y="95"/>
      <point x="254" y="-41"/>
      <point x="447" y="-41" type="curve" smooth="yes"/>
      <point x="613" y="-41"/>
      <point x="839" y="170"/>
    </contour>
    <contour>
      <point x="193" y="936" type="curve" smooth="yes"/>
      <point x="94" y="936"/>
      <point x="72" y="796"/>
      <point x="37" y="667" type="curve"/>
      <point x="77" y="652" type="line"/>
      <point x="115" y="760"/>
      <point x="152" y="798"/>
      <point x="177" y="798" type="curve" smooth="yes"/>
      <point x="239" y="798"/>
      <point x="307" y="771"/>
      <point x="368" y="771" type="curve" smooth="yes"/>
      <point x="410" y="771"/>
      <point x="523" y="813"/>
      <point x="680" y="905" type="curve"/>
      <point x="647" y="936" type="line"/>
      <point x="595" y="908"/>
      <point x="529" y="870"/>
      <point x="472" y="870" type="curve" smooth="yes"/>
      <point x="404" y="870"/>
      <point x="251" y="936"/>
    </contour>
    <contour>
      <point x="480" y="1000" type="move" name="U"/>
    </contour>
    <contour>
      <point x="419" y="-100" type="move" name="L"/>
    </contour>
  </outline>
</glyph>
<glyph name="CySmIeGrave" format="1">
  <advance width="805"/>
  <unicode hex="0450"/>
  <outline>
    <component base="CySmIe"/>
    <component base="CombGrave" xOffset="770"/>
    <contour>
      <point x="545" y="1370" type="move" name="U"/>
    </contour>
    <contour>
      <point x="344" y="-100" type="move" name="L"/>
    </contour>
  </outline>
</glyph>
<glyph name="CySmIo" format="1">
  <advance width="805"/>
  <unicode hex="0451"/>
  <outline>
    <component base="CySmIe"/>
    <component base="CombDiaer" xOffset="883"/>
    <contour>
      <point x="547" y="1370" type="move" name="U"/>
    </contour>
    <contour>
      <point x="344" y="-100" type="move" name="L"/>
    </contour>
  </outline>
</glyph>
<glyph name="CySmGje" format="1">
  <advance width="743"/>
  <unicode hex="0453"/>
  <outline>
    <component base="CySmGhe"/>
    <component base="CombAcute" xOffset="834"/>
    <contour>
      <point x="499" y="1370" type="move" name="U"/>
    </contour>
    <contour>
      <point x="297" y="-100" type="move" name="L"/>
    </contour>
  </outline>
</glyph>
<glyph name="CySmNje" format="1">
  <advance width="1313"/>
  <unicode hex="045A"/>
  <outline>
    <contour>
      <point x="295" y="360" type="curve" smooth="yes"/>
      <point x="328" y="597"/>
      <point x="358" y="759"/>
      <point x="358" y="850" type="curve" smooth="yes"/>
      <point x="358" y="912"/>
      <point x="352" y="936"/>
      <point x="315" y="936" type="curve" smooth="yes"/>
      <point x="282" y="936"/>
      <point x="160" y="891"/>
      <point x="47" y="842" type="curve"/>
      <point x="61" y="803" type="line"/>
      <point x="61" y="803"/>
      <point x="145" y="829"/>
      <point x="168" y="829" type="curve" smooth="yes"/>
      <point x="192" y="829"/>
      <point x="205" y="823"/>
      <point x="205" y="762" type="curve" smooth="yes"/>
      <point x="205" y="668"/>
      <point x="147" y="256"/>
      <point x="92" y="-10" type="curve"/>
      <point x="125" y="-41" type="line"/>
      <point x="158" y="-23"/>
      <point x="233" y="6"/>
      <point x="268" y="25" type="curve"/>
      <point x="268" y="105"/>
      <point x="278" y="241"/>
    </contour>
    <contour>
      <point x="718" y="504" type="line"/>
      <point x="699" y="529" type="line"/>
      <point x="505" y="499"/>
      <point x="441" y="501"/>
      <point x="265" y="511" type="curve"/>
      <point x="253" y="490"/>
      <point x="243" y="444"/>
      <point x="234" y="423" type="curve"/>
      <point x="253" y="401" type="line"/>
      <point x="452" y="431"/>
      <point x="515" y="429"/>
      <point x="687" y="419" type="curve"/>
    </contour>
    <contour>
      <point x="889" y="64" type="curve" smooth="yes"/>
      <point x="798" y="64"/>
      <point x="752" y="106"/>
      <point x="752" y="217" type="curve" smooth="yes"/>
      <point x="752" y="293"/>
      <point x="800" y="623"/>
      <point x="857" y="905" type="curve"/>
      <point x="824" y="936" type="line"/>
      <point x="791" y="918"/>
      <point x="716" y="889"/>
      <point x="681" y="870" type="curve"/>
      <point x="688" y="806"/>
      <point x="667" y="630"/>
      <point x="647" y="492" type="curve" smooth="yes"/>
      <point x="627" y="357"/>
      <point x="611" y="238"/>
      <point x="611" y="160" type="curve" smooth="yes"/>
      <point x="611" y="76"/>
      <point x="668" y="-41"/>
      <point x="851" y="-41" type="curve" smooth="yes"/>
      <point x="1017" y="-41"/>
      <point x="1243" y="170"/>
      <point x="1243" y="307" type="curve" smooth="yes"/>
      <point x="1243" y="419"/>
      <point x="1176" y="541"/>
      <point x="968" y="541" type="curve" smooth="yes"/>
      <point x="919" y="541"/>
      <point x="825" y="527"/>
      <point x="748" y="509" type="curve"/>
      <point x="729" y="431" type="line"/>
      <point x="769" y="445"/>
      <point x="836" y="460"/>
      <point x="889" y="460" type="curve" smooth="yes"/>
      <point x="1059" y="461"/>
      <point x="1089" y="350"/>
      <point x="1088" y="256" type="curve" smooth="yes"/>
      <point x="1087" y="159"/>
      <point x="1029" y="64"/>
    </contour>
    <contour>
      <point x="559" y="1000" type="move" name="U"/>
    </contour>
    <contour>
      <point x="564" y="-100" type="move" name="L"/>
    </contour>
  </outline>
</glyph>
<glyph name="CyCapYat" format="1">
  <advance width="1180"/>
  <unicode hex="0462"/>
  <outline>
    <contour>
      <point x="1105" y="336" type="curve"/>
      <point x="1135" y="561"/>
      <point x="1004" y="689"/>
      <point x="742" y="689" type="curve" smooth="yes"/>
      <point x="651" y="689"/>
      <point x="561" y="675"/>
      <point x="495" y="655" type="curve"/>
      <point x="494" y="577" type="line"/>
      <point x="553" y="587"/>
      <point x="615" y="599"/>
      <point x="694" y="599" type="curve" smooth="yes"/>
      <point x="903" y="599"/>
      <point x="972" y="449"/>
      <point x="952" y="302" type="curve" smooth="yes"/>
      <point x="931" y="152"/>
      <point x="810" y="70"/>
      <point x="637" y="70" type="curve" smooth="yes"/>
      <point x="583" y="70"/>
      <point x="502" y="76"/>
      <point x="468" y="98" type="curve"/>
      <point x="255" y="0" type="line"/>
      <point x="255" y="0"/>
      <point x="540" y="-14"/>
      <point x="646" y="-14" type="curve" smooth="yes"/>
      <point x="889" y="-14"/>
      <point x="1073" y="109"/>
    </contour>
    <contour>
      <point x="594" y="0" type="line"/>
      <point x="599" y="43" type="line"/>
      <point x="516" y="61"/>
      <point x="476" y="88"/>
      <point x="478" y="104" type="curve" smooth="yes"/>
      <point x="638" y="1275" type="line" smooth="yes"/>
      <point x="641" y="1294"/>
      <point x="693" y="1318"/>
      <point x="777" y="1337" type="curve"/>
      <point x="783" y="1380" type="line"/>
      <point x="378" y="1380" type="line"/>
      <point x="372" y="1337" type="line"/>
      <point x="456" y="1318"/>
      <point x="496" y="1291"/>
      <point x="494" y="1275" type="curve" smooth="yes"/>
      <point x="334" y="104" type="line" smooth="yes"/>
      <point x="331" y="86"/>
      <point x="278" y="61"/>
      <point x="194" y="43" type="curve"/>
      <point x="189" y="0" type="line"/>
    </contour>
    <contour>
      <point x="1016" y="1095" type="curve"/>
      <point x="993" y="1120" type="line"/>
      <point x="556" y="1120" type="line"/>
      <point x="518" y="1030" type="line"/>
      <point x="848" y="1030" type="line" smooth="yes"/>
      <point x="902" y="1030"/>
      <point x="903" y="933"/>
      <point x="905" y="820" type="curve"/>
      <point x="946" y="820" type="line"/>
      <point x="971" y="904"/>
      <point x="1005" y="1027"/>
    </contour>
    <contour>
      <point x="734" y="1030" type="line"/>
      <point x="720" y="1120" type="line"/>
      <point x="165" y="1120" type="line"/>
      <point x="143" y="1050"/>
      <point x="107" y="912"/>
      <point x="92" y="834" type="curve"/>
      <point x="128" y="815" type="line"/>
      <point x="204" y="971"/>
      <point x="238" y="1030"/>
      <point x="275" y="1030" type="curve"/>
    </contour>
    <contour>
      <point x="590" y="1420" type="move" name="U"/>
    </contour>
    <contour>
      <point x="370" y="-100" type="move" name="L"/>
    </contour>
  </outline>
</glyph>
<glyph name="CySmFita" format="1">
  <advance width="864"/>
  <unicode hex="0473"/>
  <outline>
    <contour>
      <point x="811" y="559" type="curve" smooth="yes"/>
      <point x="811" y="780"/>
      <point x="731" y="936"/>
      <point x="522" y="936" type="curve" smooth="yes"/>
      <point x="440" y="936"/>
      <point x="354" y="893"/>
      <point x="287" y="840" type="curve" smooth="yes"/>
      <point x="111" y="700"/>
      <point x="53" y="535"/>
      <point x="53" y="344" type="curve" smooth="yes"/>
      <point x="53" y="125"/>
      <point x="160" y="-41"/>
      <point x="346" y="-41" type="curve" smooth="yes"/>
      <point x="426" y="-41"/>
      <point x="512" y="6"/>
      <point x="582" y="63" type="curve" smooth="yes"/>
      <point x="731" y="186"/>
      <point x="811" y="381"/>
    </contour>
    <contour>
      <point x="414" y="72" type="curve" smooth="yes"/>
      <point x="291" y="72"/>
      <point x="197" y="221"/>
      <point x="197" y="399" type="curve" smooth="yes"/>
      <point x="197" y="405" type="line"/>
      <point x="374" y="430"/>
      <point x="508" y="429"/>
      <point x="662" y="420" type="curve"/>
      <point x="643" y="262"/>
      <point x="569" y="72"/>
    </contour>
    <contour>
      <point x="453" y="819" type="curve" smooth="yes"/>
      <point x="585" y="819"/>
      <point x="663" y="714"/>
      <point x="668" y="524" type="curve"/>
      <point x="497" y="500"/>
      <point x="362" y="501"/>
      <point x="205" y="510" type="curve"/>
      <point x="228" y="660"/>
      <point x="299" y="819"/>
    </contour>
    <contour>
      <point x="354" y="-100" type="move" name="L"/>
    </contour>
    <contour>
      <point x="505" y="1000" type="move" name="U"/>
    </contour>
  </outline>
</glyph>
<glyph name="CyCapIzhitsa" format="1">
  <advance width="1300"/>
  <unicode hex="0474"/>
  <outline>
    <contour>
      <point x="411" y="1153" type="line"/>
      <point x="405" y="1191"/>
      <point x="439" y="1209"/>
      <point x="535" y="1217" type="curve"/>
      <point x="541" y="1260" type="line"/>
      <point x="150" y="1260" type="line"/>
      <point x="144" y="1217" type="line"/>
      <point x="219" y="1206"/>
      <point x="256" y="1186"/>
      <point x="263" y="1151" type="curve" smooth="yes"/>
      <point x="497" y="-30" type="line"/>
      <point x="529" y="-22"/>
      <point x="624" y="0"/>
      <point x="645" y="59" type="curve" smooth="yes"/>
      <point x="730" y="303"/>
      <point x="798" y="509"/>
      <point x="894" y="745" type="curve" smooth="yes"/>
      <point x="1027" y="1077"/>
      <point x="1095" y="1121"/>
      <point x="1157" y="1121" type="curve" smooth="yes"/>
      <point x="1205" y="1121"/>
      <point x="1234" y="1079"/>
      <point x="1232" y="944" type="curve"/>
      <point x="1278" y="943" type="line"/>
      <point x="1290" y="949"/>
      <point x="1395" y="1206"/>
      <point x="1374" y="1226" type="curve" smooth="yes"/>
      <point x="1350" y="1251"/>
      <point x="1258" y="1280"/>
      <point x="1213" y="1280" type="curve" smooth="yes"/>
      <point x="1084" y="1280"/>
      <point x="990" y="1211"/>
      <point x="865" y="929" type="curve" smooth="yes"/>
      <point x="813" y="814"/>
      <point x="710" y="544"/>
      <point x="598" y="214" type="curve"/>
    </contour>
    <contour>
      <point x="556" y="0" type="move" name="H"/>
    </contour>
    <contour>
      <point x="522" y="0" type="move" name="O"/>
    </contour>
    <contour>
      <point x="751" y="1320" type="move" name="U"/>
    </contour>
    <contour>
      <point x="538" y="-100" type="move" name="L"/>
    </contour>
  </outline>
</glyph>
<glyph name="CySmSemisoftSgn" format="1">
  <advance width="818"/>
  <unicode hex="048D"/>
  <outline>
    <contour>
      <point x="584" y="876" type="line"/>
      <point x="565" y="901" type="line"/>
      <point x="61" y="901" type="line"/>
      <point x="49" y="880"/>
      <point x="39" y="854"/>
      <point x="30" y="833" type="curve"/>
      <point x="49" y="811" type="line"/>
      <point x="553" y="811" type="line"/>
    </contour>
    <contour>
      <point x="283" y="453" type="curve" smooth="yes"/>
      <point x="306" y="587"/>
      <point x="336" y="827"/>
      <point x="391" y="1093" type="curve"/>
      <point x="358" y="1124" type="line"/>
      <point x="325" y="1106"/>
      <point x="250" y="1077"/>
      <point x="215" y="1058" type="curve"/>
      <point x="217" y="979"/>
      <point x="205" y="828"/>
      <point x="167" y="580" type="curve" smooth="yes"/>
      <point x="146" y="445"/>
      <point x="112" y="238"/>
      <point x="112" y="160" type="curve" smooth="yes"/>
      <point x="112" y="76"/>
      <point x="173" y="-41"/>
      <point x="356" y="-41" type="curve" smooth="yes"/>
      <point x="522" y="-41"/>
      <point x="748" y="170"/>
      <point x="748" y="307" type="curve" smooth="yes"/>
      <point x="748" y="419"/>
      <point x="681" y="541"/>
      <point x="473" y="541" type="curve" smooth="yes"/>
      <point x="424" y="541"/>
      <point x="330" y="527"/>
      <point x="253" y="509" type="curve"/>
      <point x="234" y="431" type="line"/>
      <point x="274" y="445"/>
      <point x="341" y="460"/>
      <point x="394" y="460" type="curve" smooth="yes"/>
      <point x="564" y="461"/>
      <point x="594" y="350"/>
      <point x="593" y="256" type="curve" smooth="yes"/>
      <point x="592" y="159"/>
      <point x="534" y="64"/>
      <point x="394" y="64" type="curve" smooth="yes"/>
      <point x="303" y="64"/>
      <point x="253" y="106"/>
      <point x="253" y="217" type="curve" smooth="yes"/>
      <point x="253" y="251"/>
      <point x="273" y="397"/>
    </contour>
    <contour>
      <point x="568" y="1320" type="move" name="U"/>
    </contour>
    <contour>
      <point x="368" y="-100" type="move" name="L"/>
    </contour>
  </outline>
</glyph>
<glyph name="CyCapGheMiddleHook" format="1">
  <advance width="1012"/>
  <unicode hex="0494"/>
  <outline>
    <contour>
      <point x="438" y="0" type="line"/>
      <point x="443" y="43" type="line"/>
      <point x="303" y="70"/>
      <point x="290" y="86"/>
      <point x="293" y="104" type="curve" smooth="yes"/>
      <point x="440" y="1177" type="line" smooth="yes"/>
      <point x="442" y="1195"/>
      <point x="493" y="1198"/>
      <point x="576" y="1217" type="curve"/>
      <point x="582" y="1260" type="line"/>
      <point x="431" y="1260" type="line"/>
      <point x="177" y="1260" type="line"/>
      <point x="171" y="1217" type="line"/>
      <point x="255" y="1198"/>
      <point x="295" y="1171"/>
      <point x="293" y="1155" type="curve" smooth="yes"/>
      <point x="149" y="104" type="line" smooth="yes"/>
      <point x="146" y="86"/>
      <point x="94" y="61"/>
      <point x="10" y="43" type="curve"/>
      <point x="5" y="0" type="line"/>
    </contour>
    <contour>
      <point x="938" y="1235" type="curve"/>
      <point x="911" y="1260" type="line"/>
      <point x="431" y="1260" type="line"/>
      <point x="393" y="1170" type="line"/>
      <point x="769" y="1170" type="line" smooth="yes"/>
      <point x="813" y="1170"/>
      <point x="832" y="1086"/>
      <point x="814" y="960" type="curve"/>
      <point x="854" y="960" type="line"/>
      <point x="876" y="1011"/>
      <point x="924" y="1167"/>
    </contour>
    <contour>
      <point x="905" y="241" type="curve" smooth="yes"/>
      <point x="955" y="609"/>
      <point x="757" y="740"/>
      <point x="549" y="740" type="curve" smooth="yes"/>
      <point x="479" y="740"/>
      <point x="370" y="723"/>
      <point x="274" y="700" type="curve"/>
      <point x="272" y="622" type="line"/>
      <point x="347" y="637"/>
      <point x="429" y="650"/>
      <point x="477" y="650" type="curve" smooth="yes"/>
      <point x="661" y="650"/>
      <point x="796" y="532"/>
      <point x="748" y="180" type="curve" smooth="yes"/>
      <point x="702" y="-155"/>
      <point x="515" y="-300"/>
      <point x="328" y="-300" type="curve" smooth="yes"/>
      <point x="285" y="-300"/>
      <point x="216" y="-286"/>
      <point x="171" y="-261" type="curve"/>
      <point x="189" y="-337" type="line"/>
      <point x="229" y="-365"/>
      <point x="300" y="-380"/>
      <point x="362" y="-380" type="curve" smooth="yes"/>
      <point x="581" y="-380"/>
      <point x="846" y="-184"/>
    </contour>
    <contour>
      <point x="578" y="1320" type="move" name="U"/>
    </contour>
    <contour>
      <point x="332" y="-600" type="move" name="L"/>
    </contour>
  </outline>
</glyph>
<glyph name="CySmGheMiddleHook" format="1">
  <advance width="851"/>
  <unicode hex="0495"/>
  <outline>
    <contour>
      <point x="262" y="25" type="curve"/>
      <point x="265" y="134"/>
      <point x="298" y="334"/>
      <point x="310" y="438" type="curve" smooth="yes"/>
      <point x="324" y="559"/>
      <point x="346" y="748"/>
      <point x="347" y="872" type="curve"/>
      <point x="321" y="882"/>
      <point x="303" y="887"/>
      <point x="266" y="887" type="curve" smooth="yes"/>
      <point x="272" y="887"/>
      <point x="202" y="866"/>
      <point x="158" y="847" type="curve"/>
      <point x="180" y="847"/>
      <point x="199" y="821"/>
      <point x="199" y="760" type="curve" smooth="yes"/>
      <point x="199" y="639"/>
      <point x="145" y="274"/>
      <point x="86" y="-10" type="curve"/>
      <point x="119" y="-41" type="line"/>
      <point x="152" y="-23"/>
      <point x="227" y="6"/>
    </contour>
    <contour>
      <point x="54" y="795" type="line"/>
      <point x="208" y="824"/>
      <point x="423" y="833"/>
      <point x="580" y="822" type="curve" smooth="yes"/>
      <point x="651" y="817"/>
      <point x="701" y="806"/>
      <point x="683" y="635" type="curve"/>
      <point x="740" y="635" type="line"/>
      <point x="749" y="690"/>
      <point x="799" y="870"/>
      <point x="822" y="919" type="curve"/>
      <point x="801" y="936" type="line"/>
      <point x="586" y="906"/>
      <point x="312" y="901"/>
      <point x="140" y="915" type="curve"/>
      <point x="39" y="826" type="line"/>
    </contour>
    <contour>
      <point x="741" y="80" type="curve" smooth="yes"/>
      <point x="793" y="372"/>
      <point x="726" y="540"/>
      <point x="482" y="540" type="curve" smooth="yes"/>
      <point x="434" y="540"/>
      <point x="332" y="520"/>
      <point x="264" y="471" type="curve"/>
      <point x="260" y="396" type="line"/>
      <point x="318" y="440"/>
      <point x="401" y="460"/>
      <point x="445" y="460" type="curve" smooth="yes"/>
      <point x="599" y="460"/>
      <point x="634" y="302"/>
      <point x="591" y="40" type="curve" smooth="yes"/>
      <point x="548" y="-220"/>
      <point x="387" y="-427"/>
      <point x="209" y="-427" type="curve" smooth="yes"/>
      <point x="167" y="-427"/>
      <point x="105" y="-419"/>
      <point x="60" y="-394" type="curve"/>
      <point x="71" y="-468" type="line"/>
      <point x="107" y="-487"/>
      <point x="149" y="-500"/>
      <point x="225" y="-500" type="curve" smooth="yes"/>
      <point x="454" y="-500"/>
      <point x="680" y="-262"/>
    </contour>
    <contour>
      <point x="487" y="1000" type="move" name="U"/>
    </contour>
    <contour>
      <point x="254" y="-600" type="move" name="L"/>
    </contour>
  </outline>
</glyph>
<glyph name="CyCapKaVertStrk" format="1">
  <advance width="1148"/>
  <unicode hex="049C"/>
  <outline>
    <contour>
      <point x="1135" y="104" type="curve"/>
      <point x="1120" y="145" type="line"/>
      <point x="1007" y="103"/>
      <point x="956" y="106"/>
      <point x="932" y="159" type="curve" smooth="yes"/>
      <point x="709" y="658" type="line"/>
      <point x="755" y="699"/>
      <point x="794" y="774"/>
      <point x="842" y="895" type="curve" smooth="yes"/>
      <point x="919" y="1089"/>
      <point x="964" y="1127"/>
      <point x="1005" y="1127" type="curve" smooth="yes"/>
      <point x="1041" y="1127"/>
      <point x="1059" y="1098"/>
      <point x="1062" y="955" type="curve"/>
      <point x="1112" y="955" type="line"/>
      <point x="1172" y="1098"/>
      <point x="1221" y="1235"/>
      <point x="1200" y="1245" type="curve" smooth="yes"/>
      <point x="1163" y="1262"/>
      <point x="1106" y="1276"/>
      <point x="1071" y="1276" type="curve" smooth="yes"/>
      <point x="953" y="1276"/>
      <point x="889" y="1241"/>
      <point x="768" y="953" type="curve" smooth="yes"/>
      <point x="664" y="708"/>
      <point x="641" y="704"/>
      <point x="588" y="704" type="curve" smooth="yes"/>
      <point x="375" y="704" type="line"/>
      <point x="437" y="1155" type="line"/>
      <point x="439" y="1174"/>
      <point x="493" y="1198"/>
      <point x="576" y="1217" type="curve"/>
      <point x="582" y="1260" type="line"/>
      <point x="177" y="1260" type="line"/>
      <point x="171" y="1217" type="line"/>
      <point x="255" y="1198"/>
      <point x="295" y="1171"/>
      <point x="293" y="1155" type="curve" smooth="yes"/>
      <point x="149" y="104" type="line" smooth="yes"/>
      <point x="146" y="86"/>
      <point x="94" y="61"/>
      <point x="10" y="43" type="curve"/>
      <point x="5" y="0" type="line"/>
      <point x="410" y="0" type="line"/>
      <point x="415" y="43" type="line"/>
      <point x="331" y="61"/>
      <point x="291" y="88"/>
      <point x="293" y="104" type="curve" smooth="yes"/>
      <point x="363" y="614" type="line"/>
      <point x="402" y="614"/>
      <point x="603" y="614"/>
      <point x="603" y="614" type="curve"/>
      <point x="805" y="41" type="line"/>
      <point x="817" y="11"/>
      <point x="843" y="-14"/>
      <point x="895" y="-14" type="curve" smooth="yes"/>
      <point x="942" y="-14"/>
      <point x="1034" y="30"/>
    </contour>
    <contour>
      <point x="554" y="1013" type="line"/>
      <point x="449" y="245" type="line"/>
      <point x="469" y="224" type="line"/>
      <point x="491" y="230"/>
      <point x="518" y="236"/>
      <point x="540" y="245" type="curve"/>
      <point x="645" y="1013" type="line"/>
      <point x="622" y="1035" type="line"/>
    </contour>
    <contour>
      <point x="724" y="1320" type="move" name="U"/>
    </contour>
    <contour>
      <point x="527" y="-100" type="move" name="L"/>
    </contour>
  </outline>
</glyph>
<glyph name="CyCapEnDesc" format="1">
  <advance width="1206"/>
  <unicode hex="04A2"/>
  <outline>
    <contour>
      <point x="1103" y="0" type="line"/>
      <point x="1108" y="43" type="line"/>
      <point x="1025" y="61"/>
      <point x="979" y="58"/>
      <point x="982" y="74" type="curve" smooth="yes"/>
      <point x="1130" y="1155" type="line" smooth="yes"/>
      <point x="1132" y="1174"/>
      <point x="1186" y="1198"/>
      <point x="1269" y="1217" type="curve"/>
      <point x="1275" y="1260" type="line"/>
      <point x="870" y="1260" type="line"/>
      <point x="864" y="1217" type="line"/>
      <point x="948" y="1198"/>
      <point x="988" y="1171"/>
      <point x="986" y="1155" type="curve" smooth="yes"/>
      <point x="842" y="104" type="line" smooth="yes"/>
      <point x="839" y="86"/>
      <point x="787" y="61"/>
      <point x="703" y="43" type="curve"/>
      <point x="698" y="0" type="line"/>
    </contour>
    <contour>
      <point x="930" y="615" type="line"/>
      <point x="942" y="705" type="line"/>
      <point x="350" y="705" type="line"/>
      <point x="338" y="615" type="line"/>
    </contour>
    <contour>
      <point x="410" y="0" type="line"/>
      <point x="415" y="43" type="line"/>
      <point x="331" y="61"/>
      <point x="291" y="88"/>
      <point x="293" y="104" type="curve" smooth="yes"/>
      <point x="437" y="1155" type="line" smooth="yes"/>
      <point x="439" y="1174"/>
      <point x="493" y="1198"/>
      <point x="576" y="1217" type="curve"/>
      <point x="582" y="1260" type="line"/>
      <point x="177" y="1260" type="line"/>
      <point x="171" y="1217" type="line"/>
      <point x="255" y="1198"/>
      <point x="295" y="1171"/>
      <point x="293" y="1155" type="curve" smooth="yes"/>
      <point x="149" y="104" type="line" smooth="yes"/>
      <point x="146" y="86"/>
      <point x="94" y="61"/>
      <point x="10" y="43" type="curve"/>
      <point x="5" y="0" type="line"/>
    </contour>
    <contour>
      <point x="985" y="90" type="line"/>
      <point x="944" y="0" type="line"/>
      <point x="990" y="0"/>
      <point x="989" y="-175"/>
      <point x="957" y="-380" type="curve"/>
      <point x="1000" y="-380" type="line"/>
      <point x="1049" y="-261"/>
      <point x="1115" y="-62"/>
      <point x="1139" y="65" type="curve"/>
      <point x="1115" y="90" type="line"/>
    </contour>
    <contour>
      <point x="736" y="1320" type="move" name="U"/>
    </contour>
    <contour>
      <point x="539" y="-100" type="move" name="L"/>
    </contour>
  </outline>
</glyph>
<glyph name="CyCapPeMiddleHook" format="1">
  <advance width="1593"/>
  <unicode hex="04A6"/>
  <outline>
    <contour>
      <point x="410" y="0" type="line"/>
      <point x="415" y="43" type="line"/>
      <point x="331" y="61"/>
      <point x="291" y="88"/>
      <point x="293" y="104" type="curve" smooth="yes"/>
      <point x="439" y="1170" type="line"/>
      <point x="912" y="1170" type="line"/>
      <point x="766" y="104" type="line" smooth="yes"/>
      <point x="763" y="86"/>
      <point x="711" y="61"/>
      <point x="627" y="43" type="curve"/>
      <point x="622" y="0" type="line"/>
      <point x="1027" y="0" type="line"/>
      <point x="1032" y="43" type="line"/>
      <point x="948" y="61"/>
      <point x="908" y="88"/>
      <point x="910" y="104" type="curve" smooth="yes"/>
      <point x="1054" y="1155" type="line" smooth="yes"/>
      <point x="1056" y="1174"/>
      <point x="1109" y="1198"/>
      <point x="1193" y="1217" type="curve"/>
      <point x="1199" y="1260" type="line"/>
      <point x="177" y="1260" type="line"/>
      <point x="171" y="1217" type="line"/>
      <point x="255" y="1198"/>
      <point x="295" y="1171"/>
      <point x="293" y="1155" type="curve" smooth="yes"/>
      <point x="149" y="104" type="line" smooth="yes"/>
      <point x="146" y="86"/>
      <point x="94" y="61"/>
      <point x="10" y="43" type="curve"/>
      <point x="5" y="0" type="line"/>
    </contour>
    <contour>
      <point x="1515" y="241" type="curve"/>
      <point x="1565" y="609"/>
      <point x="1367" y="740"/>
      <point x="1159" y="740" type="curve" smooth="yes"/>
      <point x="1089" y="740"/>
      <point x="980" y="723"/>
      <point x="884" y="700" type="curve"/>
      <point x="882" y="622" type="line"/>
      <point x="957" y="637"/>
      <point x="1039" y="650"/>
      <point x="1087" y="650" type="curve" smooth="yes"/>
      <point x="1271" y="650"/>
      <point x="1406" y="532"/>
      <point x="1358" y="180" type="curve" smooth="yes"/>
      <point x="1312" y="-155"/>
      <point x="1125" y="-300"/>
      <point x="938" y="-300" type="curve" smooth="yes"/>
      <point x="895" y="-300"/>
      <point x="826" y="-286"/>
      <point x="781" y="-261" type="curve"/>
      <point x="799" y="-337" type="line"/>
      <point x="839" y="-365"/>
      <point x="910" y="-380"/>
      <point x="972" y="-380" type="curve" smooth="yes"/>
      <point x="1191" y="-380"/>
      <point x="1456" y="-184"/>
    </contour>
    <contour>
      <point x="715" y="1320" type="move" name="U"/>
    </contour>
    <contour>
      <point x="536" y="-100" type="move" name="L"/>
    </contour>
  </outline>
</glyph>
<glyph name="CySmPeMiddleHook" format="1">
  <advance width="1338"/>
  <unicode hex="04A7"/>
  <outline>
    <contour>
      <point x="867" y="762" type="curve" smooth="yes"/>
      <point x="867" y="891"/>
      <point x="822" y="936"/>
      <point x="738" y="936" type="curve" smooth="yes"/>
      <point x="619" y="936"/>
      <point x="489" y="860"/>
      <point x="344" y="678" type="curve"/>
      <point x="348" y="711"/>
      <point x="354" y="795"/>
      <point x="354" y="823" type="curve" smooth="yes"/>
      <point x="354" y="918"/>
      <point x="352" y="936"/>
      <point x="315" y="936" type="curve" smooth="yes"/>
      <point x="282" y="936"/>
      <point x="160" y="891"/>
      <point x="47" y="842" type="curve"/>
      <point x="61" y="803" type="line"/>
      <point x="61" y="803"/>
      <point x="145" y="829"/>
      <point x="168" y="829" type="curve" smooth="yes"/>
      <point x="192" y="829"/>
      <point x="205" y="823"/>
      <point x="205" y="762" type="curve" smooth="yes"/>
      <point x="205" y="668"/>
      <point x="147" y="256"/>
      <point x="92" y="-10" type="curve"/>
      <point x="125" y="-41" type="line"/>
      <point x="158" y="-23"/>
      <point x="233" y="6"/>
      <point x="268" y="25" type="curve"/>
      <point x="266" y="104"/>
      <point x="270" y="182"/>
      <point x="291" y="301" type="curve" smooth="yes"/>
      <point x="313" y="430"/>
      <point x="334" y="516"/>
      <point x="371" y="580" type="curve" smooth="yes"/>
      <point x="471" y="750"/>
      <point x="602" y="836"/>
      <point x="637" y="836" type="curve" smooth="yes"/>
      <point x="695" y="836"/>
      <point x="713" y="791"/>
      <point x="713" y="730" type="curve" smooth="yes"/>
      <point x="713" y="614"/>
      <point x="652" y="233"/>
      <point x="600" y="-10" type="curve"/>
      <point x="633" y="-41" type="line"/>
      <point x="666" y="-23"/>
      <point x="741" y="6"/>
      <point x="776" y="25" type="curve"/>
      <point x="774" y="104"/>
      <point x="778" y="182"/>
      <point x="799" y="301" type="curve" smooth="yes"/>
      <point x="821" y="430"/>
      <point x="867" y="688"/>
    </contour>
    <contour>
      <point x="1251" y="80" type="curve" smooth="yes"/>
      <point x="1303" y="372"/>
      <point x="1236" y="540"/>
      <point x="992" y="540" type="curve" smooth="yes"/>
      <point x="944" y="540"/>
      <point x="842" y="520"/>
      <point x="774" y="471" type="curve"/>
      <point x="770" y="396" type="line"/>
      <point x="828" y="440"/>
      <point x="911" y="460"/>
      <point x="955" y="460" type="curve" smooth="yes"/>
      <point x="1109" y="460"/>
      <point x="1144" y="302"/>
      <point x="1101" y="40" type="curve" smooth="yes"/>
      <point x="1058" y="-220"/>
      <point x="897" y="-427"/>
      <point x="719" y="-427" type="curve" smooth="yes"/>
      <point x="677" y="-427"/>
      <point x="615" y="-419"/>
      <point x="570" y="-394" type="curve"/>
      <point x="581" y="-468" type="line"/>
      <point x="617" y="-487"/>
      <point x="659" y="-500"/>
      <point x="735" y="-500" type="curve" smooth="yes"/>
      <point x="964" y="-500"/>
      <point x="1190" y="-262"/>
    </contour>
    <contour>
      <point x="584" y="1000" type="move" name="U"/>
    </contour>
    <contour>
      <point x="433" y="-100" type="move" name="L"/>
    </contour>
  </outline>
</glyph>
